<svg width="191" height="170" viewBox="0 0 191 170" fill="none" xmlns="http://www.w3.org/2000/svg">
<path d="M23.357 120.116C24.243 120.116 24.9611 120.834 24.9611 121.72C24.9611 122.606 24.243 123.324 23.357 123.324C22.4711 123.324 21.7529 122.606 21.7529 121.72C21.7529 120.834 22.4711 120.116 23.357 120.116Z" stroke="black"/>
<circle cx="23.3902" cy="78.6206" r="1.63726" transform="rotate(-90 23.3902 78.6206)" stroke="black"/>
<path d="M23.3555 119.617L23.3555 80.6912" stroke="black"/>
<rect x="19.6738" y="103.836" width="7.36438" height="7.36438" transform="rotate(-90 19.6738 103.836)" fill="black"/>
<path d="M140.347 72.3933C141.233 72.3933 141.951 73.1115 141.951 73.9975C141.951 74.8834 141.233 75.6016 140.347 75.6016C139.461 75.6016 138.743 74.8834 138.743 73.9975C138.743 73.1115 139.461 72.3933 140.347 72.3933Z" stroke="black"/>
<circle cx="140.38" cy="30.8979" r="1.63726" transform="rotate(-90 140.38 30.8979)" stroke="black"/>
<path d="M140.348 71.8926L140.348 32.9666" stroke="black"/>
<rect x="136.666" y="56.1133" width="7.36438" height="7.36438" transform="rotate(-90 136.666 56.1133)" fill="black"/>
<path d="M95.8223 21.2949C94.139 26.7446 89.531 30.9107 83.8289 31.9628L30.4424 168.614H40.4527L87.2218 45.5974L141.934 168.619H160.95L95.8223 21.2949Z" fill="#1D1D1B"/>
<path d="M155.01 154.955L148.382 150.758L136.941 152.883L135.747 154.803C136.404 156.134 136.783 157.628 136.783 159.211C136.783 164.734 132.306 169.211 126.783 169.211H172.548C164.399 169.211 158.213 162.152 155.015 154.955H155.01Z" fill="#1D1D1B"/>
<path d="M53.7074 169.165C48.6102 168.707 44.6124 164.425 44.6124 159.212C44.6124 157.718 44.9491 156.309 45.5329 155.036L42.9975 151.301L38.1002 152.037L36.0592 154.178L35.9961 154.236C33.5658 161.469 29.6522 166.582 23.7344 168.433V169.249H53.7232C53.7232 169.223 53.7179 169.191 53.7127 169.165H53.7074Z" fill="#1D1D1B"/>
<path d="M18.6745 169.011C28.4359 169.011 36.349 161.098 36.349 151.337C36.349 141.575 28.4359 133.662 18.6745 133.662C8.91315 133.662 1 141.575 1 151.337C1 161.098 8.91315 169.011 18.6745 169.011Z" stroke="#1D1D1B" stroke-miterlimit="10" stroke-dasharray="6 6"/>
<path d="M54.7615 169.005C60.2842 169.005 64.7613 164.528 64.7613 159.006C64.7613 153.483 60.2842 149.006 54.7615 149.006C49.2388 149.006 44.7617 153.483 44.7617 159.006C44.7617 164.528 49.2388 169.005 54.7615 169.005Z" stroke="#1D1D1B" stroke-miterlimit="10"/>
<path d="M126.926 169.005C132.448 169.005 136.925 164.528 136.925 159.006C136.925 153.483 132.448 149.006 126.926 149.006C121.403 149.006 116.926 153.483 116.926 159.006C116.926 164.528 121.403 169.005 126.926 169.005Z" stroke="#1D1D1B" stroke-miterlimit="10"/>
<path d="M172.69 169.011C182.452 169.011 190.365 161.098 190.365 151.337C190.365 141.575 182.452 133.662 172.69 133.662C162.929 133.662 155.016 141.575 155.016 151.337C155.016 161.098 162.929 169.011 172.69 169.011Z" stroke="#1D1D1B" stroke-miterlimit="10" stroke-dasharray="6 6"/>
<path d="M81.1454 32.0251C89.7127 32.0251 96.6579 25.0799 96.6579 16.5125C96.6579 7.9452 89.7127 1 81.1454 1C72.578 1 65.6328 7.9452 65.6328 16.5125C65.6328 25.0799 72.578 32.0251 81.1454 32.0251Z" stroke="#1D1D1B" stroke-miterlimit="10" stroke-dasharray="6 6"/>
<path d="M91.7287 169.194C129.409 169.194 159.954 138.648 159.954 100.968C159.954 63.2879 129.409 32.7422 91.7287 32.7422C54.0486 32.7422 23.5029 63.2879 23.5029 100.968C23.5029 138.648 54.0486 169.194 91.7287 169.194Z" stroke="#1D1D1B" stroke-miterlimit="10"/>
<path d="M43.3447 52.2871L146.762 157.6" stroke="#1D1D1B" stroke-miterlimit="10" stroke-dasharray="6 6"/>
<path d="M140.66 52.2871L35.4541 157.493" stroke="#1D1D1B" stroke-miterlimit="10" stroke-dasharray="6 6"/>
<path d="M91.7295 169.199V32.7422" stroke="#1D1D1B" stroke-miterlimit="10" stroke-dasharray="6 6"/>
<path d="M23.498 100.965H159.955" stroke="#1D1D1B" stroke-miterlimit="10" stroke-dasharray="6 6"/>
<path d="M122.351 100.703H60.6055V106.742H122.351V100.703Z" fill="#1D1D1B"/>
</svg>
