<svg width="177" height="205" viewBox="0 0 177 205" fill="none" xmlns="http://www.w3.org/2000/svg">
<path d="M84.8835 100.469L90.8789 100.469L90.8789 94.4647L84.8835 94.4647L84.8835 100.469Z" fill="#27272A"/>
<path d="M87.6185 196.664C85.5935 196.664 83.9519 198.308 83.9519 200.336C83.9519 202.364 85.5935 204.008 87.6185 204.008C89.6436 204.008 91.2852 202.364 91.2852 200.336C91.2852 198.308 89.6436 196.664 87.6185 196.664Z" fill="#27272A"/>
<rect x="1.5" y="41.7676" width="55.9332" height="109.133" stroke="#27272A"/>
<rect x="119.566" y="41.7676" width="55.9332" height="109.133" stroke="#27272A"/>
<path d="M57.7002 41.5L88.2668 -7.0332" stroke="#27272A"/>
<path d="M119.3 151.168L88.7332 199.701" stroke="#27272A" stroke-dasharray="6 6"/>
<path d="M1 41.7333L88.0331 -7.0332" stroke="#27272A"/>
<path d="M176 150.935L88.9669 199.701" stroke="#27272A"/>
<path d="M88.0342 -6.80078L119.301 41.4991" stroke="#27272A" stroke-dasharray="6 6"/>
<path d="M88.9678 199.465L57.7012 151.165" stroke="#27272A"/>
<path d="M176 41.4991L88.2666 -6.80078" stroke="#27272A"/>
<path d="M1.00028 151.165L88.7334 199.465" stroke="#27272A"/>
<path d="M57.4668 97.2656H73.8001" stroke="#27272A"/>
<path d="M102.733 97.2656H119.067" stroke="#27272A"/>
<path d="M57.7002 41.498L119.3 79.5313" stroke="#27272A"/>
<path d="M119.3 151.166L57.6999 113.133" stroke="#27272A" stroke-dasharray="6 6"/>
<path d="M57.9336 79.2988L119.3 41.4989" stroke="#27272A" stroke-dasharray="6 6"/>
<path d="M119.066 113.367L57.6999 151.167" stroke="#27272A"/>
<rect x="8.0332" y="49.6992" width="18.1333" height="18.1333" stroke="#27272A"/>
<rect x="8.0332" y="75.832" width="18.1333" height="18.1333" stroke="#27272A"/>
<rect x="33.2334" y="49.6992" width="18.1333" height="18.1333" stroke="#27272A"/>
<rect x="33.2334" y="75.832" width="18.1333" height="18.1333" stroke="#27272A"/>
<path d="M8.00098 102.867H29.9343H51.8675" stroke="#27272A"/>
<path d="M8.00098 112.664H29.9343H51.8675" stroke="#27272A"/>
<path d="M8.00098 121.998H29.9343H51.8675" stroke="#27272A"/>
<path d="M8.00098 131.801H29.9343H51.8675" stroke="#27272A"/>
<path d="M8.00098 141.6H25.0343H42.0676" stroke="#27272A"/>
<rect x="125.166" y="49.6992" width="22.7999" height="5.99998" stroke="#27272A"/>
<rect x="124.666" y="98.1992" width="32.6666" height="6.99998" fill="#27272A"/>
<rect x="124.666" y="61.332" width="40.1332" height="6.99998" fill="#27272A"/>
<rect x="125.166" y="110.834" width="39.1332" height="5.99998" stroke="#27272A"/>
<rect x="125.166" y="73.9648" width="29.7999" height="5.99998" stroke="#27272A"/>
<rect x="124.666" y="122.465" width="14" height="6.99998" fill="#27272A"/>
<rect x="125.166" y="86.0996" width="39.1332" height="5.99998" stroke="#27272A"/>
<path d="M30.2871 58.8848C30.4824 58.6895 30.4824 58.373 30.2871 58.1777L27.1052 54.9957C26.9099 54.8005 26.5933 54.8005 26.3981 54.9957C26.2028 55.191 26.2028 55.5076 26.3981 55.7028L29.2265 58.5312L26.3981 61.3597C26.2028 61.5549 26.2028 61.8715 26.3981 62.0668C26.5933 62.262 26.9099 62.262 27.1052 62.0668L30.2871 58.8848ZM26.4336 59.0312H29.9336V58.0312H26.4336V59.0312Z" fill="#27272A"/>
<path d="M30.0537 85.4864C30.249 85.2911 30.249 84.9745 30.0537 84.7793L26.8718 81.5973C26.6765 81.402 26.3599 81.402 26.1647 81.5973C25.9694 81.7925 25.9694 82.1091 26.1647 82.3044L28.9931 85.1328L26.1647 87.9612C25.9694 88.1565 25.9694 88.4731 26.1647 88.6683C26.3599 88.8636 26.6765 88.8636 26.8718 88.6683L30.0537 85.4864ZM26.2002 85.6328H29.7002V84.6328H26.2002V85.6328Z" fill="#27272A"/>
<path d="M27.1002 73.4652C27.1002 73.7414 27.3241 73.9652 27.6002 73.9652L32.1002 73.9652C32.3764 73.9652 32.6002 73.7414 32.6002 73.4652C32.6002 73.1891 32.3764 72.9652 32.1002 72.9652L28.1002 72.9652L28.1002 68.9652C28.1002 68.6891 27.8764 68.4652 27.6002 68.4652C27.3241 68.4652 27.1002 68.6891 27.1002 68.9652L27.1002 73.4652ZM32.8466 67.5117L27.2467 73.1117L27.9538 73.8188L33.5537 68.2188L32.8466 67.5117Z" fill="#27272A"/>
</svg>
