<svg width="218" height="214" viewBox="0 0 218 214" fill="none" xmlns="http://www.w3.org/2000/svg">
<path d="M200.523 43.0684H193.164V50.427H200.523V43.0684Z" fill="#1D1D1B"/>
<path d="M200.523 144.248H193.164V151.607H200.523V144.248Z" fill="#1D1D1B"/>
<path d="M113.139 195.762H105.78V203.12H113.139V195.762Z" fill="#1D1D1B"/>
<path d="M23.9163 144.248H16.5576V151.607H23.9163V144.248Z" fill="#1D1D1B"/>
<path d="M23.9163 43.0684H16.5576V50.427H23.9163V43.0684Z" fill="#1D1D1B"/>
<path d="M151.771 58.7063C153.803 58.7063 155.45 57.059 155.45 55.027C155.45 52.9949 153.803 51.3477 151.771 51.3477C149.739 51.3477 148.092 52.9949 148.092 55.027C148.092 57.059 149.739 58.7063 151.771 58.7063Z" fill="#1D1D1B"/>
<path d="M211.146 88.7911C211.329 90.8238 211.452 92.8737 211.514 94.939L211.014 94.9539C211.044 95.9745 211.06 96.9989 211.06 98.0269C211.06 99.0549 211.044 100.079 211.014 101.1L211.514 101.115C211.452 103.18 211.329 105.23 211.146 107.263L210.648 107.218C210.463 109.264 210.218 111.292 209.914 113.301L210.408 113.376C210.099 115.417 209.729 117.439 209.3 119.439L208.812 119.334C208.381 121.341 207.891 123.327 207.344 125.288L207.825 125.422C207.271 127.408 206.658 129.368 205.988 131.303L205.516 131.139C204.845 133.076 204.118 134.986 203.335 136.867L203.796 137.059C203.006 138.96 202.159 140.832 201.258 142.673L200.809 142.453C199.908 144.293 198.954 146.101 197.947 147.876L198.382 148.123C197.367 149.912 196.3 151.668 195.182 153.387L194.762 153.115C193.647 154.83 192.482 156.51 191.267 158.152L191.669 158.449C190.447 160.102 189.176 161.716 187.859 163.29L187.475 162.969C186.163 164.537 184.804 166.065 183.4 167.55L183.763 167.894C182.353 169.387 180.897 170.837 179.4 172.243L179.057 171.878C177.567 173.277 176.035 174.631 174.463 175.938L174.782 176.322C173.204 177.635 171.585 178.9 169.929 180.117L169.633 179.714C167.987 180.923 166.304 182.083 164.585 183.193L164.856 183.613C163.133 184.726 161.374 185.788 159.582 186.798L159.336 186.362C157.558 187.364 155.747 188.313 153.905 189.209L154.124 189.659C152.281 190.554 150.407 191.397 148.504 192.183L148.313 191.721C146.43 192.499 144.518 193.223 142.58 193.889L142.743 194.362C140.807 195.028 138.845 195.637 136.858 196.188L136.725 195.706C134.763 196.25 132.776 196.737 130.768 197.164L130.873 197.653C128.872 198.079 126.85 198.447 124.809 198.754L124.734 198.259C122.725 198.562 120.696 198.805 118.65 198.988L118.695 199.486C116.662 199.668 114.612 199.791 112.546 199.852L112.532 199.352C111.511 199.382 110.487 199.398 109.459 199.398C108.431 199.398 107.406 199.382 106.385 199.352L106.371 199.852C104.305 199.791 102.255 199.668 100.223 199.486L100.267 198.988C98.2209 198.805 96.1923 198.562 94.1829 198.259L94.1086 198.754C92.0668 198.447 90.0448 198.079 88.0445 197.653L88.1486 197.164C86.1406 196.737 84.1545 196.25 82.1923 195.706L82.0587 196.188C80.0723 195.637 78.1103 195.028 76.1746 194.362L76.3372 193.889C74.3989 193.223 72.4872 192.499 70.6041 191.721L70.4131 192.183C68.5102 191.397 66.6363 190.554 64.7934 189.659L65.0121 189.209C63.1698 188.313 61.3587 187.364 59.5808 186.362L59.3354 186.798C57.543 185.788 55.7841 184.726 54.061 183.613L54.3322 183.193C52.6132 182.083 50.9299 180.923 49.2844 179.714L48.9884 180.117C47.3317 178.9 45.7131 177.635 44.1348 176.322L44.4545 175.938C42.882 174.631 41.3497 173.277 39.8597 171.878L39.5175 172.243C38.0196 170.837 36.5642 169.387 35.1536 167.894L35.517 167.55C34.1135 166.065 32.7544 164.537 31.4419 162.969L31.0585 163.29C29.7407 161.716 28.4697 160.102 27.2476 158.449L27.6496 158.152C26.4355 156.51 25.2698 154.83 24.1547 153.115L23.7355 153.387C22.6175 151.667 21.55 149.912 20.5353 148.123L20.9702 147.876C19.9635 146.101 19.0089 144.292 18.1085 142.453L17.6594 142.673C16.7585 140.832 15.9115 138.96 15.1205 137.059L15.5822 136.867C14.7993 134.986 14.0717 133.076 13.4012 131.139L12.9287 131.303C12.2589 129.368 11.6459 127.408 11.0917 125.422L11.5733 125.288C11.0258 123.327 10.5359 121.341 10.1055 119.334L9.61665 119.439C9.18789 117.439 8.81796 115.417 8.50876 113.376L9.00312 113.301C8.69883 111.292 8.45364 109.264 8.26936 107.218L7.77138 107.263C7.5883 105.23 7.46506 103.18 7.40343 101.115L7.90321 101.1C7.87276 100.079 7.85742 99.0549 7.85742 98.0269C7.85742 96.9989 7.87276 95.9745 7.90321 94.9539L7.40343 94.939C7.46506 92.8736 7.5883 90.8237 7.77138 88.791L8.26937 88.8359C8.45364 86.79 8.69884 84.7616 9.00313 82.7526L8.50876 82.6777C8.81797 80.6363 9.1879 78.6147 9.61666 76.6148L10.1055 76.7196C10.5359 74.7124 11.0258 72.7272 11.5733 70.7659L11.0917 70.6315C11.646 68.6462 12.2589 66.6853 12.9287 64.7509L13.4012 64.9145C14.0717 62.9779 14.7993 61.0679 15.5822 59.1865L15.1206 58.9944C15.9115 57.0935 16.7585 55.2217 17.6594 53.381L18.1085 53.6008C19.0089 51.7612 19.9635 49.9529 20.9702 48.1778L20.5353 47.9312C21.55 46.1419 22.6175 44.3862 23.7355 42.6664L24.1547 42.9389C25.2698 41.2235 26.4355 39.5439 27.6496 37.9021L27.2476 37.6048C28.4697 35.9522 29.7407 34.3378 31.0585 32.7637L31.4419 33.0846C32.7544 31.5167 34.1135 29.989 35.517 28.5036L35.1536 28.1602C36.5642 26.6672 38.0196 25.2168 39.5175 23.811L39.8597 24.1755C41.3497 22.7772 42.882 21.4232 44.4545 20.1157L44.1348 19.7313C45.7131 18.419 47.3316 17.1533 48.9884 15.9364L49.2844 16.3393C50.9299 15.1307 52.6132 13.9703 54.3322 12.8604L54.061 12.4403C55.7841 11.3278 57.543 10.2656 59.3354 9.25588L59.5808 9.69152C61.3587 8.69007 63.1698 7.7405 65.012 6.84489L64.7934 6.39521C66.6363 5.49931 68.5102 4.65713 70.4131 3.8707L70.604 4.33279C72.4872 3.55452 74.3989 2.83113 76.3371 2.16461L76.1745 1.69179C78.1102 1.02614 80.0723 0.416936 82.0587 -0.133855L82.1923 0.347966C84.1545 -0.1961 86.1406 -0.68289 88.1486 -1.11049L88.0445 -1.59952C90.0448 -2.02546 92.0667 -2.39295 94.1085 -2.70011L94.1829 -2.20567C96.1922 -2.50795 98.2209 -2.75152 100.267 -2.93456L100.222 -3.43258C102.255 -3.61443 104.305 -3.73684 106.371 -3.79805L106.385 -3.29827C107.406 -3.32852 108.431 -3.34375 109.459 -3.34375C110.487 -3.34375 111.511 -3.32852 112.532 -3.29827L112.546 -3.79805C114.612 -3.73684 116.662 -3.61443 118.695 -3.43258L118.65 -2.93457C120.696 -2.75152 122.725 -2.50795 124.734 -2.20568L124.808 -2.70011C126.85 -2.39295 128.872 -2.02547 130.873 -1.59953L130.768 -1.11049C132.776 -0.682898 134.763 -0.196108 136.725 0.347957L136.858 -0.133866C138.845 0.416925 140.807 1.02613 142.742 1.69178L142.58 2.1646C144.518 2.83112 146.43 3.55451 148.313 4.33278L148.504 3.87069C150.407 4.65712 152.281 5.4993 154.124 6.3952L153.905 6.84487C155.747 7.74049 157.558 8.69005 159.336 9.69151L159.582 9.25587C161.374 10.2656 163.133 11.3277 164.856 12.4403L164.585 12.8604C166.304 13.9703 167.987 15.1307 169.633 16.3393L169.929 15.9364C171.585 17.1533 173.204 18.419 174.782 19.7313L174.463 20.1157C176.035 21.4232 177.567 22.7772 179.057 24.1756L179.4 23.811C180.897 25.2168 182.353 26.6672 183.763 28.1602L183.4 28.5036C184.804 29.989 186.163 31.5167 187.475 33.0846L187.859 32.7637C189.176 34.3378 190.447 35.9523 191.669 37.6049L191.267 37.9022C192.482 39.5439 193.647 41.2236 194.762 42.9389L195.182 42.6664C196.3 44.3863 197.367 46.1419 198.382 47.9312L197.947 48.1778C198.954 49.9529 199.908 51.7613 200.809 53.6008L201.258 53.381C202.159 55.2217 203.006 57.0936 203.797 58.9945L203.335 59.1865C204.118 61.0679 204.845 62.9779 205.516 64.9145L205.988 64.751C206.658 66.6854 207.271 68.6462 207.825 70.6315L207.344 70.766C207.891 72.7272 208.381 74.7124 208.812 76.7197L209.3 76.6148C209.729 78.6147 210.099 80.6363 210.408 82.6778L209.914 82.7527C210.218 84.7617 210.463 86.79 210.648 88.8359L211.146 88.7911Z" stroke="#1D1D1B" stroke-dasharray="6 6"/>
<path d="M20.2969 47.3259L109.462 -3.83984L196.779 47.3259V148.275L109.462 200.362L20.2969 148.275V47.3259Z" stroke="#1D1D1B"/>
<path d="M151.504 55.1641H65.5723V140.901H151.504V55.1641Z" stroke="#1D1D1B" stroke-miterlimit="10"/>
<path d="M65.7041 61.0391H70.839" stroke="#1D1D1B" stroke-miterlimit="10"/>
<path d="M65.7041 66.7441H70.839" stroke="#1D1D1B" stroke-miterlimit="10"/>
<path d="M65.7041 72.4473H70.839" stroke="#1D1D1B" stroke-miterlimit="10"/>
<path d="M65.7041 78.1543H70.839" stroke="#1D1D1B" stroke-miterlimit="10"/>
<path d="M65.7041 83.8613H70.839" stroke="#1D1D1B" stroke-miterlimit="10"/>
<path d="M65.7041 89.5684H70.839" stroke="#1D1D1B" stroke-miterlimit="10"/>
<path d="M65.7041 95.2734H70.839" stroke="#1D1D1B" stroke-miterlimit="10"/>
<path d="M65.7041 100.973H70.839" stroke="#1D1D1B" stroke-miterlimit="10"/>
<path d="M65.7041 106.684H70.839" stroke="#1D1D1B" stroke-miterlimit="10"/>
<path d="M65.7041 112.551H70.839" stroke="#1D1D1B" stroke-miterlimit="10"/>
<path d="M65.7041 118.258H70.839" stroke="#1D1D1B" stroke-miterlimit="10"/>
<path d="M65.7041 123.963H70.839" stroke="#1D1D1B" stroke-miterlimit="10"/>
<path d="M65.7041 129.668H70.839" stroke="#1D1D1B" stroke-miterlimit="10"/>
<path d="M65.7041 135.373H70.839" stroke="#1D1D1B" stroke-miterlimit="10"/>
<path d="M95.6562 94.6278C97.4952 92.9545 99.3133 91.2606 101.127 89.5625" stroke="#1D1D1B" stroke-miterlimit="10"/>
<path d="M95.7471 101.149C99.9895 97.2844 104.219 93.3995 108.387 89.4648" stroke="#1D1D1B" stroke-miterlimit="10"/>
<path d="M77.0254 93.6982C83.8041 87.5229 90.5579 81.327 97.2203 75.0523L102.563 81.0536L118.847 65.8867" stroke="#1D1D1B" stroke-miterlimit="10"/>
<path d="M95.7432 107.528C99.9067 103.676 104.091 99.8368 108.325 96.043" stroke="#1D1D1B" stroke-miterlimit="10"/>
<path d="M95.7998 114.102C99.9965 110.292 104.173 106.461 108.299 102.58" stroke="#1D1D1B" stroke-miterlimit="10"/>
<path d="M95.7168 120.748C99.9882 116.896 104.231 113.011 108.365 109.035" stroke="#1D1D1B" stroke-miterlimit="10"/>
<path d="M95.7803 127.077C99.9479 123.258 104.12 119.44 108.292 115.625" stroke="#1D1D1B" stroke-miterlimit="10"/>
<path d="M95.8555 133.747C100.019 129.929 104.183 126.106 108.342 122.283" stroke="#1D1D1B" stroke-miterlimit="10"/>
<path d="M101.122 135.326C103.534 133.135 105.95 130.952 108.374 128.773" stroke="#1D1D1B" stroke-miterlimit="10"/>
<path d="M91.048 111.115H78.3457V135.377H91.048V111.115Z" fill="#1D1D1B" stroke="#1D1D1B" stroke-miterlimit="10"/>
<path d="M108.362 89.4746H95.6602V135.381H108.362V89.4746Z" stroke="#1D1D1B" stroke-miterlimit="10"/>
<path d="M125.81 89.4746H113.107V135.381H125.81V89.4746Z" fill="#1D1D1B" stroke="#1D1D1B" stroke-miterlimit="10"/>
<path d="M143.224 77.8398H130.521V135.376H143.224V77.8398Z" stroke="#1D1D1B" stroke-miterlimit="10"/>
<path d="M114.454 63.4492H121.345V69.5168" stroke="#1D1D1B" stroke-miterlimit="10"/>
<path d="M109.462 -3.83984V54.7012" stroke="#1D1D1B"/>
<path d="M109.462 140.568V199.109" stroke="#1D1D1B"/>
<path d="M196.779 47.7871L151.504 55.1624" stroke="#1D1D1B"/>
<path d="M196.779 148.273L151.504 140.898" stroke="#1D1D1B"/>
<path d="M20.2969 47.7871L65.5725 55.1624" stroke="#1D1D1B"/>
<path d="M20.2969 148.273L65.5725 140.898" stroke="#1D1D1B"/>
<rect x="6.93945" y="133.711" width="27.5147" height="27.5147" stroke="#1D1D1B"/>
<rect x="183.548" y="32.5312" width="27.5147" height="27.5147" stroke="#1D1D1B"/>
<rect x="96.1621" y="185.221" width="27.5147" height="27.5147" stroke="#1D1D1B"/>
<circle cx="20.6962" cy="46.288" r="20.1962" stroke="#1D1D1B"/>
<circle cx="109.921" cy="-4.30383" r="20.1962" stroke="#1D1D1B"/>
<circle cx="197.304" cy="147.47" r="20.1962" stroke="#1D1D1B"/>
</svg>
