<svg width="194" height="184" viewBox="0 0 194 184" fill="none" xmlns="http://www.w3.org/2000/svg">
<path d="M97.2763 67.5401C112.979 67.5401 125.709 54.783 125.709 39.0464C125.709 23.3098 112.979 10.5527 97.2763 10.5527C81.5734 10.5527 68.8438 23.3098 68.8438 39.0464C68.8438 54.783 81.5734 67.5401 97.2763 67.5401Z" stroke="#1D1D1B" stroke-miterlimit="10"/>
<path d="M131.318 125.522C147.021 125.522 159.751 112.765 159.751 97.0288C159.751 81.2922 147.021 68.5352 131.318 68.5352C115.615 68.5352 102.886 81.2922 102.886 97.0288C102.886 112.765 115.615 125.522 131.318 125.522Z" stroke="#1D1D1B" stroke-miterlimit="10"/>
<path d="M63.4911 68.5352C47.7906 68.5352 35.0586 81.2945 35.0586 97.0288C35.0586 112.763 47.7906 125.522 63.4911 125.522C79.1916 125.522 91.9236 112.763 91.9236 97.0288C91.9236 81.2945 79.1916 68.5352 63.4911 68.5352ZM63.4911 111.394C55.5725 111.394 49.1572 104.964 49.1572 97.0288C49.1572 89.0932 55.5725 82.6641 63.4911 82.6641C71.4097 82.6641 77.8251 89.0932 77.8251 97.0288C77.8251 104.964 71.4097 111.394 63.4911 111.394Z" stroke="#1D1D1B" stroke-miterlimit="10"/>
<path d="M29.4325 182.427C45.1354 182.427 57.865 169.67 57.865 153.933C57.865 138.197 45.1354 125.439 29.4325 125.439C13.7297 125.439 1 138.197 1 153.933C1 169.67 13.7297 182.427 29.4325 182.427Z" stroke="#1D1D1B" stroke-miterlimit="10" stroke-dasharray="6 6"/>
<path d="M97.3368 182.601C113.04 182.601 125.769 169.844 125.769 154.107C125.769 138.37 113.04 125.613 97.3368 125.613C81.634 125.613 68.9043 138.37 68.9043 154.107C68.9043 169.844 81.634 182.601 97.3368 182.601Z" stroke="#1D1D1B" stroke-miterlimit="10" stroke-dasharray="6 6"/>
<path d="M101.292 35.0215H93.252V43.0788H101.292V35.0215Z" fill="#1D1D1B"/>
<path d="M135.335 92.7988H127.295V100.856H135.335V92.7988Z" fill="#1D1D1B"/>
<path d="M101.322 149.193H93.2822V157.251H101.322V149.193Z" fill="#1D1D1B"/>
<path d="M131.061 88.0979V58.3108L105.9 43.7559" stroke="#1D1D1B" stroke-miterlimit="10" stroke-dasharray="6 6"/>
<path d="M76.2607 104.79L97.2758 116.949L122.732 102.219" stroke="#1D1D1B" stroke-miterlimit="10" stroke-dasharray="6 6"/>
<path d="M88.5073 43.832L63.4912 58.3109V82.6656" stroke="#1D1D1B" stroke-miterlimit="10"/>
<path d="M38.8774 111.531L29.6758 116.857V154.717" stroke="#1D1D1B" stroke-miterlimit="10"/>
<path d="M165.02 182.601C180.723 182.601 193.453 169.844 193.453 154.107C193.453 138.37 180.723 125.613 165.02 125.613C149.318 125.613 136.588 138.37 136.588 154.107C136.588 169.844 149.318 182.601 165.02 182.601Z" stroke="#1D1D1B" stroke-miterlimit="10"/>
<path d="M139.837 102.324L164.899 116.826V154.686" stroke="#1D1D1B" stroke-miterlimit="10"/>
<path d="M97.2754 116.947V153.962" stroke="#1D1D1B" stroke-miterlimit="10" stroke-dasharray="6 6"/>
<path d="M97.2754 -6.22461V30.7829" stroke="#1D1D1B" stroke-miterlimit="10"/>
<path d="M91.8631 96.7185H77.7569C77.7569 96.8327 77.7721 96.9468 77.7721 97.0685C77.7721 104.654 71.9034 110.855 64.4707 111.38V125.532C79.6929 124.984 91.8707 112.453 91.8707 97.0609C91.8707 96.9468 91.8707 96.8327 91.8631 96.7109V96.7185Z" fill="#1D1D1B"/>
<path d="M29.4321 159.617C32.5642 159.617 35.1034 157.072 35.1034 153.934C35.1034 150.795 32.5642 148.25 29.4321 148.25C26.2999 148.25 23.7607 150.795 23.7607 153.934C23.7607 157.072 26.2999 159.617 29.4321 159.617Z" fill="#1D1D1B"/>
<path d="M165.02 159.791C168.152 159.791 170.691 157.246 170.691 154.107C170.691 150.968 168.152 148.424 165.02 148.424C161.888 148.424 159.349 150.968 159.349 154.107C159.349 157.246 161.888 159.791 165.02 159.791Z" fill="#1D1D1B"/>
<path d="M63.5586 75.7871C75.4175 75.7871 85.0291 85.4194 85.0291 97.3038" stroke="#1D1D1B" stroke-miterlimit="10"/>
</svg>
