<svg width="241" height="172" viewBox="0 0 241 172" fill="none" xmlns="http://www.w3.org/2000/svg">
<path d="M10.5016 95.373H11.5167C16.7644 95.373 21.0186 91.142 21.0186 85.9226L21.0186 25.5265C21.0186 20.3072 16.7644 16.0761 11.5167 16.0761H10.5016C5.2539 16.0761 0.999762 20.3072 0.999762 25.5265L0.999762 85.9226C0.999762 91.142 5.2539 95.373 10.5016 95.373Z" stroke="#1D1D1B" stroke-miterlimit="10"/>
<path d="M11.0945 81.2366C16.5358 81.2366 20.9468 76.8494 20.9468 71.4376C20.9468 66.0258 16.5358 61.6387 11.0945 61.6387C5.65321 61.6387 1.24219 66.0258 1.24219 71.4376C1.24219 76.8494 5.65321 81.2366 11.0945 81.2366Z" stroke="#1D1D1B" stroke-miterlimit="10"/>
<path d="M44.2825 16.0781H43.2675C38.0198 16.0781 33.7656 20.3092 33.7656 25.5285V85.9246C33.7656 91.144 38.0198 95.375 43.2675 95.375H44.2825C49.5303 95.375 53.7844 91.144 53.7844 85.9246V25.5285C53.7844 20.3092 49.5303 16.0781 44.2825 16.0781Z" stroke="#1D1D1B" stroke-miterlimit="10"/>
<path d="M43.6912 49.8147C49.1325 49.8147 53.5435 45.4275 53.5435 40.0157C53.5435 34.6039 49.1325 30.2168 43.6912 30.2168C38.2499 30.2168 33.8389 34.6039 33.8389 40.0157C33.8389 45.4275 38.2499 49.8147 43.6912 49.8147Z" stroke="#1D1D1B" stroke-miterlimit="10"/>
<path d="M111.314 171.001C122.61 171.001 131.768 161.843 131.768 150.546C131.768 139.25 122.61 130.092 111.314 130.092C100.017 130.092 90.8594 139.25 90.8594 150.546C90.8594 161.843 100.017 171.001 111.314 171.001Z" stroke="#1D1D1B" stroke-miterlimit="10"/>
<path d="M219.495 40.9997C230.792 40.9997 239.95 32.0455 239.95 20.9999C239.95 9.95425 230.792 1 219.495 1C208.199 1 199.041 9.95425 199.041 20.9999C199.041 32.0455 208.199 40.9997 219.495 40.9997Z" stroke="#1D1D1B" stroke-miterlimit="10" stroke-dasharray="6 6"/>
<path d="M219.949 152.818V32.8184" stroke="#1D1D1B" stroke-miterlimit="10"/>
<path d="M157.222 16.4551H77.2227V95.5455H157.222V16.4551Z" stroke="#1D1D1B" stroke-miterlimit="10"/>
<path d="M231.631 37.3633C234.06 43.1922 235.404 49.5855 235.404 56.2891C235.404 83.4947 213.33 105.545 186.099 105.545C175.25 105.545 165.365 101.884 157.223 95.9507" stroke="#1D1D1B" stroke-miterlimit="10"/>
<path d="M157.222 16.4541C165.207 10.7349 175.019 7.36328 185.622 7.36328C191.283 7.36328 196.714 8.32436 201.767 10.089" stroke="#1D1D1B" stroke-miterlimit="10"/>
<path d="M156.313 95.5469L216.313 152.819" stroke="#1D1D1B" stroke-miterlimit="10" stroke-dasharray="6 6"/>
<path d="M109.95 151.909L206.313 36.4551" stroke="#1D1D1B" stroke-miterlimit="10" stroke-dasharray="6 6"/>
<path d="M219.949 38.2715C219.949 102.089 177.866 155.1 109.95 151.757" stroke="#1D1D1B" stroke-miterlimit="10"/>
<path d="M113.587 151.001C68.8455 151.001 29.3985 130.688 10.8604 95.5469" stroke="#1D1D1B" stroke-miterlimit="10"/>
<path d="M225.403 156.453H214.494V167.362H225.403V156.453Z" fill="#1D1D1B"/>
<path d="M80.8577 13.7266H74.4941V20.0902H80.8577V13.7266Z" fill="#1D1D1B"/>
<path d="M110.859 154.634C112.867 154.634 114.495 153.006 114.495 150.998C114.495 148.989 112.867 147.361 110.859 147.361C108.851 147.361 107.223 148.989 107.223 150.998C107.223 153.006 108.851 154.634 110.859 154.634Z" fill="#1D1D1B"/>
<path d="M206.312 40.091C208.32 40.091 209.948 38.463 209.948 36.4547C209.948 34.4464 208.32 32.8184 206.312 32.8184C204.304 32.8184 202.676 34.4464 202.676 36.4547C202.676 38.463 204.304 40.091 206.312 40.091Z" fill="#1D1D1B"/>
<path d="M219.778 19.5946L209.047 13.8418L208.971 26.8216L219.778 32.8868V19.5946Z" stroke="#1D1D1B" stroke-miterlimit="10"/>
<path d="M219.773 19.7067L230.717 13.8418L230.794 26.8216L219.773 32.987" stroke="#1D1D1B" stroke-miterlimit="10"/>
<path d="M209.047 13.8424L219.564 7.54883L230.717 13.8424" stroke="#1D1D1B" stroke-miterlimit="10"/>
<path d="M117.223 67.3648C128.771 67.3648 138.132 58.0035 138.132 46.4558C138.132 34.9081 128.771 25.5469 117.223 25.5469C105.676 25.5469 96.3145 34.9081 96.3145 46.4558C96.3145 58.0035 105.676 67.3648 117.223 67.3648Z" stroke="#1D1D1B" stroke-miterlimit="10"/>
<path d="M80.8604 96.4568C84.3224 79.3352 99.2853 66.457 117.224 66.457C135.162 66.457 150.125 79.3352 153.587 96.4568" stroke="#1D1D1B" stroke-miterlimit="10"/>
</svg>
