<svg width="214" height="217" viewBox="0 0 214 217" fill="none" xmlns="http://www.w3.org/2000/svg">
<path d="M187.717 29.9629V104.79" stroke="black" stroke-miterlimit="10"/>
<path d="M192.306 30.0332L207.048 83.8741" stroke="black" stroke-miterlimit="10"/>
<path d="M187.276 40.0966C198.068 40.0966 206.816 31.3445 206.816 20.5483C206.816 9.75207 198.068 1 187.276 1C176.484 1 167.735 9.75207 167.735 20.5483C167.735 31.3445 176.484 40.0966 187.276 40.0966Z" stroke="black" stroke-miterlimit="10"/>
<path d="M17.149 216.001C24.6991 216.001 30.8196 209.881 30.8196 202.331C30.8196 194.781 24.6991 188.66 17.149 188.66C9.59902 188.66 3.47852 194.781 3.47852 202.331C3.47852 209.881 9.59902 216.001 17.149 216.001Z" stroke="black" stroke-miterlimit="10"/>
<path d="M36.5391 207.963H178.977" stroke="black" stroke-miterlimit="10"/>
<path d="M22.5029 20.4297H164.937" stroke="black" stroke-miterlimit="10"/>
<path d="M14.7607 186.09V28.7637" stroke="black" stroke-miterlimit="10"/>
<path d="M18.9492 25.0703L179.249 91.8817" stroke="black" stroke-miterlimit="10" stroke-dasharray="6 6"/>
<path d="M164.872 131.004V97.4961" stroke="black" stroke-miterlimit="10"/>
<path d="M204.432 137.09H170.346" stroke="black" stroke-miterlimit="10"/>
<path d="M210.099 97.4043V131.138" stroke="black" stroke-miterlimit="10"/>
<path d="M187.568 199.135V124.305" stroke="black" stroke-miterlimit="10"/>
<path d="M191.858 200.13L206.902 145.221" stroke="black" stroke-miterlimit="10"/>
<path d="M170.525 91.8398H204.521" stroke="black" stroke-miterlimit="10"/>
<path d="M212.578 88.8613H206.645V94.7975H212.578V88.8613Z" fill="black"/>
<path d="M190.063 111.16H184.129V117.096H190.063V111.16Z" fill="black"/>
<path d="M190.642 17.6562H184.708V23.5924H190.642V17.6562Z" fill="black"/>
<path d="M168.476 133.312H162.542V139.249H168.476V133.312Z" fill="black"/>
<path d="M66.7285 109.729H57.1582V119.303H66.7285V109.729Z" fill="black"/>
<path d="M110.644 109.438H101.073V119.012H110.644V109.438Z" fill="black"/>
<path d="M176.501 148.224C165.35 165.236 146.119 176.474 124.266 176.474C89.7948 176.474 61.8496 148.518 61.8496 114.033C61.8496 79.5481 89.7948 51.5918 124.266 51.5918C146.956 51.5918 166.821 63.7057 177.746 81.82" stroke="black" stroke-miterlimit="10" stroke-dasharray="6 6"/>
<path d="M169.741 148.372C163.241 152.607 155.478 155.071 147.141 155.071C124.243 155.071 105.68 136.5 105.68 113.593C105.68 90.6861 124.243 72.1152 147.141 72.1152C157.16 72.1152 166.346 75.6702 173.513 81.5875" stroke="black" stroke-miterlimit="10"/>
<path d="M181.749 147.933C168.207 182.905 134.256 207.707 94.5151 207.707C42.8687 207.707 1 165.821 1 114.154C1 62.4869 42.8687 20.5977 94.5151 20.5977C134.675 20.5977 168.92 45.9199 182.168 81.4767" stroke="black" stroke-miterlimit="10"/>
<path d="M14.0098 114.311H185.724" stroke="black" stroke-miterlimit="10"/>
<path d="M14.1143 24.8878C16.1185 24.8878 17.7432 23.2624 17.7432 21.2574C17.7432 19.2523 16.1185 17.627 14.1143 17.627C12.1101 17.627 10.4854 19.2523 10.4854 21.2574C10.4854 23.2624 12.1101 24.8878 14.1143 24.8878Z" fill="black"/>
<path d="M17.1496 204.815C18.5223 204.815 19.6352 203.702 19.6352 202.329C19.6352 200.957 18.5223 199.844 17.1496 199.844C15.7769 199.844 14.6641 200.957 14.6641 202.329C14.6641 203.702 15.7769 204.815 17.1496 204.815Z" fill="black"/>
<path d="M187.624 210.964C189.628 210.964 191.253 209.339 191.253 207.334C191.253 205.329 189.628 203.703 187.624 203.703C185.62 203.703 183.995 205.329 183.995 207.334C183.995 209.339 185.62 210.964 187.624 210.964Z" fill="black"/>
<path d="M165.354 96.253C167.358 96.253 168.982 94.6276 168.982 92.6226C168.982 90.6176 167.358 88.9922 165.354 88.9922C163.349 88.9922 161.725 90.6176 161.725 92.6226C161.725 94.6276 163.349 96.253 165.354 96.253Z" fill="black"/>
<path d="M209.876 140.036C211.88 140.036 213.505 138.411 213.505 136.406C213.505 134.401 211.88 132.775 209.876 132.775C207.872 132.775 206.247 134.401 206.247 136.406C206.247 138.411 207.872 140.036 209.876 140.036Z" fill="black"/>
<path d="M105.716 128.347C113.403 128.347 119.635 122.112 119.635 114.421C119.635 106.731 113.403 100.496 105.716 100.496C98.028 100.496 91.7959 106.731 91.7959 114.421C91.7959 122.112 98.028 128.347 105.716 128.347Z" stroke="black" stroke-miterlimit="10"/>
</svg>
