<svg width="251" height="58" viewBox="0 0 251 58" fill="none" xmlns="http://www.w3.org/2000/svg">
<g clip-path="url(#clip0_21_7106)">
<path d="M0 24.6464C0 22.5775 0.289567 20.6886 0.850602 19.0155C1.41164 17.3244 2.22604 15.9032 3.29382 14.7339C4.3616 13.5645 5.64655 12.665 7.16677 12.0174C8.687 11.3697 10.3882 11.0459 12.2523 11.0459C14.8584 11.0459 17.0663 11.6576 18.8942 12.8989C20.7221 14.1222 21.9528 15.8852 22.6043 18.17H23.0567V11.6935H28.5947V44.7233C28.5947 48.915 27.364 52.1712 24.8846 54.5099C22.4052 56.8486 18.9304 58 14.4602 58H5.66465V52.6929H14.4602C17.0663 52.6929 19.0933 52.0093 20.5592 50.6241C22.0071 49.2388 22.7491 47.2779 22.7491 44.7233V43.428L23.0025 36.9516H22.6043C21.9528 39.2363 20.7221 40.9994 18.8942 42.2227C17.0663 43.446 14.8584 44.0757 12.2523 44.0757C10.3882 44.0757 8.7051 43.7519 7.20297 43.1042C5.70084 42.4566 4.41589 41.5571 3.36621 40.3877C2.29844 39.2184 1.48403 37.7971 0.886798 36.1061C0.307665 34.415 0 32.544 0 30.4752L0 24.6464ZM5.99041 30.4752C5.99041 33.1557 6.73243 35.2425 8.23455 36.7537C9.73668 38.2649 11.7817 39.0205 14.3878 39.0205C16.9939 39.0205 19.039 38.2649 20.5049 36.7537C21.989 35.2425 22.7129 33.1557 22.7129 30.4752V24.6464C22.7129 21.9659 21.9709 19.879 20.5049 18.3679C19.0209 16.8567 16.9939 16.1011 14.3878 16.1011C11.7817 16.1011 9.73668 16.8567 8.23455 18.3679C6.73243 19.879 5.99041 21.9659 5.99041 24.6464V30.4752Z" fill="white"/>
<path d="M48.991 47.9615C44.5208 47.9615 41.0098 46.7562 38.4761 44.3275C35.9424 41.9169 34.6575 38.5887 34.6575 34.361V24.6464C34.6575 20.4187 35.9243 17.0906 38.4761 14.6799C41.0098 12.2692 44.5208 11.0459 48.991 11.0459C53.4612 11.0459 56.9722 12.2512 59.5059 14.6799C62.0396 17.0906 63.3246 20.4187 63.3246 24.6464V31.1948H40.5212V34.0372C40.5212 36.7537 41.2632 38.8945 42.7653 40.4417C44.2675 41.9888 46.3306 42.7804 48.991 42.7804C50.9456 42.7804 52.6468 42.4746 54.0765 41.8809C55.5063 41.2872 56.574 40.3877 57.2618 39.2184H63.1255C62.3835 41.9349 60.7547 44.0757 58.2029 45.6228C55.6692 47.17 52.5925 47.9615 48.991 47.9615ZM57.4608 26.3375V24.6464C57.4608 21.9659 56.7188 19.897 55.2529 18.4218C53.787 16.9466 51.6876 16.227 48.991 16.227C46.2944 16.227 44.2132 16.9646 42.7291 18.4218C41.2451 19.897 40.5212 21.9659 40.5212 24.6464V26.3375H57.4608Z" fill="white"/>
<path d="M83.1961 47.9615C78.7259 47.9615 75.2149 46.7562 72.6812 44.3275C70.1475 41.9169 68.8625 38.5887 68.8625 34.361V24.6464C68.8625 20.4187 70.1294 17.0906 72.6812 14.6799C75.2149 12.2692 78.7259 11.0459 83.1961 11.0459C87.6663 11.0459 91.1773 12.2512 93.711 14.6799C96.2447 17.0906 97.5296 20.4187 97.5296 24.6464V31.1948H74.7263V34.0372C74.7263 36.7537 75.4683 38.8945 76.9704 40.4417C78.4725 41.9888 80.5357 42.7804 83.1961 42.7804C85.1507 42.7804 86.8519 42.4746 88.2816 41.8809C89.7113 41.2872 90.7791 40.3877 91.4668 39.2184H97.3306C96.5886 41.9349 94.9597 44.0757 92.4079 45.6228C89.8742 47.17 86.7976 47.9615 83.1961 47.9615ZM91.6659 26.3375V24.6464C91.6659 21.9659 90.9239 19.897 89.458 18.4218C87.992 16.9466 85.8927 16.227 83.1961 16.227C80.4995 16.227 78.4182 16.9646 76.9342 18.4218C75.4502 19.897 74.7263 21.9659 74.7263 24.6464V26.3375H91.6659Z" fill="white"/>
<path d="M146.955 0V36.9156C146.955 38.5168 147.39 39.7581 148.258 40.6396C149.127 41.5211 150.321 41.9708 151.842 41.9708H162.465V47.2779H151.842C148.493 47.2779 145.869 46.3604 143.951 44.5254C142.033 42.6904 141.091 40.1538 141.091 36.9156V5.30707H129.237V0H146.955Z" fill="#C9FF56"/>
<path d="M164.944 36.9515C164.944 35.2605 165.234 33.7493 165.831 32.382C166.428 31.0148 167.261 29.8634 168.365 28.91C169.469 27.9565 170.808 27.2189 172.365 26.7152C173.921 26.2115 175.695 25.9416 177.649 25.9416H188.327V23.0272C188.327 20.8324 187.603 19.1054 186.137 17.882C184.689 16.6587 182.59 16.0291 179.857 16.0291C177.866 16.0291 176.147 16.3889 174.735 17.1265C173.324 17.8641 172.383 18.8715 171.894 20.1668H166.03C166.646 17.3603 168.184 15.1296 170.681 13.4925C173.179 11.8554 176.274 11.0278 179.966 11.0278C184.4 11.0278 187.874 12.0533 190.39 14.1041C192.906 16.155 194.173 19.0154 194.173 22.6854V47.2958H188.834V40.4956H188.309C187.748 42.7803 186.427 44.5973 184.327 45.9286C182.246 47.2598 179.694 47.9435 176.708 47.9435C173.107 47.9435 170.229 46.954 168.112 44.9571C165.976 42.9782 164.926 40.2977 164.926 36.9335L164.944 36.9515ZM178.047 43.1761C179.531 43.1761 180.889 42.9782 182.155 42.6004C183.422 42.2046 184.508 41.6649 185.413 40.9453C186.318 40.2257 187.042 39.3982 187.567 38.4447C188.092 37.4912 188.345 36.4658 188.345 35.3324V30.4751H177.794C175.622 30.4751 173.921 31.0328 172.672 32.1662C171.442 33.2816 170.808 34.8467 170.808 36.8256C170.808 38.8045 171.442 40.3696 172.69 41.485C173.957 42.6004 175.731 43.1761 178.029 43.1761H178.047Z" fill="#C9FF56"/>
<path d="M200.778 0.0361328H206.642V11.0461C206.642 11.6577 206.642 12.3593 206.606 13.1509C206.588 13.9425 206.552 14.698 206.515 15.3817C206.425 16.2092 206.371 17.0188 206.316 17.8463H206.841C207.402 15.6875 208.56 14.0144 210.298 12.8271C212.035 11.6397 214.225 11.0461 216.885 11.0461C218.713 11.0461 220.36 11.3699 221.844 12.0175C223.328 12.6652 224.577 13.5827 225.627 14.77C226.676 15.9573 227.491 17.4145 228.07 19.1416C228.649 20.8686 228.957 22.8116 228.957 24.9704V34.0374C228.957 36.1962 228.667 38.1391 228.07 39.8662C227.491 41.5932 226.676 43.0504 225.627 44.2377C224.577 45.4251 223.328 46.3426 221.844 46.9902C220.36 47.6379 218.713 47.9617 216.885 47.9617C214.243 47.9617 212.035 47.368 210.298 46.1807C208.56 44.9933 207.402 43.3202 206.841 41.1614H206.316V47.314H200.778V0.0361328ZM206.642 34.0374C206.642 36.7539 207.366 38.9127 208.832 40.5138C210.28 42.1149 212.234 42.9065 214.659 42.9065C217.266 42.9065 219.311 42.1149 220.813 40.5138C222.315 38.9127 223.057 36.7539 223.057 34.0374V24.9704C223.057 22.1639 222.315 19.9871 220.849 18.422C219.365 16.8748 217.302 16.0833 214.659 16.0833C212.234 16.0833 210.28 16.8748 208.832 18.476C207.384 20.0771 206.642 22.2359 206.642 24.9524V34.0194V34.0374Z" fill="#C9FF56"/>
<path d="M119.03 28.8922L131.735 11.6577H125.02L114.071 26.6794C112.985 28.1726 112.985 30.1695 114.071 31.6627L114.126 31.7526L125.075 47.2961H131.916L119.012 28.9102L119.03 28.8922Z" fill="white"/>
<path d="M245.245 30.0435L232.54 47.278H239.254L250.204 32.2563C251.29 30.7631 251.29 28.7662 250.204 27.273L250.149 27.1831L239.2 11.6396H232.359L245.263 30.0255L245.245 30.0435Z" fill="white"/>
<path d="M109.782 31.7345V26.5534V0H103.918V47.2779H109.782V31.7345Z" fill="white"/>
</g>
<defs>
<clipPath id="clip0_21_7106">
<rect width="251" height="58" fill="white"/>
</clipPath>
</defs>
</svg>
