<svg width="327" height="49" viewBox="0 0 327 49" fill="none" xmlns="http://www.w3.org/2000/svg">
<g clip-path="url(#clip0_424_1353)">
<path d="M205.103 48.3341L211.25 42.1838L170.152 1.06592L164.005 7.21619L205.103 48.3341Z" fill="white"/>
<path d="M211.568 48.7363H202.813V9.02547H206.622C209.352 9.02547 211.568 11.243 211.568 13.9739V48.7363Z" fill="white"/>
<path d="M163.18 9.02637V0.266986L198.459 0.266986C200.86 0.266986 202.809 2.21761 202.809 4.61998V9.02637L163.18 9.02637Z" fill="white"/>
<path d="M163.18 0.262695H171.935V39.9695H168.126C165.396 39.9695 163.18 37.7519 163.18 35.021V0.262695Z" fill="white"/>
<path d="M211.564 39.9739V48.7333H176.286C173.884 48.7333 171.935 46.7826 171.935 44.3803V39.9739H211.564Z" fill="white"/>
<path d="M50.9004 7.46197L57.2215 0.415039L94.2079 36.549C90.6779 40.7296 84.5826 41.2429 81.0075 37.6537L50.9004 7.46197Z" fill="white"/>
<path d="M93.0495 0H96.8586V48.8891H88.1035V4.94846C88.1035 2.21757 90.32 0 93.0495 0Z" fill="white"/>
<path d="M48.4746 0.415039H57.2297V49.0003H53.4206C50.6911 49.0003 48.4746 46.7827 48.4746 44.0518V0.415039Z" fill="white"/>
<path d="M114.551 8.99805V4.59166C114.551 2.18929 116.5 0.238666 118.902 0.238666L154.181 0.238666V8.99805L114.551 8.99805Z" fill="white"/>
<path d="M110.837 8.99316H114.552V39.9939H110.743C108.013 39.9939 105.797 37.7764 105.797 35.0455V14.0361C105.797 11.2518 108.054 8.99316 110.837 8.99316Z" fill="white"/>
<path d="M154.182 39.998V48.7574H118.903C116.502 48.7574 114.552 46.8068 114.552 44.4044V39.998H154.182Z" fill="white"/>
<path d="M39.6289 0.242188V4.64857C39.6289 7.05094 37.6792 9.00157 35.278 9.00157L-0.000866553 9.00157V0.242188L39.6289 0.242188Z" fill="white"/>
<path d="M39.6289 39.998V48.7574H4.34999C1.94881 48.7574 -0.000866298 46.8068 -0.000866298 44.4044V39.998H39.6289Z" fill="white"/>
<path d="M20.4779 8.91504H24.1926V39.9158H15.4375V13.9621C15.4375 11.1778 17.695 8.91915 20.4779 8.91915V8.91504Z" fill="white"/>
<path d="M220.57 0.262695H229.325V39.9695H225.516C222.787 39.9695 220.57 37.7519 220.57 35.021V0.262695Z" fill="white"/>
<path d="M268.955 39.9736V48.733H233.676C231.275 48.733 229.325 46.7824 229.325 44.38V39.9736H268.955Z" fill="white"/>
<path d="M268.955 45.1108H260.118V19.5801C260.118 13.8144 255.467 9.12057 249.75 9.12057H224.371V0.279053H249.75C260.34 0.279053 268.955 8.93577 268.955 19.5801V45.1108Z" fill="white"/>
<path d="M321.523 20.2666H317.714V0.27976H326.469V15.3181C326.469 18.049 324.252 20.2666 321.523 20.2666Z" fill="white"/>
<path d="M285.205 28.8203V20.0609H317.586V23.8719C317.586 26.6028 315.37 28.8203 312.64 28.8203H285.205Z" fill="white"/>
<path d="M326.486 0.279297V9.03869L286.799 9.03869V5.22777C286.799 2.49688 289.016 0.279297 291.745 0.279297L326.486 0.279297Z" fill="white"/>
<path d="M297.158 39.8792C291.441 39.8792 286.79 35.1854 286.79 29.4197V9.02222H283.096C280.256 9.02222 277.953 11.326 277.953 14.1678V29.4197C277.953 40.064 286.569 48.7208 297.158 48.7208H322.537V39.8792H297.158Z" fill="white"/>
</g>
<defs>
<clipPath id="clip0_424_1353">
<rect width="327" height="49" fill="white"/>
</clipPath>
</defs>
</svg>
