<svg width="36" height="36" viewBox="0 0 36 36" fill="none" xmlns="http://www.w3.org/2000/svg">
<path fill-rule="evenodd" clip-rule="evenodd" d="M18.2876 35.4307C27.9871 35.4307 35.8501 27.5677 35.8501 17.8682C35.8501 8.16866 27.9871 0.305664 18.2876 0.305664C8.5881 0.305664 0.725098 8.16866 0.725098 17.8682C0.725098 27.5677 8.5881 35.4307 18.2876 35.4307ZM15.0688 25.9178C15.496 25.9178 15.6912 25.7278 15.9271 25.4981L15.947 25.4788L18.0561 23.4279L22.4447 26.6703C23.2524 27.116 23.8353 26.8852 24.0365 25.9205L26.9175 12.3442C27.2124 11.1617 26.4667 10.6253 25.694 10.9761L8.77697 17.4992C7.62222 17.9624 7.62895 18.6066 8.56648 18.8937L12.9078 20.2487L22.9584 13.9079C23.4328 13.6202 23.8683 13.7749 23.5109 14.0921L15.3679 21.4405L15.3677 21.4404L15.3677 21.4407L15.3671 21.4412L15.3676 21.4417L15.0688 25.9178Z" fill="white"/>
</svg>
