<svg width="36" height="36" viewBox="0 0 36 36" fill="none" xmlns="http://www.w3.org/2000/svg">
<path fill-rule="evenodd" clip-rule="evenodd" d="M18.1626 0.305664C27.8621 0.305664 35.7251 8.16866 35.7251 17.8682C35.7251 27.5677 27.8621 35.4307 18.1626 35.4307C8.4631 35.4307 0.600098 27.5677 0.600098 17.8682C0.600098 8.16866 8.4631 0.305664 18.1626 0.305664ZM19.2145 7.4599C20.4086 7.60894 21.3737 7.89662 22.4325 8.41308C23.4739 8.92263 24.1404 9.40442 25.0221 10.2813C25.8484 11.1098 26.3066 11.7372 26.7926 12.7111C27.4695 14.0699 27.8549 15.6851 27.9208 17.4632C27.9451 18.0698 27.9278 18.205 27.7889 18.3783C27.5251 18.7146 26.9453 18.659 26.7475 18.2813C26.6849 18.1565 26.6676 18.0491 26.6468 17.5638C26.612 16.8185 26.56 16.3367 26.4558 15.7613C26.0462 13.5049 24.9631 11.7025 23.2344 10.4096C21.7937 9.32817 20.3045 8.80128 18.3536 8.68691C17.694 8.64879 17.5795 8.62455 17.4302 8.51015C17.1524 8.29177 17.1386 7.7788 17.4058 7.53963C17.569 7.39056 17.6836 7.36978 18.2494 7.38711C18.5445 7.3975 18.9784 7.43217 19.2145 7.4599ZM11.2799 7.83359C11.4014 7.87517 11.5888 7.97221 11.6965 8.04154C12.356 8.4783 14.1924 10.8249 14.793 11.9964C15.1366 12.6654 15.2512 13.1611 15.1436 13.5285C15.0324 13.9236 14.8485 14.1316 14.0258 14.7937C13.696 15.0605 13.387 15.3344 13.3384 15.4072C13.2135 15.5874 13.1128 15.9409 13.1128 16.1905C13.1163 16.7694 13.4912 17.8196 13.9841 18.6272C14.3659 19.2546 15.0498 20.0587 15.7268 20.6757C16.5217 21.4037 17.2229 21.8993 18.0144 22.291C19.0315 22.797 19.6529 22.9253 20.1077 22.7139C20.2223 22.6618 20.3437 22.5925 20.382 22.5614C20.4166 22.5301 20.684 22.2043 20.9756 21.8439C21.5379 21.1367 21.6663 21.0224 22.0517 20.8906C22.5412 20.7243 23.0411 20.7693 23.5444 21.0258C23.9263 21.2234 24.7594 21.7399 25.2975 22.1142C26.0056 22.6098 27.5191 23.8438 27.724 24.0899C28.085 24.5336 28.1475 25.102 27.9045 25.7294C27.6476 26.3914 26.6478 27.6323 25.9501 28.1627C25.3183 28.641 24.8705 28.8247 24.2803 28.8524C23.7944 28.8767 23.593 28.8351 22.9716 28.5786C18.0978 26.5717 14.2063 23.5769 11.1167 19.4626C9.50252 17.3135 8.27361 15.0848 7.4335 12.7729C6.94406 11.4246 6.91978 10.8388 7.32242 10.149C7.49602 9.85785 8.23543 9.13687 8.77349 8.73481C9.66914 8.06929 10.0822 7.82318 10.412 7.75388C10.6376 7.70534 11.0299 7.74346 11.2799 7.83359ZM19.4531 9.97434C21.5603 10.2828 23.1919 11.2603 24.261 12.8478C24.8616 13.7421 25.2365 14.7923 25.365 15.9188C25.4101 16.3313 25.4101 17.0834 25.3615 17.2082C25.3163 17.3261 25.1705 17.4855 25.0456 17.5513C24.9102 17.6207 24.6221 17.6138 24.4624 17.5306C24.1951 17.3954 24.1152 17.1805 24.1152 16.5982C24.1152 15.7004 23.8826 14.7542 23.48 14.0193C23.0218 13.1805 22.3553 12.4873 21.543 12.0055C20.8452 11.5895 19.8142 11.2811 18.8734 11.2048C18.5332 11.1771 18.3457 11.1078 18.2173 10.9587C18.0195 10.7334 17.9986 10.4284 18.1652 10.1754C18.3457 9.89461 18.6234 9.84954 19.4531 9.97434ZM20.1935 12.5886C20.8774 12.7342 21.4016 12.9942 21.8494 13.4136C22.4256 13.9578 22.7416 14.6163 22.8804 15.5626C22.9741 16.1796 22.936 16.4222 22.7172 16.6233C22.5124 16.8104 22.1341 16.8174 21.9049 16.6406C21.7383 16.5158 21.6862 16.3841 21.6481 16.0271C21.603 15.5522 21.5196 15.2195 21.3773 14.911C21.0718 14.2559 20.5338 13.9162 19.6243 13.8053C19.1972 13.7533 19.0688 13.7047 18.93 13.5419C18.6765 13.2403 18.7737 12.7516 19.1243 12.5713C19.2563 12.5055 19.3118 12.4985 19.6034 12.5158C19.7839 12.5262 20.0512 12.5574 20.1935 12.5886Z" fill="white"/>
</svg>
