<svg width="737" height="637" viewBox="0 0 737 637" fill="none" xmlns="http://www.w3.org/2000/svg">
<g clip-path="url(#clip0_24_10345)">
<rect width="737" height="637" rx="18" fill="#DFF7A7"/>
<path d="M197.255 506.371L52.8867 580.313" stroke="black" stroke-miterlimit="10"/>
<path d="M185.148 497.353L40.7793 571.295" stroke="black" stroke-miterlimit="10"/>
<path d="M173.043 488.334L28.668 562.276" stroke="black" stroke-miterlimit="10"/>
<path d="M160.929 479.316L16.5605 553.258" stroke="black" stroke-miterlimit="10"/>
<path d="M148.824 470.298L4.45508 544.24" stroke="black" stroke-miterlimit="10"/>
<path d="M136.716 461.279L-7.6582 535.222" stroke="black" stroke-miterlimit="10"/>
<path d="M124.605 452.261L-19.7637 526.204" stroke="black" stroke-miterlimit="10"/>
<path d="M112.5 443.237L-31.8691 517.179" stroke="black" stroke-miterlimit="10"/>
<path d="M100.394 434.219L-43.9805 508.161" stroke="black" stroke-miterlimit="10"/>
<path d="M88.2828 425.201L-56.0859 499.143" stroke="black" stroke-miterlimit="10"/>
<path d="M76.1753 416.182L-68.1934 490.124" stroke="black" stroke-miterlimit="10"/>
<path d="M64.07 407.164L-80.3047 481.106" stroke="black" stroke-miterlimit="10"/>
<path d="M197.255 621.59V506.371L64.0703 407.164" stroke="black" stroke-miterlimit="10"/>
<path d="M181.218 629.805V514.586L48.0273 415.38" stroke="black" stroke-miterlimit="10"/>
<path d="M165.173 638.021V522.802L31.9824 423.595" stroke="black" stroke-miterlimit="10"/>
<path d="M149.136 646.237V531.018L15.9453 431.812" stroke="black" stroke-miterlimit="10"/>
<path d="M133.093 654.453V539.234L-0.0976562 440.027" stroke="black" stroke-miterlimit="10"/>
<path d="M117.048 662.669V547.45L-16.1367 448.243" stroke="black" stroke-miterlimit="10"/>
<path d="M101.011 670.884V555.665L-32.1797 456.458" stroke="black" stroke-miterlimit="10"/>
<path d="M84.9656 679.1V563.881L-48.2246 464.675" stroke="black" stroke-miterlimit="10"/>
<path d="M68.9285 687.316V572.097L-64.2617 472.891" stroke="black" stroke-miterlimit="10"/>
<path d="M52.8855 695.532V580.313L-80.3047 481.106" stroke="black" stroke-miterlimit="10"/>
<path d="M52.8867 580.313L197.255 506.371" stroke="black" stroke-miterlimit="10"/>
<path d="M52.8867 599.517L197.255 525.575" stroke="black" stroke-miterlimit="10"/>
<path d="M52.8867 618.721L197.255 544.779" stroke="black" stroke-miterlimit="10"/>
<path d="M52.8867 637.925L197.255 563.977" stroke="black" stroke-miterlimit="10"/>
<path d="M52.8867 657.123L197.255 583.181" stroke="black" stroke-miterlimit="10"/>
<path d="M52.8867 676.328L197.255 602.385" stroke="black" stroke-miterlimit="10"/>
<path d="M76.5667 379.298L-13.4355 305.571" stroke="black" stroke-miterlimit="10"/>
<path d="M172.82 -67.3599L274.11 8.07609" stroke="black" stroke-miterlimit="10"/>
<path d="M156.455 -58.98L257.744 16.4643" stroke="black" stroke-miterlimit="10"/>
<path d="M140.088 -50.5996L241.377 24.8447" stroke="black" stroke-miterlimit="10"/>
<path d="M123.723 -42.2119L225.012 33.224" stroke="black" stroke-miterlimit="10"/>
<path d="M107.355 -33.832L208.645 41.6122" stroke="black" stroke-miterlimit="10"/>
<path d="M90.9902 -25.4521L192.28 49.9921" stroke="black" stroke-miterlimit="10"/>
<path d="M74.6211 -17.0635L175.91 58.3725" stroke="black" stroke-miterlimit="10"/>
<path d="M58.2559 -8.68359L159.545 66.7524" stroke="black" stroke-miterlimit="10"/>
<path d="M72.7285 2.09025L220.027 -73.3457" stroke="black" stroke-miterlimit="10"/>
<path d="M87.2012 12.873L234.499 -62.5713" stroke="black" stroke-miterlimit="10"/>
<path d="M101.664 23.6469L248.962 -51.7974" stroke="black" stroke-miterlimit="10"/>
<path d="M116.137 34.4213L263.435 -41.0146" stroke="black" stroke-miterlimit="10"/>
<path d="M130.602 45.2035L277.9 -30.2407" stroke="black" stroke-miterlimit="10"/>
<path d="M145.074 55.9775L292.372 -19.4668" stroke="black" stroke-miterlimit="10"/>
<path d="M159.545 66.7524L306.843 -8.68359" stroke="black" stroke-miterlimit="10"/>
<path d="M337.08 605.154L410.033 659.497" stroke="black" stroke-miterlimit="10"/>
<path d="M325.293 611.196L398.246 665.533" stroke="black" stroke-miterlimit="10"/>
<path d="M313.502 617.232L386.455 671.575" stroke="black" stroke-miterlimit="10"/>
<path d="M301.715 623.269L374.668 677.612" stroke="black" stroke-miterlimit="10"/>
<path d="M289.924 629.311L362.877 683.647" stroke="black" stroke-miterlimit="10"/>
<path d="M278.137 635.347L351.09 689.69" stroke="black" stroke-miterlimit="10"/>
<path d="M230.98 659.497L337.08 605.154" stroke="black" stroke-miterlimit="10"/>
<path d="M241.4 667.258L347.5 612.921" stroke="black" stroke-miterlimit="10"/>
<path d="M251.822 675.025L357.922 620.682" stroke="black" stroke-miterlimit="10"/>
<path d="M262.242 682.786L368.342 628.449" stroke="black" stroke-miterlimit="10"/>
<path d="M272.666 690.552L378.766 636.209" stroke="black" stroke-miterlimit="10"/>
<path d="M104.63 221.366C110.969 218.842 111.461 205.115 105.731 190.707C100.002 176.298 90.2184 166.664 83.8804 169.188C77.5423 171.712 77.0494 185.438 82.7793 199.847C88.5093 214.255 98.2924 223.889 104.63 221.366Z" stroke="black" stroke-miterlimit="10"/>
<path d="M252.752 553.516C259.09 550.992 259.583 537.266 253.853 522.857C248.123 508.449 238.34 498.814 232.001 501.338C225.663 503.862 225.17 517.589 230.9 531.997C236.63 546.405 246.414 556.04 252.752 553.516Z" stroke="black" stroke-miterlimit="10"/>
<path d="M294.264 396.364C300.781 396.364 306.065 391.077 306.065 384.555C306.065 378.033 300.781 372.746 294.264 372.746C287.746 372.746 282.463 378.033 282.463 384.555C282.463 391.077 287.746 396.364 294.264 396.364Z" stroke="black" stroke-miterlimit="10"/>
<path d="M101.633 201.22L281.53 335.039" stroke="black" stroke-miterlimit="10"/>
<path d="M94.2656 204.43C94.2656 204.43 111.458 381.016 236.372 522.182" stroke="black" stroke-miterlimit="10"/>
<path d="M182.562 392.124L279.937 343.272" stroke="black" stroke-miterlimit="10"/>
<path d="M432.84 27.6041C427.107 13.1965 417.323 3.56152 410.992 6.08854C410.693 6.2083 410.412 6.35801 410.142 6.52568L151.793 139.23C145.455 141.757 144.965 155.482 150.697 169.89C156.43 184.297 166.214 193.932 172.546 191.405C172.845 191.286 173.126 191.136 173.396 190.968L431.745 58.2577C438.082 55.7307 438.573 42.0058 432.84 27.5982V27.6041Z" stroke="black" stroke-miterlimit="10"/>
<path d="M415.367 6.08252C415.068 6.20228 414.787 6.35199 414.518 6.51966L156.174 139.23" stroke="black" stroke-miterlimit="10"/>
<path d="M435.797 53.6108C435.498 53.7306 435.216 53.8803 434.947 54.048L176.604 186.759" stroke="black" stroke-miterlimit="10"/>
<path d="M436.594 45.3828C436.295 45.5026 436.013 45.6523 435.744 45.82L177.4 178.525" stroke="black" stroke-miterlimit="10"/>
<path d="M435 33.9639C434.701 34.0836 434.42 34.2333 434.15 34.401L175.807 167.106" stroke="black" stroke-miterlimit="10"/>
<path d="M422.529 11.394C422.23 11.5138 421.949 11.6635 421.68 11.8312L163.336 144.542" stroke="black" stroke-miterlimit="10"/>
<path d="M430.225 22.0171C429.925 22.1369 429.644 22.2866 429.375 22.4542L171.031 155.159" stroke="black" stroke-miterlimit="10"/>
<path d="M151.793 139.23C158.13 136.703 167.914 146.338 173.641 160.746C179.374 175.153 178.883 188.878 172.546 191.405" stroke="black" stroke-miterlimit="10"/>
<path d="M163.6 133.158C169.937 130.631 179.721 140.266 185.448 154.674C191.175 169.082 190.69 182.807 184.353 185.334" stroke="black" stroke-miterlimit="10"/>
<path d="M175.406 127.092C181.744 124.565 191.528 134.2 197.255 148.608C202.987 163.015 202.497 176.74 196.159 179.267" stroke="black" stroke-miterlimit="10"/>
<path d="M187.213 121.02C193.55 118.493 203.334 128.128 209.061 142.536C214.794 156.943 214.303 170.668 207.966 173.195" stroke="black" stroke-miterlimit="10"/>
<path d="M199.021 114.954C205.359 112.427 215.143 122.062 220.87 136.47C226.603 150.877 226.112 164.602 219.775 167.129" stroke="black" stroke-miterlimit="10"/>
<path d="M210.826 108.888C217.163 106.361 226.948 115.996 232.674 130.403C238.407 144.811 237.917 158.536 231.579 161.063" stroke="black" stroke-miterlimit="10"/>
<path d="M222.635 102.816C228.972 100.289 238.756 109.924 244.483 124.332C250.216 138.739 249.725 152.464 243.388 154.991" stroke="black" stroke-miterlimit="10"/>
<path d="M234.441 96.7502C240.779 94.2231 250.563 103.858 256.29 118.266C262.023 132.673 261.532 146.398 255.195 148.925" stroke="black" stroke-miterlimit="10"/>
<path d="M246.254 90.6779C252.591 88.1509 262.375 97.7859 268.102 112.194C273.835 126.601 273.344 140.326 267.007 142.853" stroke="black" stroke-miterlimit="10"/>
<path d="M258.061 84.612C264.398 82.085 274.182 91.72 279.909 106.128C285.642 120.535 285.151 134.26 278.814 136.787" stroke="black" stroke-miterlimit="10"/>
<path d="M269.867 78.5402C276.204 76.0132 285.989 85.6482 291.715 100.056C297.448 114.463 296.958 128.188 290.62 130.715" stroke="black" stroke-miterlimit="10"/>
<path d="M281.674 72.4738C288.011 69.9468 297.795 79.5818 303.522 93.9894C309.255 108.397 308.764 122.122 302.427 124.649" stroke="black" stroke-miterlimit="10"/>
<path d="M293.48 66.4015C299.818 63.8745 309.602 73.5095 315.329 87.9171C321.062 102.325 320.571 116.05 314.234 118.577" stroke="black" stroke-miterlimit="10"/>
<path d="M305.287 60.3361C311.624 57.8091 321.409 67.4441 327.135 81.8517C332.868 96.2593 332.378 109.984 326.04 112.511" stroke="black" stroke-miterlimit="10"/>
<path d="M317.094 54.2638C323.431 51.7368 333.215 61.3718 338.942 75.7794C344.675 90.1871 344.184 103.912 337.847 106.439" stroke="black" stroke-miterlimit="10"/>
<path d="M328.902 48.1974C335.24 45.6704 345.024 55.3054 350.751 69.713C356.483 84.1206 355.993 97.8456 349.656 100.373" stroke="black" stroke-miterlimit="10"/>
<path d="M340.707 42.1315C347.044 39.6045 356.828 49.2395 362.555 63.6471C368.288 78.0547 367.797 91.7797 361.46 94.3067" stroke="black" stroke-miterlimit="10"/>
<path d="M352.516 36.0597C358.853 33.5327 368.637 43.1677 374.364 57.5753C380.097 71.9829 379.606 85.7079 373.269 88.2349" stroke="black" stroke-miterlimit="10"/>
<path d="M364.322 29.9933C370.66 27.4663 380.444 37.1013 386.171 51.5089C391.903 65.9165 391.413 79.6415 385.075 82.1685" stroke="black" stroke-miterlimit="10"/>
<path d="M376.127 23.9211C382.464 21.394 392.248 31.0291 397.975 45.4367C403.708 59.8443 403.217 73.5692 396.88 76.0963" stroke="black" stroke-miterlimit="10"/>
<path d="M387.936 17.8556C394.273 15.3286 404.057 24.9636 409.784 39.3712C415.517 53.7788 415.026 67.5038 408.689 70.0308" stroke="black" stroke-miterlimit="10"/>
<path d="M399.748 11.7834C406.085 9.25634 415.869 18.8914 421.596 33.299C427.329 47.7066 426.838 61.4315 420.501 63.9586" stroke="black" stroke-miterlimit="10"/>
<path d="M658.621 246.033C709.603 246.033 750.931 204.677 750.931 153.661C750.931 102.645 709.603 61.2886 658.621 61.2886C607.639 61.2886 566.311 102.645 566.311 153.661C566.311 204.677 607.639 246.033 658.621 246.033Z" stroke="black" stroke-miterlimit="10"/>
<path d="M659.062 108.711C678.352 108.711 693.99 99.0232 693.99 87.0727C693.99 75.1223 678.352 65.4346 659.062 65.4346C639.772 65.4346 624.135 75.1223 624.135 87.0727C624.135 99.0232 639.772 108.711 659.062 108.711Z" stroke="black" stroke-miterlimit="10"/>
<path d="M658.445 144.877C694.397 144.877 723.541 126.165 723.541 103.083C723.541 80.0006 694.397 61.2886 658.445 61.2886C622.494 61.2886 593.35 80.0006 593.35 103.083C593.35 126.165 622.494 144.877 658.445 144.877Z" stroke="black" stroke-miterlimit="10"/>
<path d="M579.795 105.681C576.226 111.683 574.279 118.194 574.279 125.004C574.279 154.951 612.11 179.229 658.769 179.229C705.428 179.229 743.259 154.951 743.259 125.004C743.259 118.652 741.561 112.558 738.433 106.896" stroke="black" stroke-miterlimit="10"/>
<path d="M566.318 152.254C566.318 169.863 592.252 211.998 659.785 211.998C733.143 211.998 750.914 162.553 750.914 152.254" stroke="black" stroke-miterlimit="10"/>
<path d="M584.264 208.41C594.156 222.439 626.762 235.218 664.111 235.218C709.139 235.218 734.357 207.111 737.244 202.074" stroke="black" stroke-miterlimit="10"/>
<path d="M661.316 61.3301C661.316 61.3301 659.22 82.9683 656.59 115.704C653.837 149.964 650.617 219.616 651.748 245.775" stroke="black" stroke-miterlimit="10"/>
<path d="M626.762 240.372C617.61 231.788 611.703 195.689 627.145 147.85C641.064 104.74 659.551 81.0869 659.551 81.0869" stroke="black" stroke-miterlimit="10"/>
<path d="M597.595 223.005C585.772 207.169 581.387 173.026 613.228 126.095C633.404 96.3558 658.98 81.6445 658.98 81.6445" stroke="black" stroke-miterlimit="10"/>
<path d="M570.239 180.943C568.525 160.912 577.985 128.617 615.516 101.684C634.386 88.1381 659.554 81.2695 659.554 81.2695" stroke="black" stroke-miterlimit="10"/>
<path d="M570.811 124.721C574.671 115.996 589.531 95.4819 627.57 85.3746C640.208 82.0194 659.028 81.0786 659.028 81.0786" stroke="black" stroke-miterlimit="10"/>
<path d="M593.543 87.9471C596.971 84.2256 623.137 72.2118 659.313 81.0785" stroke="black" stroke-miterlimit="10"/>
<path d="M617.994 70.3552C642.73 67.4912 659.311 81.2284 659.311 81.2284" stroke="black" stroke-miterlimit="10"/>
<path d="M637.58 63.4863C642.439 62.0543 653.305 70.3549 659.171 81.0865" stroke="black" stroke-miterlimit="10"/>
<path d="M676.184 244.326C681.476 241.462 688.34 230.165 687.483 198.544C686.626 166.924 678.189 114.131 659.17 80.7954" stroke="black" stroke-miterlimit="10"/>
<path d="M707.068 232.304C711.786 228.008 720.655 209.126 717.219 180.944C713.791 152.761 700.346 117.702 659.17 81.2197" stroke="black" stroke-miterlimit="10"/>
<path d="M731.946 210.275C738.094 200.542 744.892 174.266 730.806 143.029C711.503 100.252 659.32 81.2197 659.32 81.2197" stroke="black" stroke-miterlimit="10"/>
<path d="M750.816 158.623C748.81 143.886 751.814 125.936 706.636 96.389C688.482 84.5167 659.029 81.3696 659.029 81.3696" stroke="black" stroke-miterlimit="10"/>
<path d="M727.943 93.1004C719.365 87.2309 699.63 78.0811 659.744 81.3697" stroke="black" stroke-miterlimit="10"/>
<path d="M706.493 74.5011C697.199 71.2125 680.326 71.071 660.025 80.9368" stroke="black" stroke-miterlimit="10"/>
<path d="M683.049 64.3438C683.049 64.3438 670.752 65.9173 659.604 80.9366" stroke="black" stroke-miterlimit="10"/>
<path d="M598.855 458.043C580.681 424.125 551.352 404.466 533.346 414.125L533.376 414.053L423.321 469.576L423.344 469.618C423.344 469.618 423.309 469.636 423.291 469.648C405.284 479.313 405.41 514.637 423.584 548.554C441.758 582.471 471.086 602.131 489.093 592.472L597.455 535.704C615.461 526.039 617.029 491.96 598.855 458.043Z" stroke="black" stroke-miterlimit="10"/>
<path d="M500.658 586.298C518.886 576.519 520.466 542.021 502.076 507.69C483.687 473.36 453.999 453.461 435.771 463.24L435.801 463.168" stroke="black" stroke-miterlimit="10"/>
<path d="M512.723 580.094C530.933 570.321 532.513 535.859 514.142 501.565C495.764 467.27 466.106 447.39 447.896 457.156L447.926 457.084" stroke="black" stroke-miterlimit="10"/>
<path d="M524.691 573.765C542.865 564.016 544.445 529.614 526.104 495.379C507.762 461.151 478.158 441.306 459.984 451.055L460.014 450.983" stroke="black" stroke-miterlimit="10"/>
<path d="M536.684 567.501C554.834 557.764 556.407 523.41 538.096 489.229C519.784 455.049 490.222 435.234 472.072 444.97L472.102 444.899" stroke="black" stroke-miterlimit="10"/>
<path d="M548.682 561.238C566.808 551.513 568.376 517.212 550.094 483.086C531.806 448.953 502.292 429.168 484.166 438.893L484.196 438.821" stroke="black" stroke-miterlimit="10"/>
<path d="M560.674 554.974C578.776 545.261 580.344 511.008 562.08 476.923C543.817 442.839 514.338 423.078 496.242 432.79L496.272 432.719" stroke="black" stroke-miterlimit="10"/>
<path d="M572.674 548.704C590.746 539.009 592.314 504.805 574.08 470.768C555.846 436.731 526.41 417 508.338 426.694L508.368 426.623" stroke="black" stroke-miterlimit="10"/>
<path d="M584.664 542.44C602.713 532.758 604.28 498.601 586.071 464.612C567.861 430.623 538.466 410.922 520.418 420.604L520.448 420.533" stroke="black" stroke-miterlimit="10"/>
<path d="M489.113 592.436C507.122 582.773 506.99 547.447 488.817 513.532C470.644 479.617 441.313 459.957 423.304 469.62C405.295 479.283 405.427 514.61 423.6 548.524C441.773 582.439 471.104 602.099 489.113 592.436Z" stroke="black" stroke-miterlimit="10"/>
<path d="M436.084 467.45L546.133 411.928" stroke="black" stroke-miterlimit="10"/>
<path d="M445.652 469.929L555.702 414.406" stroke="black" stroke-miterlimit="10"/>
<path d="M456.459 475.426L566.514 419.903" stroke="black" stroke-miterlimit="10"/>
<path d="M466.74 484.295L576.79 428.772" stroke="black" stroke-miterlimit="10"/>
<path d="M476.662 494.936L586.711 439.414" stroke="black" stroke-miterlimit="10"/>
<path d="M485.166 506.817L595.221 451.294" stroke="black" stroke-miterlimit="10"/>
<path d="M491.725 519.937L601.774 464.414" stroke="black" stroke-miterlimit="10"/>
<path d="M496.865 532.171L606.915 476.648" stroke="black" stroke-miterlimit="10"/>
<path d="M500.408 545.117L610.458 489.595" stroke="black" stroke-miterlimit="10"/>
<path d="M502.18 556.818L611.81 501.481" stroke="black" stroke-miterlimit="10"/>
<path d="M502.299 566.555L611.277 511.763" stroke="black" stroke-miterlimit="10"/>
<path d="M501.059 574.651L609.151 520.631" stroke="black" stroke-miterlimit="10"/>
<path d="M498.133 583.017L604.634 529.41" stroke="black" stroke-miterlimit="10"/>
<path d="M175.467 388.292V228.874" stroke="black" stroke-miterlimit="10"/>
<path d="M9.7832 45.8506L90.133 105.697" stroke="black" stroke-miterlimit="10"/>
<path d="M96.2539 113.271C98.0122 113.271 99.4375 111.845 99.4375 110.086C99.4375 108.326 98.0122 106.9 96.2539 106.9C94.4957 106.9 93.0703 108.326 93.0703 110.086C93.0703 111.845 94.4957 113.271 96.2539 113.271Z" fill="black" stroke="black" stroke-miterlimit="10"/>
<path d="M81.9629 386.831C83.7211 386.831 85.1465 385.405 85.1465 383.645C85.1465 381.886 83.7211 380.459 81.9629 380.459C80.2046 380.459 78.7793 381.886 78.7793 383.645C78.7793 385.405 80.2046 386.831 81.9629 386.831Z" fill="#9B69FF" stroke="black" stroke-miterlimit="10"/>
<path d="M176.064 225.089C177.823 225.089 179.248 223.663 179.248 221.903C179.248 220.144 177.823 218.718 176.064 218.718C174.306 218.718 172.881 220.144 172.881 221.903C172.881 223.663 174.306 225.089 176.064 225.089Z" fill="black" stroke="black" stroke-miterlimit="10"/>
<path d="M242.314 530.787C244.073 530.787 245.498 529.361 245.498 527.601C245.498 525.842 244.073 524.416 242.314 524.416C240.556 524.416 239.131 525.842 239.131 527.601C239.131 529.361 240.556 530.787 242.314 530.787Z" fill="#9B69FF" stroke="black" stroke-miterlimit="10"/>
<path d="M291.165 341.356V337.164L287.539 335.068L283.906 337.164V341.356L287.539 343.452L291.165 341.356Z" fill="#9B69FF" stroke="black" stroke-miterlimit="10"/>
<path d="M98.401 197.807V193.028L94.2659 190.633L90.1309 193.028V197.807L94.2659 200.196L98.401 197.807Z" fill="#9B69FF" stroke="black" stroke-miterlimit="10"/>
<path d="M176.064 398.591C177.823 398.591 179.248 397.165 179.248 395.405C179.248 393.646 177.823 392.22 176.064 392.22C174.306 392.22 172.881 393.646 172.881 395.405C172.881 397.165 174.306 398.591 176.064 398.591Z" fill="#FFE300" stroke="black" stroke-miterlimit="10"/>
<path d="M90.0664 192.957L94.2374 195.316V200.196" stroke="black" stroke-miterlimit="10"/>
<path d="M98.4153 192.957L94.2383 195.316" stroke="black" stroke-miterlimit="10"/>
<path d="M284.084 337.129L287.651 339.141V343.303" stroke="black" stroke-miterlimit="10"/>
<path d="M291.211 337.129L287.65 339.141" stroke="black" stroke-miterlimit="10"/>
<path d="M555.432 254.316C562.203 251.619 562.73 236.956 556.609 221.564C550.488 206.172 540.037 195.881 533.266 198.577C526.495 201.273 525.968 215.937 532.089 231.328C538.21 246.72 548.661 257.012 555.432 254.316Z" stroke="black" stroke-miterlimit="10"/>
<path d="M544.576 316.912L544.121 232.862" stroke="black" stroke-miterlimit="10"/>
<path d="M473.795 358.59L540.124 324.619" stroke="black" stroke-miterlimit="10"/>
<path d="M548.584 326.29L606.655 369.549" stroke="black" stroke-miterlimit="10"/>
<path d="M473.477 364.836C501.662 385.831 564.676 398.496 606.649 376.998" stroke="black" stroke-miterlimit="10"/>
<path d="M303.593 332.973L302.983 332.511V246.221L316.303 239.06L384.888 290.199V376.824L371.903 383.818L303.593 332.973Z" stroke="black" stroke-miterlimit="10"/>
<path d="M302.983 246.221L371.903 296.864V383.818" stroke="black" stroke-miterlimit="10"/>
<path d="M371.903 296.864L384.888 290.199" stroke="black" stroke-miterlimit="10"/>
<path d="M340.941 257.384V226.898L354.256 219.736L422.841 270.875V357.5L409.861 364.495L384.835 345.781" stroke="black" stroke-miterlimit="10"/>
<path d="M340.941 226.898L409.861 277.54V364.495" stroke="black" stroke-miterlimit="10"/>
<path d="M409.861 277.54L422.841 270.875" stroke="black" stroke-miterlimit="10"/>
<path d="M378.891 238.281V207.574L392.211 200.412L460.796 251.551V338.176L447.811 345.171L422.785 326.679" stroke="black" stroke-miterlimit="10"/>
<path d="M378.891 207.574L447.811 258.216V345.171" stroke="black" stroke-miterlimit="10"/>
<path d="M447.811 258.216L460.796 251.551" stroke="black" stroke-miterlimit="10"/>
<path d="M416.85 218.849V188.25L430.164 181.088L498.749 232.227V318.852L485.77 325.847L460.702 307.187" stroke="black" stroke-miterlimit="10"/>
<path d="M416.85 188.25L485.77 238.892V325.847" stroke="black" stroke-miterlimit="10"/>
<path d="M485.77 238.892L498.749 232.227" stroke="black" stroke-miterlimit="10"/>
<path d="M541.387 224.927L544.367 226.61V230.089" stroke="black" stroke-miterlimit="10"/>
<path d="M547.347 224.927L544.367 226.61" stroke="black" stroke-miterlimit="10"/>
<path d="M547.38 228.311V224.802L544.346 223.047L541.312 224.802V228.311L544.346 230.065L547.38 228.311Z" fill="#A08EFF" stroke="black" stroke-miterlimit="10"/>
<path d="M615.482 376.471V372.968L612.448 371.213L609.414 372.968V376.471L612.448 378.225L615.482 376.471Z" fill="black" stroke="black" stroke-miterlimit="10"/>
<path d="M471.49 363.081V359.578L468.456 357.823L465.416 359.578V363.081L468.456 364.836L471.49 363.081Z" fill="#A08EFF" stroke="black" stroke-miterlimit="10"/>
<path d="M544.349 324.619C545.731 324.619 546.85 323.499 546.85 322.116C546.85 320.734 545.731 319.613 544.349 319.613C542.968 319.613 541.848 320.734 541.848 322.116C541.848 323.499 542.968 324.619 544.349 324.619Z" fill="black" stroke="black" stroke-miterlimit="10"/>
<path d="M465.475 359.632L468.455 361.321V364.8" stroke="black" stroke-miterlimit="10"/>
<path d="M471.429 359.632L468.455 361.321" stroke="black" stroke-miterlimit="10"/>
<path d="M609.469 372.968L612.449 374.657V378.136" stroke="black" stroke-miterlimit="10"/>
<path d="M615.429 372.968L612.449 374.657" stroke="black" stroke-miterlimit="10"/>
<path d="M541.387 224.927L544.367 226.61V230.089" stroke="black" stroke-miterlimit="10"/>
<path d="M547.347 224.927L544.367 226.61" stroke="black" stroke-miterlimit="10"/>
<path d="M302.928 299.026L309.367 294.588L312.251 300.583L315.357 305.469L322.46 294.588L325.566 302.804L331.119 310.355L336.445 323.907L355.756 300.361L360.861 318.571L365.744 316.355L366.851 321.463L371.955 336.787" stroke="black" stroke-miterlimit="10"/>
<path d="M350.652 264.599L359.97 250.611L365.966 275.929" stroke="black" stroke-miterlimit="10"/>
<path d="M384.834 310.577L403.032 281.037L405.695 291.032L409.914 284.367" stroke="black" stroke-miterlimit="10"/>
<path d="M422.785 281.48L425.67 277.708L430.331 295.696L443.652 285.259L447.422 273.264L447.865 345.003L423.007 326.571L422.785 281.48Z" fill="black" stroke="black" stroke-miterlimit="10"/>
<path d="M417.016 199.526L428.553 221.736L432.551 219.071L441.874 237.281" stroke="black" stroke-miterlimit="10"/>
<path d="M460.852 271.043L463.407 281.037L485.602 253.719" stroke="black" stroke-miterlimit="10"/>
<path d="M249.729 534.859C249.729 534.859 371.399 624.341 545.019 625.329" stroke="black" stroke-miterlimit="10"/>
<path d="M557.993 627.718V622.939L553.858 620.544L549.717 622.939V627.718L553.858 630.107L557.993 627.718Z" fill="#FFE300" stroke="black" stroke-miterlimit="10"/>
<path d="M549.945 623.077L553.913 625.323V629.952" stroke="black" stroke-miterlimit="10"/>
<path d="M557.874 623.077L553.912 625.323" stroke="black" stroke-miterlimit="10"/>
<path d="M249.557 522.17L429.848 429.742" stroke="black" stroke-miterlimit="10"/>
<path d="M436.598 428.718C438.25 428.718 439.59 427.377 439.59 425.724C439.59 424.07 438.25 422.729 436.598 422.729C434.945 422.729 433.605 424.07 433.605 425.724C433.605 427.377 434.945 428.718 436.598 428.718Z" fill="#FFE300" stroke="black" stroke-miterlimit="10"/>
<path d="M320.295 162.919L619.696 0.255859" stroke="black" stroke-miterlimit="10"/>
<path d="M604.465 459.06L903.866 296.396" stroke="black" stroke-miterlimit="10"/>
<path d="M314.209 169.411C315.967 169.411 317.393 167.984 317.393 166.225C317.393 164.465 315.967 163.039 314.209 163.039C312.451 163.039 311.025 164.465 311.025 166.225C311.025 167.984 312.451 169.411 314.209 169.411Z" fill="#9B69FF" stroke="black" stroke-miterlimit="10"/>
</g>
<defs>
<clipPath id="clip0_24_10345">
<rect width="737" height="637" rx="18" fill="white"/>
</clipPath>
</defs>
</svg>
