<svg width="157" height="23" viewBox="0 0 157 23" fill="none" xmlns="http://www.w3.org/2000/svg">
<g clip-path="url(#clip0_204_20573)">
<mask id="mask0_204_20573" style="mask-type:luminance" maskUnits="userSpaceOnUse" x="0" y="0" width="157" height="23">
<path d="M157 0H0V22.9341H157V0Z" fill="white"/>
</mask>
<g mask="url(#mask0_204_20573)">
<g style="mix-blend-mode:hard-light">
<path d="M0 22.9995L23.3691 0V22.9995H0Z" fill="white"/>
<path fill-rule="evenodd" clip-rule="evenodd" d="M23.369 22.9995L16.5449 16.2833L23.369 0V22.9995Z" fill="#B2B2B2"/>
<path fill-rule="evenodd" clip-rule="evenodd" d="M23.3691 22.9994L16.545 16.2832L0 22.9994H23.3691Z" fill="#CBCBCB"/>
<path d="M23.3691 0L0 22.9995L16.545 16.2833L23.3691 0Z" fill="white"/>
<path d="M90.6758 19.9572V17.5179H92.8329V6.39832H90.6758V3.95898H98.0474V6.39832H95.8903V17.5496H98.0474V19.9572H90.6758Z" fill="white"/>
<path d="M101.008 19.9588V8.01558H104.001V10.0114H104.131C104.388 9.37778 104.774 8.83922 105.321 8.39574C105.868 7.95222 106.609 7.73047 107.542 7.73047C108.798 7.73047 109.764 8.14234 110.439 8.9343C111.116 9.75801 111.438 10.8985 111.438 12.3874V19.9588H108.444V12.7042C108.444 11.8488 108.283 11.2153 107.993 10.7717C107.671 10.3282 107.156 10.1382 106.448 10.1382C106.126 10.1382 105.836 10.1698 105.547 10.2648C105.257 10.3599 105 10.4866 104.774 10.645C104.549 10.8034 104.356 10.9934 104.227 11.2469C104.098 11.4687 104.001 11.7538 104.001 12.0706V19.9905H101.008V19.9588Z" fill="white"/>
<path d="M116.91 19.9574L112.854 7.98242H115.784L117.489 13.1462L118.681 17.423H118.841L120.032 13.1462L121.674 7.98242H124.507L120.451 19.9574H116.91Z" fill="white"/>
<path d="M131.491 20.244C130.59 20.244 129.785 20.0856 129.077 19.8004C128.369 19.5154 127.757 19.0718 127.274 18.5332C126.791 17.9947 126.405 17.3295 126.148 16.5691C125.89 15.8088 125.762 14.9218 125.762 13.9714C125.762 13.021 125.89 12.1656 126.148 11.4053C126.405 10.645 126.759 9.97975 127.243 9.44119C127.725 8.90263 128.305 8.49074 129.013 8.174C129.721 7.88886 130.493 7.73047 131.395 7.73047C132.328 7.73047 133.165 7.88886 133.873 8.20567C134.582 8.52249 135.16 8.96596 135.611 9.50452C136.062 10.0431 136.384 10.7084 136.609 11.4053C136.834 12.134 136.931 12.8943 136.931 13.7179V14.6683H128.852V14.9534C128.852 15.8088 129.109 16.5058 129.592 17.0443C130.075 17.5829 130.815 17.8363 131.813 17.8363C132.554 17.8363 133.165 17.6779 133.648 17.3928C134.131 17.076 134.549 16.6958 134.903 16.2206L136.513 17.9947C136.03 18.6916 135.322 19.2302 134.485 19.6103C133.616 20.0539 132.618 20.244 131.491 20.244ZM131.427 9.91634C130.622 9.91634 130.011 10.1698 129.527 10.7084C129.077 11.2153 128.819 11.9122 128.819 12.7359V12.9259H133.809V12.7042C133.809 11.8805 133.616 11.2153 133.197 10.7084C132.811 10.1698 132.2 9.91634 131.427 9.91634Z" fill="white"/>
<path d="M143.563 20.2435C142.403 20.2435 141.405 20.0534 140.633 19.6733C139.828 19.2932 139.153 18.7546 138.541 18.0576L140.343 16.3152C140.794 16.8221 141.277 17.2023 141.824 17.5191C142.371 17.8042 142.983 17.9626 143.691 17.9626C144.399 17.9626 144.914 17.8359 145.236 17.5824C145.558 17.329 145.719 17.0122 145.719 16.5687C145.719 16.2202 145.59 15.9351 145.397 15.745C145.172 15.5233 144.785 15.3965 144.238 15.3332L143.015 15.1748C141.695 15.0164 140.697 14.6362 139.989 14.066C139.313 13.4958 138.959 12.6404 138.959 11.5633C138.959 10.9931 139.055 10.4545 139.281 9.97928C139.507 9.50414 139.796 9.12391 140.215 8.77551C140.633 8.45869 141.116 8.20521 141.663 8.01516C142.243 7.82508 142.854 7.76172 143.563 7.76172C144.142 7.76172 144.689 7.7934 145.139 7.88844C145.59 7.98347 146.008 8.11021 146.395 8.26862C146.781 8.42703 147.103 8.6171 147.425 8.87051C147.747 9.09224 148.036 9.3774 148.326 9.66247L146.588 11.3732C146.234 10.9931 145.815 10.7079 145.3 10.4545C144.818 10.201 144.271 10.0744 143.659 10.0744C143.015 10.0744 142.532 10.201 142.243 10.4228C141.952 10.6446 141.824 10.9614 141.824 11.3099C141.824 11.7217 141.952 12.0068 142.178 12.2286C142.403 12.4503 142.822 12.5771 143.401 12.6721L144.625 12.8305C147.264 13.2106 148.551 14.3828 148.551 16.347C148.551 16.9172 148.423 17.4557 148.197 17.9309C147.972 18.4061 147.618 18.8179 147.2 19.1664C146.749 19.5149 146.234 19.7683 145.622 19.9584C145.011 20.1485 144.303 20.2435 143.563 20.2435Z" fill="white"/>
<path d="M154.796 19.9587C153.766 19.9587 152.993 19.7052 152.446 19.1666C151.899 18.6281 151.641 17.8994 151.641 16.9174V10.3597H149.839V7.98371H150.772C151.222 7.98371 151.545 7.88867 151.706 7.66691C151.867 7.44516 151.963 7.16004 151.963 6.7482V4.7207H154.635V8.01539H157.113V10.3914H154.635V17.646H156.952V19.9587H154.796Z" fill="white"/>
<path d="M38.1756 20.2443C37.2421 20.2443 36.373 20.1175 35.6327 19.8958C34.8923 19.6741 34.2808 19.3256 33.7658 18.9137C33.2507 18.5019 32.8644 18.0267 32.6069 17.4564C32.3494 16.8862 32.2207 16.2843 32.2207 15.5874C32.2207 14.5419 32.5103 13.7183 33.0898 13.053C33.6692 12.3877 34.4417 11.9442 35.4395 11.6907V11.5006C34.6348 11.2156 33.991 10.772 33.4761 10.1385C32.961 9.53649 32.7035 8.74453 32.7035 7.82582C32.7035 7.2239 32.8323 6.65367 33.0575 6.1468C33.2829 5.63992 33.637 5.19641 34.1198 4.84793C34.6026 4.49945 35.1498 4.18266 35.8258 3.99257C36.5018 3.8025 37.2743 3.67578 38.1434 3.67578C39.0125 3.67578 39.7851 3.77082 40.461 3.99257C41.137 4.21433 41.7163 4.49945 42.167 4.84793C42.6177 5.22809 42.9718 5.63992 43.2293 6.1468C43.4545 6.65367 43.5833 7.2239 43.5833 7.82582C43.5833 8.74453 43.3258 9.53649 42.8108 10.1385C42.2958 10.7403 41.652 11.2156 40.8473 11.5006V11.6907C41.8129 11.9442 42.6177 12.4193 43.197 13.053C43.7765 13.7183 44.0662 14.5419 44.0662 15.5874C44.0662 16.2527 43.9374 16.8862 43.6799 17.4564C43.4224 18.0267 43.0361 18.5019 42.5211 18.9137C42.0061 19.3256 41.3945 19.6423 40.6541 19.8958C39.946 20.1175 39.1091 20.2443 38.1756 20.2443ZM38.1756 17.9C39.0769 17.9 39.7529 17.7099 40.2035 17.2981C40.6864 16.8862 40.9116 16.3476 40.9116 15.619V15.1439C40.9116 14.4152 40.6864 13.8767 40.2035 13.4648C39.7206 13.053 39.0447 12.8629 38.1756 12.8629C37.2743 12.8629 36.5984 13.053 36.1477 13.4648C35.6649 13.8767 35.4395 14.4152 35.4395 15.1439V15.619C35.4395 16.3476 35.6649 16.8862 36.1477 17.2981C36.5984 17.6782 37.2743 17.9 38.1756 17.9ZM38.1756 10.6136C39.0125 10.6136 39.6241 10.4235 40.0747 10.075C40.5253 9.6949 40.7185 9.18809 40.7185 8.52279V8.14264C40.7185 7.47734 40.4932 6.97047 40.0747 6.62199C39.6241 6.24184 39.0125 6.08344 38.1756 6.08344C37.3387 6.08344 36.7271 6.27352 36.2765 6.62199C35.8258 7.00215 35.6327 7.50902 35.6327 8.14264V8.52279C35.6327 9.18809 35.858 9.72664 36.2765 10.075C36.7271 10.4235 37.3387 10.6136 38.1756 10.6136Z" fill="white"/>
<path d="M52.1464 20.2443C51.2129 20.2443 50.3438 20.1175 49.6035 19.8958C48.8631 19.6741 48.2515 19.3256 47.7365 18.9137C47.2215 18.5019 46.8352 18.0267 46.5777 17.4564C46.3202 16.8862 46.1914 16.2843 46.1914 15.5874C46.1914 14.5419 46.4811 13.7183 47.0606 13.053C47.6399 12.3877 48.4125 11.9442 49.4103 11.6907V11.5006C48.6056 11.2156 47.9618 10.772 47.4468 10.1385C46.9318 9.53649 46.6743 8.74453 46.6743 7.82582C46.6743 7.2239 46.8031 6.65367 47.0283 6.1468C47.2537 5.63992 47.6078 5.19641 48.0905 4.84793C48.5734 4.49945 49.1206 4.18266 49.7966 3.99257C50.4725 3.8025 51.2451 3.67578 52.1142 3.67578C52.9833 3.67578 53.7558 3.77082 54.4318 3.99257C55.1077 4.21433 55.6871 4.49945 56.1378 4.84793C56.5884 5.22809 56.9425 5.63992 57.2 6.1468C57.4253 6.65367 57.5541 7.2239 57.5541 7.82582C57.5541 8.74453 57.2965 9.53649 56.7815 10.1385C56.2666 10.7403 55.6228 11.2156 54.8181 11.5006V11.6907C55.7837 11.9442 56.5884 12.4193 57.1678 13.053C57.7473 13.7183 58.0369 14.5419 58.0369 15.5874C58.0369 16.2527 57.9082 16.8862 57.6507 17.4564C57.3931 18.0267 57.0069 18.5019 56.4918 18.9137C55.9768 19.3256 55.3653 19.6423 54.6249 19.8958C53.9489 20.1175 53.112 20.2443 52.1464 20.2443ZM52.1464 17.9C53.0476 17.9 53.7236 17.7099 54.1743 17.2981C54.6571 16.8862 54.8824 16.3476 54.8824 15.619V15.1439C54.8824 14.4152 54.6571 13.8767 54.1743 13.4648C53.6914 13.053 53.0154 12.8629 52.1464 12.8629C51.2451 12.8629 50.5691 13.053 50.1185 13.4648C49.6357 13.8767 49.4103 14.4152 49.4103 15.1439V15.619C49.4103 16.3476 49.6357 16.8862 50.1185 17.2981C50.6013 17.6782 51.2773 17.9 52.1464 17.9ZM52.1464 10.6136C52.9833 10.6136 53.5949 10.4235 54.0455 10.075C54.4961 9.6949 54.6893 9.18809 54.6893 8.52279V8.14264C54.6893 7.47734 54.464 6.97047 54.0455 6.62199C53.5949 6.24184 52.9833 6.08344 52.1464 6.08344C51.3094 6.08344 50.6979 6.27352 50.2472 6.62199C49.7966 7.00215 49.6035 7.50902 49.6035 8.14264V8.52279C49.6035 9.18809 49.8287 9.72664 50.2472 10.075C50.6979 10.4235 51.3417 10.6136 52.1464 10.6136Z" fill="white"/>
<path d="M67.2423 19.9577V16.8531H59.8711V14.2553L66.3411 3.92773H70.1715V14.4771H72.296V16.8531H70.1715V19.9577H67.2423ZM62.414 14.5088H67.2745V6.90563H67.0814L62.414 14.5088Z" fill="white"/>
<path d="M80.118 20.2443C79.1846 20.2443 78.3155 20.1175 77.5751 19.8958C76.8348 19.6741 76.2232 19.3256 75.7081 18.9137C75.1932 18.5019 74.8069 18.0267 74.5494 17.4564C74.2919 16.8862 74.1631 16.2843 74.1631 15.5874C74.1631 14.5419 74.4528 13.7183 75.0322 13.053C75.6117 12.3877 76.3841 11.9442 77.382 11.6907V11.5006C76.5773 11.2156 75.9335 10.772 75.4185 10.1385C74.9034 9.53649 74.6459 8.74453 74.6459 7.82582C74.6459 7.2239 74.7747 6.65367 75 6.1468C75.2254 5.63992 75.5794 5.19641 76.0623 4.84793C76.5451 4.49945 77.0923 4.18266 77.7683 3.99257C78.4442 3.8025 79.2168 3.67578 80.0858 3.67578C80.955 3.67578 81.7275 3.77082 82.4038 3.99257C83.0792 4.21433 83.659 4.49945 84.1095 4.84793C84.5601 5.19641 84.9142 5.63992 85.1717 6.1468C85.3974 6.65367 85.5258 7.2239 85.5258 7.82582C85.5258 8.74453 85.2682 9.53649 84.7531 10.1385C84.2379 10.7403 83.5944 11.2156 82.7897 11.5006V11.6907C83.7555 11.9442 84.5601 12.4193 85.1398 13.053C85.7188 13.7183 86.0082 14.5419 86.0082 15.5874C86.0082 16.2527 85.8799 16.8862 85.6223 17.4564C85.3647 18.0267 84.9788 18.5019 84.4636 18.9137C83.9484 19.3256 83.3368 19.6423 82.5968 19.8958C81.8886 20.1175 81.0515 20.2443 80.118 20.2443ZM80.118 17.9C81.0193 17.9 81.6953 17.7099 82.1462 17.2981C82.6287 16.8862 82.8543 16.3476 82.8543 15.619V15.1439C82.8543 14.4152 82.6287 13.8767 82.1462 13.4648C81.6631 13.053 80.9872 12.8629 80.118 12.8629C79.249 12.8629 78.5408 13.053 78.0901 13.4648C77.6074 13.8767 77.382 14.4152 77.382 15.1439V15.619C77.382 16.3476 77.6074 16.8862 78.0901 17.2981C78.5408 17.6782 79.2168 17.9 80.118 17.9ZM80.118 10.6136C80.955 10.6136 81.5665 10.4235 82.017 10.075C82.4676 9.6949 82.6614 9.18809 82.6614 8.52279V8.14264C82.6614 7.47734 82.4357 6.97047 82.017 6.62199C81.5665 6.24184 80.955 6.08344 80.118 6.08344C79.2811 6.08344 78.6696 6.27352 78.2189 6.62199C77.7683 7.00215 77.5751 7.50902 77.5751 8.14264V8.52279C77.5751 9.18809 77.8005 9.72664 78.2189 10.075C78.6696 10.4235 79.2811 10.6136 80.118 10.6136Z" fill="white"/>
</g>
</g>
</g>
<defs>
<clipPath id="clip0_204_20573">
<rect width="157" height="23" fill="white"/>
</clipPath>
</defs>
</svg>
