<svg width="188" height="70" viewBox="0 0 188 70" fill="none" xmlns="http://www.w3.org/2000/svg">
<g clip-path="url(#clip0_204_20259)">
<rect y="-56.3145" width="187.714" height="187.714" rx="18.7714" fill="#18181B"/>
<path d="M84.38 27.72V42H87.52V36.1H93.5V33.66H87.52V30.36H94.42V27.72H84.38ZM98.8555 30.06V27.72H96.0155V30.06H98.8555ZM96.0155 31.66V42H98.8555V31.66H96.0155ZM101.092 31.66V42H103.932V36.58C103.932 35.5267 104.105 34.7733 104.452 34.32C104.798 33.8533 105.358 33.62 106.132 33.62C106.812 33.62 107.285 33.8333 107.552 34.26C107.818 34.6733 107.952 35.3067 107.952 36.16V42H110.792V35.64C110.792 35 110.732 34.42 110.612 33.9C110.505 33.3667 110.312 32.92 110.032 32.56C109.752 32.1867 109.365 31.9 108.872 31.7C108.392 31.4867 107.772 31.38 107.012 31.38C106.412 31.38 105.825 31.52 105.252 31.8C104.678 32.0667 104.212 32.5 103.852 33.1H103.792V31.66H101.092ZM126.847 42L130.687 27.72H127.607L125.267 37.56H125.227L122.787 27.72H119.847L117.367 37.44H117.327L115.067 27.72H111.927L115.707 42H118.887L121.267 32.28H121.307L123.727 42H126.847ZM130.972 34.84C131.012 34.1733 131.178 33.62 131.472 33.18C131.765 32.74 132.138 32.3867 132.592 32.12C133.045 31.8533 133.552 31.6667 134.112 31.56C134.685 31.44 135.258 31.38 135.832 31.38C136.352 31.38 136.878 31.42 137.412 31.5C137.945 31.5667 138.432 31.7067 138.872 31.92C139.312 32.1333 139.672 32.4333 139.952 32.82C140.232 33.1933 140.372 33.6933 140.372 34.32V39.7C140.372 40.1667 140.398 40.6133 140.452 41.04C140.505 41.4667 140.598 41.7867 140.732 42H137.852C137.798 41.84 137.752 41.68 137.712 41.52C137.685 41.3467 137.665 41.1733 137.652 41C137.198 41.4667 136.665 41.7933 136.052 41.98C135.438 42.1667 134.812 42.26 134.172 42.26C133.678 42.26 133.218 42.2 132.792 42.08C132.365 41.96 131.992 41.7733 131.672 41.52C131.352 41.2667 131.098 40.9467 130.912 40.56C130.738 40.1733 130.652 39.7133 130.652 39.18C130.652 38.5933 130.752 38.1133 130.952 37.74C131.165 37.3533 131.432 37.0467 131.752 36.82C132.085 36.5933 132.458 36.4267 132.872 36.32C133.298 36.2 133.725 36.1067 134.152 36.04C134.578 35.9733 134.998 35.92 135.412 35.88C135.825 35.84 136.192 35.78 136.512 35.7C136.832 35.62 137.085 35.5067 137.272 35.36C137.458 35.2 137.545 34.9733 137.532 34.68C137.532 34.3733 137.478 34.1333 137.372 33.96C137.278 33.7733 137.145 33.6333 136.972 33.54C136.812 33.4333 136.618 33.3667 136.392 33.34C136.178 33.3 135.945 33.28 135.692 33.28C135.132 33.28 134.692 33.4 134.372 33.64C134.052 33.88 133.865 34.28 133.812 34.84H130.972ZM137.532 36.94C137.412 37.0467 137.258 37.1333 137.072 37.2C136.898 37.2533 136.705 37.3 136.492 37.34C136.292 37.38 136.078 37.4133 135.852 37.44C135.625 37.4667 135.398 37.5 135.172 37.54C134.958 37.58 134.745 37.6333 134.532 37.7C134.332 37.7667 134.152 37.86 133.992 37.98C133.845 38.0867 133.725 38.2267 133.632 38.4C133.538 38.5733 133.492 38.7933 133.492 39.06C133.492 39.3133 133.538 39.5267 133.632 39.7C133.725 39.8733 133.852 40.0133 134.012 40.12C134.172 40.2133 134.358 40.28 134.572 40.32C134.785 40.36 135.005 40.38 135.232 40.38C135.792 40.38 136.225 40.2867 136.532 40.1C136.838 39.9133 137.065 39.6933 137.212 39.44C137.358 39.1733 137.445 38.9067 137.472 38.64C137.512 38.3733 137.532 38.16 137.532 38V36.94ZM148.296 42L151.796 31.66H148.976L146.796 38.72H146.756L144.576 31.66H141.596L145.136 42H148.296ZM159.927 35.72H155.307C155.32 35.52 155.36 35.2933 155.427 35.04C155.507 34.7867 155.633 34.5467 155.807 34.32C155.993 34.0933 156.233 33.9067 156.527 33.76C156.833 33.6 157.213 33.52 157.667 33.52C158.36 33.52 158.873 33.7067 159.207 34.08C159.553 34.4533 159.793 35 159.927 35.72ZM155.307 37.52H162.767C162.82 36.72 162.753 35.9533 162.567 35.22C162.38 34.4867 162.073 33.8333 161.647 33.26C161.233 32.6867 160.7 32.2333 160.047 31.9C159.393 31.5533 158.627 31.38 157.747 31.38C156.96 31.38 156.24 31.52 155.587 31.8C154.947 32.08 154.393 32.4667 153.927 32.96C153.46 33.44 153.1 34.0133 152.847 34.68C152.593 35.3467 152.467 36.0667 152.467 36.84C152.467 37.64 152.587 38.3733 152.827 39.04C153.08 39.7067 153.433 40.28 153.887 40.76C154.34 41.24 154.893 41.6133 155.547 41.88C156.2 42.1333 156.933 42.26 157.747 42.26C158.92 42.26 159.92 41.9933 160.747 41.46C161.573 40.9267 162.187 40.04 162.587 38.8H160.087C159.993 39.12 159.74 39.4267 159.327 39.72C158.913 40 158.42 40.14 157.847 40.14C157.047 40.14 156.433 39.9333 156.007 39.52C155.58 39.1067 155.347 38.44 155.307 37.52Z" fill="white"/>
<path opacity="0.4" d="M19 32.2C19 25.4794 19 22.1191 20.3079 19.5521C21.4584 17.2942 23.2942 15.4584 25.5521 14.3079C28.1191 13 31.4794 13 38.2 13H41.0661H43.8C50.5206 13 53.8809 13 56.4479 14.3079C58.7058 15.4584 60.5416 17.2942 61.6921 19.5521C63 22.1191 63 25.4794 63 32.2V37.8C63 44.5206 63 47.8809 61.6921 50.4479C60.5416 52.7058 58.7058 54.5416 56.4479 55.6921C53.8809 57 50.5206 57 43.8 57H38.2C31.4794 57 28.1191 57 25.5521 55.6921C23.2942 54.5416 21.4584 52.7058 20.3079 50.4479C19 47.8809 19 44.5206 19 37.8V32.2Z" fill="white"/>
<path d="M71.0897 27.0394C71.0897 27.0394 64.036 42.0967 54.208 39.4633C44.3799 36.8299 37.5605 41.6952 37.5605 41.6952" stroke="white" stroke-width="5" stroke-linecap="round" stroke-linejoin="round"/>
<path opacity="0.808036" d="M37.5607 41.695C37.5607 41.695 44.4546 27.4755 54.2826 30.1089C64.1107 32.7423 71.0899 27.0392 71.0899 27.0392" stroke="white" stroke-width="5" stroke-linecap="round" stroke-linejoin="round"/>
</g>
<defs>
<clipPath id="clip0_204_20259">
<rect width="187.714" height="70" rx="18.7714" fill="white"/>
</clipPath>
</defs>
</svg>
