<svg width="135" height="27" viewBox="0 0 135 27" fill="none" xmlns="http://www.w3.org/2000/svg">
<g clip-path="url(#clip0_204_20778)">
<path d="M17.993 0C16.7183 0 15.6537 0.895105 15.3875 2.08392C13.9798 0.797203 12.0397 0 9.9105 0H0.75642V1.21678C0.75642 4.6014 2.66848 7.65734 5.5891 9.41958C2.31829 10.7203 0 13.9091 0 17.6364C0 22.5175 3.97821 26.4825 8.85992 26.4825C11.5844 26.4825 14.0288 25.2448 15.6537 23.3007V26.0629H17.7198V7.25175C17.7198 6.03497 17.3907 4.88811 16.8163 3.87413H19.5479C21.607 3.87413 23.2739 2.20979 23.2739 0.153846V0H17.986L17.993 0ZM8.85992 24.4196C5.11284 24.4196 2.06615 21.3776 2.06615 17.6364C2.06615 13.8951 5.11284 10.8531 8.85992 10.8531C12.607 10.8531 15.6537 13.8951 15.6537 17.6364C15.6537 21.3776 12.607 24.4196 8.85992 24.4196ZM15.6607 9.97203V11.965C14.2809 10.3217 12.3128 9.18881 10.0856 8.88112V8.86014C6.26148 8.34965 3.29883 5.4965 2.8786 2.06294H9.9105C13.0833 2.06294 15.6607 4.39161 15.6607 7.25175V9.97203Z" fill="white"/>
<path d="M67.9029 9.13281H63.9177C62.8321 9.13281 61.9496 10.0139 61.9496 11.0909V9.13281H58.959V22.0279H61.9496V11.93H65.1644C66.6773 11.93 67.9029 10.7062 67.9029 9.19575V9.13281Z" fill="white"/>
<path d="M51.2757 10.4549C50.7154 9.97234 50.1621 9.62269 49.6088 9.39192C48.9574 9.12619 48.264 8.98633 47.5286 8.98633C45.9598 8.98633 44.608 9.53878 43.4804 10.6437C42.2337 11.8674 41.6104 13.4898 41.6104 15.5038C41.6104 17.3919 42.1987 18.9444 43.3753 20.1751C44.552 21.4059 45.9948 22.0213 47.7037 22.0213C48.4812 22.0213 49.1816 21.8954 49.7979 21.6507C50.4142 21.4059 51.0026 21.0003 51.5629 20.4409C51.5629 21.4688 51.4578 22.1961 51.2407 22.6157C51.0236 23.0353 50.6594 23.3779 50.1341 23.6437C49.6088 23.9094 48.9224 24.0423 48.0609 24.0423C47.3886 24.0423 46.8072 23.9514 46.317 23.7695C45.9528 23.6367 45.6446 23.4479 45.3784 23.2241H41.6874C41.9676 23.9723 42.3668 24.6227 42.8921 25.1612C43.4804 25.7626 44.1948 26.2241 45.0423 26.5318C45.8897 26.8465 46.9403 27.0003 48.187 27.0003C50.5263 27.0003 52.2773 26.315 53.4399 24.9444C54.3084 23.9304 54.7356 22.35 54.7356 20.2031L54.8477 11.9723C56.1294 11.7206 57.096 10.5947 57.096 9.24507V9.13318H53.1458C52.2773 9.13318 51.5419 9.68563 51.2687 10.4549H51.2757ZM50.7644 18.1472C50.1201 18.8115 49.3006 19.1402 48.3131 19.1402C47.3255 19.1402 46.457 18.8045 45.7847 18.1262C45.1123 17.4479 44.7761 16.5807 44.7761 15.5178C44.7761 14.4549 45.1053 13.6507 45.7567 12.9793C46.415 12.308 47.2415 11.9653 48.25 11.9653C49.2586 11.9653 50.1061 12.294 50.7574 12.9584C51.4018 13.6227 51.731 14.4828 51.731 15.5388C51.731 16.5947 51.4088 17.4828 50.7644 18.1472Z" fill="white"/>
<path d="M35.7897 10.3919C35.3204 9.97234 34.8162 9.65066 34.2769 9.41989C33.6045 9.13318 32.8901 8.98633 32.1267 8.98633C30.4667 8.98633 29.059 9.6157 27.8963 10.8674C26.7337 12.1192 26.1523 13.7276 26.1523 15.6926C26.1523 17.6577 26.7547 19.1681 27.9523 20.4409C29.15 21.7136 30.5718 22.35 32.2177 22.35C32.9531 22.35 33.6325 22.2171 34.2558 21.9584C34.8862 21.6996 35.5095 21.273 36.1329 20.6786V22.0213H39.3267V11.9723C40.6154 11.7276 41.5959 10.6017 41.5959 9.24507V9.13318H37.6457C36.8053 9.13318 36.0839 9.65766 35.7897 10.3919ZM35.2854 18.3849C34.6271 19.0842 33.7936 19.4339 32.792 19.4339C31.7905 19.4339 30.999 19.0772 30.3407 18.3709C29.6823 17.6646 29.3461 16.7556 29.3461 15.6577C29.3461 14.5598 29.6753 13.6716 30.3267 12.9793C30.978 12.28 31.7975 11.9304 32.785 11.9304C33.7726 11.9304 34.6341 12.273 35.2924 12.9584C35.9508 13.6437 36.287 14.5388 36.287 15.6437C36.287 16.7486 35.9578 17.6856 35.2924 18.3849H35.2854Z" fill="white"/>
<path d="M77.7639 9.88843C76.7063 9.28703 75.5787 8.98633 74.374 8.98633C72.7141 8.98633 71.2433 9.55975 69.9616 10.7136C68.5048 12.0353 67.7764 13.6926 67.7764 15.6786C67.7764 17.5318 68.4207 19.1052 69.7094 20.4059C70.9982 21.6996 72.56 22.35 74.381 22.35C75.6207 22.35 76.7554 22.0563 77.7849 21.4688C78.8145 20.8814 79.627 20.0633 80.2223 19.0213C80.8176 17.9793 81.1188 16.8535 81.1188 15.6577C81.1188 14.4619 80.8246 13.357 80.2293 12.329C79.634 11.301 78.8145 10.4898 77.7569 9.88843H77.7639ZM76.9165 18.35C76.2511 19.0423 75.4176 19.3919 74.4231 19.3919C73.4285 19.3919 72.595 19.0493 71.9437 18.364C71.2923 17.6786 70.9631 16.7835 70.9631 15.6786C70.9631 14.5737 71.2923 13.7206 71.9507 13.0353C72.6091 12.343 73.4355 12.0003 74.4301 12.0003C75.4246 12.0003 76.2791 12.343 76.9305 13.0213C77.5818 13.6996 77.911 14.5877 77.911 15.6786C77.911 16.7695 77.5818 17.6577 76.9165 18.357V18.35Z" fill="white"/>
<path d="M100.008 8.98633C98.1174 8.98633 96.5485 9.62968 95.3019 10.9094C94.0552 12.1891 93.4248 13.7975 93.4248 15.7416C93.4248 17.6856 94.0552 19.2101 95.3089 20.4688C96.5625 21.7276 98.1945 22.357 100.191 22.357C101.479 22.357 102.586 22.1262 103.524 21.6716C104.463 21.2171 105.261 20.5108 105.934 19.5598L103.98 18.6437C103.552 18.4409 103.055 18.5038 102.67 18.7765C101.942 19.294 101.108 19.5458 100.17 19.5458C99.168 19.5458 98.3485 19.28 97.7042 18.7486C97.0598 18.2171 96.6676 17.4968 96.5135 16.5947H106.774L106.788 15.9863C106.788 13.8814 106.158 12.1891 104.904 10.9094C103.65 9.62968 102.019 8.98633 100.015 8.98633H100.008ZM96.6536 14.0772C97.0108 13.294 97.403 12.7416 97.8232 12.4269C98.4956 11.9304 99.2801 11.6786 100.17 11.6786C100.989 11.6786 101.71 11.9024 102.334 12.343C102.957 12.7835 103.37 13.364 103.58 14.0702H96.6536V14.0772Z" fill="white"/>
<path d="M117.875 18.616C117.175 19.1615 116.307 19.4342 115.263 19.4342C114.135 19.4342 113.225 19.0915 112.524 18.4062C111.831 17.7209 111.481 16.8398 111.481 15.7559C111.481 14.672 111.838 13.7349 112.559 13.0216C113.281 12.3083 114.226 11.9517 115.389 11.9517C116.026 11.9517 116.587 12.0496 117.063 12.2524C117.539 12.4552 118.022 12.8188 118.513 13.3363L121.111 11.8748C120.488 10.9447 119.682 10.2314 118.702 9.7279C117.721 9.2244 116.608 8.97266 115.375 8.97266C114.044 8.97266 112.833 9.26636 111.754 9.86077C110.675 10.4552 109.835 11.2664 109.233 12.3013C108.63 13.3363 108.329 14.4692 108.329 15.6999C108.329 17.4762 108.945 19.0286 110.185 20.3503C111.425 21.672 113.134 22.3363 115.326 22.3363C117.756 22.3363 119.984 21.1055 120.845 19.4342L119.444 18.5461C118.954 18.2384 118.324 18.2454 117.868 18.602L117.875 18.616Z" fill="white"/>
<path d="M90.8332 19.5458C90.5951 19.5737 90.3429 19.5947 90.0768 19.5947C89.2784 19.5947 88.634 19.4688 88.1437 19.2241C87.6535 18.9793 87.3103 18.6577 87.1142 18.266C86.911 17.8744 86.813 17.1961 86.813 16.2381V11.6367H92.227V9.13318H84.1375C86.0636 9.13318 87.6254 7.57374 87.6254 5.65066V3.98633H86.0776C84.9289 3.98633 83.9974 4.9164 83.9974 6.06325V9.13318H81.9873V9.76954C81.9873 10.7975 82.7928 11.6367 83.7943 11.6367H83.8433V16.0283C83.8433 18.0213 84.2496 19.4898 85.055 20.4339C86.1406 21.7136 87.7725 22.35 89.9577 22.35C91.1204 22.35 92.1009 22.2031 92.8924 21.9164C92.9694 21.8884 93.0394 21.8605 93.1165 21.8255L92.255 19.9933C91.8978 19.3989 90.8332 19.5458 90.8332 19.5458Z" fill="white"/>
<path d="M133.83 11.0065C132.786 9.72677 131.203 9.0904 129.095 9.0904C128.507 9.0904 127.758 9.0904 127.057 9.13236V3.97852H125.915C124.907 3.97852 124.087 4.7967 124.087 5.80369V9.20229H122.231V9.83865C122.231 10.8666 123.037 11.7058 124.038 11.7058H124.087V22.0205H127.057V11.7967C127.715 11.7967 128.787 11.8107 128.976 11.8107C129.747 11.8107 130.426 11.8317 130.895 12.0764C131.365 12.3212 131.645 12.7757 131.841 13.1743C132.037 13.5659 132.128 14.2442 132.128 15.2023V15.4121L132.114 22.0275H134.979L134.993 15.4121C134.993 13.4191 134.6 11.9505 133.823 11.0065H133.83Z" fill="white"/>
</g>
<defs>
<clipPath id="clip0_204_20778">
<rect width="135" height="27" fill="white"/>
</clipPath>
</defs>
</svg>
