<svg width="169" height="169" viewBox="0 0 169 169" fill="none" xmlns="http://www.w3.org/2000/svg">
<path d="M44.7288 66.4388C39.9334 66.5987 35.3929 68.6366 32.0861 72.1131C28.7792 75.5895 26.9709 80.2262 27.0509 85.0236C27.1309 89.821 29.0928 94.3948 32.5136 97.7592C35.9345 101.123 40.5404 103.009 45.3385 103.009C50.1365 103.009 54.7424 101.123 58.1633 97.7592C61.5842 94.3948 63.5461 89.821 63.6261 85.0236C63.706 80.2262 61.8977 75.5895 58.5909 72.1131C55.284 68.6366 50.7435 66.5987 45.9481 66.4388H44.7288ZM70.335 66.4388C65.5396 66.5987 60.9991 68.6366 57.6923 72.1131C54.3854 75.5895 52.5771 80.2262 52.6571 85.0236C52.737 89.821 54.6989 94.3948 58.1198 97.7592C61.5407 101.123 66.1466 103.009 70.9447 103.009C75.7427 103.009 80.3486 101.123 83.7695 97.7592C87.1904 94.3948 89.1523 89.821 89.2322 85.0236C89.3122 80.2262 87.5039 75.5895 84.197 72.1131C80.8902 68.6366 76.3497 66.5987 71.5543 66.4388H70.335ZM95.9412 66.4388C91.1458 66.5987 86.6053 68.6366 83.2984 72.1131C79.9916 75.5895 78.1833 80.2262 78.2632 85.0236C78.3432 89.821 80.3051 94.3948 83.726 97.7592C87.1469 101.123 91.7528 103.009 96.5508 103.009C101.349 103.009 105.955 101.123 109.376 97.7592C112.797 94.3948 114.758 89.821 114.838 85.0236C114.918 80.2262 113.11 75.5895 109.803 72.1131C106.496 68.6366 101.956 66.5987 97.1605 66.4388H95.9412ZM121.547 66.4388C116.752 66.5987 112.211 68.6366 108.905 72.1131C105.598 75.5895 103.789 80.2262 103.869 85.0236C103.949 89.821 105.911 94.3948 109.332 97.7592C112.753 101.123 117.359 103.009 122.157 103.009C126.955 103.009 131.561 101.123 134.982 97.7592C138.403 94.3948 140.365 89.821 140.445 85.0236C140.525 80.2262 138.716 75.5895 135.409 72.1131C132.103 68.6366 127.562 66.5987 122.767 66.4388H121.547Z" stroke="white" stroke-width="3.73423"/>
</svg>
