<svg width="169" height="169" viewBox="0 0 169 169" fill="none" xmlns="http://www.w3.org/2000/svg">
<g clip-path="url(#clip0_1_952)">
<path fill-rule="evenodd" clip-rule="evenodd" d="M73.4907 119.287C72.8198 119.287 72.2621 119.708 72.0443 120.28L69.0992 127.628L68.8378 128.466L68.6025 127.615L66.324 120.465L66.2979 120.4V120.383C66.0844 119.781 65.5093 119.355 64.8427 119.355H61.1701C60.3423 119.398 59.6888 120.065 59.6888 120.886C59.6888 121.105 59.7934 121.398 59.8631 121.669L60.3423 123.161L58.543 127.636L58.2598 128.462L58.0289 127.623L55.7591 120.456L55.733 120.392V120.374C55.5152 119.772 54.9314 119.347 54.2779 119.347H50.5965C49.7862 119.39 49.1152 120.056 49.1152 120.877C49.1152 121.097 49.2024 121.389 49.2939 121.66L54.7963 137.843C54.9619 138.501 55.5805 138.991 56.2906 138.991C57.0008 138.991 57.5715 138.544 57.7632 137.925L61.6188 128.333L61.902 127.473L62.1329 128.32L65.3742 137.843C65.5398 138.501 66.1454 138.991 66.8729 138.991C67.6005 138.991 68.1625 138.523 68.3629 137.874L74.8805 121.484C74.9763 121.282 75.0373 121.054 75.0373 120.826C75.0373 119.966 74.3315 119.274 73.482 119.274L73.4907 119.287Z" fill="white"/>
<path fill-rule="evenodd" clip-rule="evenodd" d="M100.903 119.287C100.232 119.287 99.6612 119.708 99.4434 120.28L96.5157 127.628L96.2325 128.466L96.019 127.615L93.7274 120.465L93.7187 120.4V120.383C93.4965 119.781 92.9171 119.355 92.2505 119.355H88.5779C87.7545 119.398 87.1053 120.065 87.1053 120.886C87.1053 121.105 87.1881 121.398 87.2883 121.669L87.7675 123.161L85.9595 127.636L85.6633 128.462L85.4411 127.623L83.18 120.456L83.1451 120.392V120.374C82.936 119.772 82.3609 119.347 81.6987 119.347H78.0174C77.1852 119.39 76.5317 120.056 76.5317 120.877C76.5317 121.097 76.6363 121.389 76.7104 121.66L82.2302 137.843C82.3958 138.501 82.997 138.991 83.7202 138.991C84.4434 138.991 84.9923 138.544 85.2015 137.925L89.0527 128.333L89.3185 127.473L89.5625 128.32L92.7908 137.843C92.965 138.501 93.5706 138.991 94.2938 138.991C95.017 138.991 95.6008 138.523 95.7925 137.874L102.314 121.484C102.41 121.282 102.463 121.054 102.463 120.826C102.463 119.966 101.761 119.274 100.912 119.274L100.903 119.287Z" fill="white"/>
<path fill-rule="evenodd" clip-rule="evenodd" d="M118.704 119.325H105.852C105.111 119.325 104.514 119.91 104.514 120.654V137.495C104.549 138.256 105.185 138.88 105.956 138.88H109.599C110.383 138.858 111.001 138.248 111.019 137.456V129.593L116.26 129.575C117.027 129.571 117.641 128.956 117.641 128.182C117.641 127.408 117.018 126.798 116.229 126.798H111.028L111.019 122.296H118.778C119.575 122.258 120.211 121.613 120.211 120.804C120.211 119.996 119.527 119.325 118.7 119.325H118.704Z" fill="white"/>
<path fill-rule="evenodd" clip-rule="evenodd" d="M98.7724 65.6284C101.112 68.2168 101.356 75.9086 107.237 72.8474C110.771 71.0115 110.723 63.2508 106.004 60.4475C102.192 58.2246 100.106 61.2214 98.7244 64.9061C98.6199 65.1899 98.6068 65.4823 98.768 65.6284H98.7724Z" fill="white"/>
<path fill-rule="evenodd" clip-rule="evenodd" d="M89.6451 64.4031C87.188 66.411 85.5019 71.9187 80.9797 70.0527C77.3289 68.2168 76.9803 61.0795 83.2713 57.7775C87.6585 55.7868 89.8847 59.7295 89.9109 63.9129C89.9109 64.0591 89.7671 64.2784 89.6408 64.4031H89.6451Z" fill="white"/>
<path fill-rule="evenodd" clip-rule="evenodd" d="M95.7053 78.454C98.1319 78.2089 97.5873 75.986 95.7445 75.4314C94.102 74.9498 91.6056 74.6317 89.8499 74.6661C86.7306 74.7392 86.8046 77.091 88.4297 77.4866C89.6539 77.895 90.4468 78.0541 91.5098 79.3999C92.4813 81.253 92.0457 78.8409 95.7053 78.454Z" fill="white"/>
<path fill-rule="evenodd" clip-rule="evenodd" d="M107.159 38.7091C110.208 33.7044 115.506 34.6718 118.172 37.1698C121.091 39.8828 121.562 43.0129 120.442 45.2186C118.913 48.1723 115.014 51.7668 112.474 48.2884C111.354 46.7578 108.967 44.9219 107.669 44.3931C105.673 43.5632 105.29 41.7832 107.154 38.7091H107.159Z" fill="white"/>
<path fill-rule="evenodd" clip-rule="evenodd" d="M95.9188 83.6779C94.5901 87.1476 87.6935 85.9566 87.4757 82.5987L87.7414 82.5084C90.8129 83.2221 93.7318 83.5575 95.7141 83.5446C95.7838 83.5446 95.9493 83.5059 95.9188 83.6736V83.6779ZM119.292 60.7915C119.022 59.9058 118.573 59.9574 118.591 60.6883C118.835 69.8162 113.319 79.5976 101.491 79.6621C98.4718 79.6664 99.378 84.4475 93.8625 82.0441C89.8849 79.3999 87.6151 84.6066 84.7833 79C84.169 77.3791 83.2323 76.7384 82.0255 76.4418C70.354 73.5869 66.6335 57.7302 76.9195 44.9305C78.9541 46.1301 79.7034 46.3106 81.873 44.3501C82.997 43.3182 84.9052 42.1788 85.9421 41.8004C88.4123 40.8674 89.7542 39.8269 87.6151 35.1706C84.866 29.1254 79.246 30.8323 76.6755 32.9219C73.7784 35.2866 71.7394 39.0874 75.4774 43.5675C65.0171 50.5285 63.2266 59.0803 63.4705 66.5099C63.7189 74.4167 61.6669 73.7417 64.2242 81.7904C64.4551 82.4912 63.9498 82.4783 63.5664 82.2505C52.6617 75.3626 46.7758 54.3637 63.7624 42.785C64.1414 42.4454 63.9846 42.0068 62.5905 42.8108C47.8824 50.4984 46.5319 65.3619 48.9672 75.3712C50.161 80.2211 48.3486 81.1111 50.2525 87.483C54.6265 100.764 58.3602 101.809 63.6274 102.196C73.2207 102.196 66.7162 96.9764 67.0648 90.4196C67.0648 90.0369 67.5353 89.852 67.8054 90.6388C73.0856 102.321 76.8106 112.953 90.6909 111.96C98.7202 110.928 94.2633 106.99 93.7754 104.759C87.8634 85.4149 102.201 80.8531 98.1451 99.7152C95.4658 110.52 103.931 109.436 109.895 105.563C116.047 101.577 123.736 75.2723 119.279 60.7958L119.292 60.7915Z" fill="white"/>
<path fill-rule="evenodd" clip-rule="evenodd" d="M62.5555 104.096C60.8608 104.096 59.4753 105.459 59.4753 107.128C59.4753 108.796 60.8608 110.172 62.5555 110.172C64.2502 110.172 65.6269 108.804 65.6269 107.128C65.6269 105.451 64.2633 104.096 62.5555 104.096ZM65.1303 107.128C65.1303 108.529 63.9714 109.66 62.5555 109.66C61.1396 109.66 59.9938 108.529 59.9938 107.128C59.9938 105.726 61.1439 104.599 62.5555 104.599C63.967 104.599 65.1303 105.739 65.1303 107.128Z" fill="white"/>
<path fill-rule="evenodd" clip-rule="evenodd" d="M63.4356 107.601C63.3746 107.97 63.061 108.224 62.634 108.224C62.0459 108.224 61.6668 107.708 61.6668 107.123C61.6668 106.504 62.0066 106.044 62.634 106.044C63.0479 106.044 63.3528 106.281 63.4356 106.642H63.8669C63.7885 105.971 63.257 105.597 62.6166 105.597C61.7017 105.597 61.1702 106.255 61.1702 107.123C61.1702 107.992 61.7452 108.654 62.634 108.654C63.257 108.654 63.758 108.258 63.8844 107.601H63.4356Z" fill="white"/>
<path fill-rule="evenodd" clip-rule="evenodd" d="M116.652 111.337C114.936 111.337 113.572 112.7 113.572 114.377C113.572 116.053 114.94 117.412 116.652 117.412C118.364 117.412 119.724 116.062 119.724 114.377C119.724 112.691 118.338 111.337 116.652 111.337ZM119.223 114.377C119.223 115.778 118.064 116.913 116.652 116.913C115.241 116.913 114.073 115.778 114.073 114.377C114.073 112.975 115.219 111.848 116.652 111.848C118.086 111.848 119.223 112.979 119.223 114.377Z" fill="white"/>
<path fill-rule="evenodd" clip-rule="evenodd" d="M116.116 114.205V113.315H116.709C117.018 113.315 117.345 113.392 117.345 113.745C117.345 114.187 117.018 114.209 116.635 114.209H116.116V114.205ZM116.116 114.583H116.617L117.393 115.821H117.876L117.044 114.553C117.475 114.501 117.798 114.273 117.798 113.775C117.798 113.203 117.462 112.958 116.778 112.958H115.659V115.821H116.112V114.583H116.116Z" fill="white"/>
</g>
<defs>
<clipPath id="clip0_1_952">
<rect width="73" height="108" fill="white" transform="translate(48 31)"/>
</clipPath>
</defs>
</svg>
