<svg width="169" height="169" viewBox="0 0 169 169" fill="none" xmlns="http://www.w3.org/2000/svg">
<path d="M33.0386 95.3909V86.1945C33.0386 84.3423 33.3114 82.7845 33.857 81.5281C34.4026 80.2718 35.1492 79.2595 36.104 78.4986C37.0086 77.7878 38.0639 77.2638 39.2772 76.9335C40.4904 76.6033 41.7396 76.4382 43.0175 76.4382H43.7282V81.4994H42.0914C40.713 81.4994 39.6936 81.8297 39.0259 82.4973C38.3583 83.165 38.028 84.2059 38.028 85.6346V95.3981H33.0386V95.3909Z" fill="white"/>
<path d="M57.67 89.5469H60.9796C60.4555 91.5427 59.4576 93.0646 57.9859 94.1056C56.5142 95.1968 54.662 95.7424 52.4293 95.7424C49.7228 95.7424 47.605 94.8666 46.083 93.1077C44.561 91.3991 43.8 88.951 43.8 85.7635C43.8 82.576 44.5323 80.3505 46.0112 78.6347C47.5332 76.8758 49.6438 76 52.3575 76C55.2076 76 57.4187 76.8543 58.9838 78.5629C60.5057 80.3218 61.2667 82.7699 61.2667 85.9071V86.6896C61.2667 86.9265 61.2452 87.0917 61.1949 87.185H48.8613C48.9044 88.6567 49.2633 89.7551 49.931 90.4658C50.5484 91.2268 51.4745 91.6073 52.7093 91.6073C53.5133 91.6073 54.2025 91.435 54.7768 91.1048C55.1932 90.8679 56.0404 90.1284 56.3491 89.8915C56.6578 89.6546 57.0957 89.5325 57.67 89.5325V89.5469ZM48.8613 83.9903H56.1337C56.0404 82.7052 55.7029 81.7576 55.1358 81.1402C54.5184 80.4726 53.6425 80.1423 52.5011 80.1423C51.4529 80.1423 50.5986 80.4726 49.9381 81.1402C49.2705 81.8079 48.9187 82.7555 48.8685 83.9903H48.8613Z" fill="white"/>
<path d="M75.6976 89.5469H79.0071C78.4831 91.5427 77.4852 93.0646 76.0135 94.1056C74.5418 95.1968 72.6896 95.7424 70.4569 95.7424C67.7504 95.7424 65.6325 94.8666 64.1106 93.1077C62.5886 91.3991 61.8276 88.951 61.8276 85.7635C61.8276 82.576 62.5599 80.3505 64.0388 78.6347C65.5607 76.8758 67.6714 76 70.3851 76C73.2352 76 75.4463 76.8543 77.0114 78.5629C78.5333 80.3218 79.2943 82.7699 79.2943 85.9071V86.6896C79.2943 86.9265 79.2728 87.0917 79.2225 87.185H66.8889C66.932 88.6567 67.2909 89.7551 67.9586 90.4658C68.576 91.2268 69.5021 91.6073 70.7369 91.6073C71.5409 91.6073 72.2301 91.435 72.8044 91.1048C73.2208 90.8679 74.0679 90.1284 74.3766 89.8915C74.6853 89.6546 75.1233 89.5325 75.6976 89.5325V89.5469ZM66.8889 83.9903H74.1613C74.0679 82.7052 73.7305 81.7576 73.1634 81.1402C72.546 80.4726 71.6701 80.1423 70.5287 80.1423C69.4805 80.1423 68.6262 80.4726 67.9657 81.1402C67.2981 81.8079 66.9463 82.7555 66.8961 83.9903H66.8889Z" fill="white"/>
<path d="M96.6595 95.391H94.1612C93.4504 95.391 92.8689 95.1685 92.4166 94.7162C91.9644 94.2639 91.7418 93.6824 91.7418 92.9717V83.2799C91.7418 82.1385 91.3972 81.3057 90.708 80.7816C90.0188 80.2576 89.2435 79.9991 88.3892 79.9991C87.5349 79.9991 86.7739 80.2576 86.1062 80.7816C85.4386 81.3057 85.1083 82.1385 85.1083 83.2799V95.3982H80.1189V84.2778C80.1189 81.0473 80.9589 78.8864 82.6459 77.7951C84.333 76.7039 86.1996 76.1081 88.2384 76.0147C90.3275 76.0147 92.2515 76.5603 94.0104 77.6516C95.7693 78.7428 96.6451 80.9539 96.6451 84.2778V95.3982L96.6595 95.391Z" fill="white"/>
<path d="M116.94 95.3911H111.951L109.029 81.8514L106.107 95.3911H101.118L95.9128 76.4312H100.759L103.752 89.5473L106.459 76.4312H111.52L114.083 89.5473L116.718 78.1398C117.005 76.9983 117.759 76.4312 119.001 76.4312H122.138L116.933 95.3911H116.94Z" fill="white"/>
<path d="M133.754 94.608C132.756 95.1321 131.701 95.4479 130.581 95.57C129.461 95.692 128.477 95.7495 127.623 95.7495C125.914 95.7495 124.414 95.29 123.136 94.3567C121.851 93.4306 121.212 91.9015 121.212 89.7621C121.212 87.7663 121.794 86.3377 122.957 85.4834C124.12 84.6291 125.606 84.0476 127.415 83.7748C127.81 83.7173 127.982 83.6886 128.319 83.6384C128.714 83.5809 128.966 83.545 129.411 83.4876C131.507 83.2292 132.548 82.583 132.548 81.6354C132.548 80.9247 132.182 80.458 131.442 80.2427C130.703 80.0273 130.028 79.9196 129.411 79.9196C128.743 79.9196 128.154 80.0129 127.63 80.2068C127.106 80.4006 126.726 80.7524 126.489 81.2764H121.715C121.901 79.8047 122.569 78.5915 123.71 77.6438C124.996 76.5526 126.819 76.007 129.195 76.007C131.859 76.007 133.854 76.4593 135.183 77.3639C136.561 78.3115 137.25 79.6468 137.25 81.3554V87.8453C137.25 89.7478 136.906 91.2338 136.216 92.3035C135.527 93.3732 134.709 94.1485 133.761 94.6223L133.754 94.608ZM132.613 85.8423C131.945 86.1726 131.019 86.4813 129.834 86.7684L128.197 87.1274C127.343 87.3643 126.769 87.5222 126.345 88.0535C125.979 88.5058 125.843 89.1016 125.843 89.6185C125.843 90.3293 126.058 90.9036 126.482 91.3271C126.912 91.7076 127.53 91.8943 128.334 91.8943C129.662 91.8943 130.71 91.5138 131.471 90.7528C132.232 89.9918 132.613 88.9509 132.613 87.6156V85.8352V85.8423Z" fill="white"/>
<path d="M139.627 102.089V98.1694H140.984C141.931 98.1694 142.678 97.9468 143.231 97.4946C143.776 97.0423 143.884 96.3172 143.554 95.3193L136.927 76.4312H142.412L146.26 89.8273L149.613 78.1398C149.9 76.9983 150.661 76.4312 151.896 76.4312H155.32L148.048 98.0258C147.481 99.5908 146.763 100.711 145.909 101.378C145.054 101.946 143.654 102.233 141.702 102.233H140.704C140.56 102.182 140.381 102.147 140.172 102.125C139.957 102.096 139.778 102.089 139.634 102.089H139.627Z" fill="white"/>
<path d="M31.7897 84.7585V76H29.2914C28.5807 76 27.9992 76.2226 27.5469 76.6748C27.3531 76.8687 27.2023 77.0912 27.0874 77.3425C26.2331 76.5959 25.1706 76 22.5503 76C19.5566 76 17.3813 76.9189 16.0317 78.7424C14.6748 80.5731 14 82.9637 14 85.9071C14 88.427 14.5097 90.4586 15.5291 92.0021C16.5486 93.5456 17.7762 94.601 19.1976 95.1753C20.095 95.5342 20.9996 95.7137 21.9042 95.7137C21.9472 95.7137 21.9903 95.7209 22.0406 95.7209C24.5389 95.7209 26.1039 94.9743 26.9582 94.3641C26.8792 95.5773 26.75 96.5752 26.3552 97.3003C26.0967 97.7598 25.465 99.253 23.0528 99.253C22.2488 99.253 21.5596 99.0807 20.9852 98.7648C20.5688 98.5351 19.7217 97.8172 19.413 97.5875C19.1043 97.3577 18.6664 97.2429 18.0921 97.2429H14.7825C14.7825 97.2429 14.7969 97.2788 14.8041 97.3003C15.8666 101.349 18.8172 103.625 23.1677 103.625C25.4506 103.625 27.2526 103.036 28.8966 101.766C30.7129 100.359 31.8184 98.0685 31.8184 94.7446V85.7133C31.8184 85.383 31.8041 85.06 31.7897 84.7513V84.7585ZM18.853 86.0507C18.853 84.5287 19.1402 83.1791 19.7074 81.9873C20.2745 80.8028 21.3729 80.2069 22.9882 80.2069C24.1727 80.2069 25.0773 80.6377 25.6947 81.492C26.3121 82.3463 26.707 83.3227 26.8721 84.4139C27.0372 85.5051 27.0228 86.6107 26.8362 87.7306C26.6423 88.8434 26.3336 89.6689 25.9101 90.1858C25.0055 91.4206 23.6056 91.8586 21.7031 91.5068C19.8007 91.1478 18.853 89.3315 18.853 86.0507Z" fill="white"/>
</svg>
