<svg width="142" height="35" viewBox="0 0 142 35" fill="none" xmlns="http://www.w3.org/2000/svg">
<path d="M16.3047 0.859375H51.3218C55.1861 0.859375 58.3238 3.99708 58.3238 7.86145V27.1967C58.3238 31.061 55.1861 34.1988 51.3218 34.1988H17.0347C7.63162 34.1988 0 26.5638 0 17.1641C0 8.16618 7.3068 0.859375 16.3047 0.859375Z" fill="white"/>
<path d="M41.4465 11.3499C42.6922 11.3499 43.7035 10.3386 43.7035 9.09294C43.7035 7.84724 42.6922 6.83594 41.4465 6.83594H17.0279C17.0279 6.83594 17.0279 6.83594 17.0246 6.83594H16.8505C16.7634 6.83594 16.6797 6.84263 16.596 6.85268C10.4277 7.14067 6.5332 11.9058 6.5332 17.3039C6.5332 22.7019 10.7927 27.2561 16.1807 27.6077V27.6178L24.8136 27.6412C24.827 27.6412 24.8404 27.6412 24.8538 27.6412C24.8571 27.6412 24.8638 27.6412 24.8672 27.6412C26.0895 27.6781 27.0907 26.7003 27.0907 25.488V17.411C27.0907 16.2424 26.143 15.2947 24.9743 15.2947H24.0568V15.2746H16.9777C15.732 15.2746 14.7207 16.2859 14.7207 17.5316C14.7207 18.7773 15.732 19.7886 16.9777 19.7886H22.7776V23.3348H16.3046C13.1267 23.0803 10.6856 20.4684 10.6856 17.3374C10.6856 14.2064 13.4482 11.4605 16.6361 11.3432C16.7065 11.3466 16.7768 11.3533 16.8505 11.3533H31.1024V25.7024C31.1024 26.9481 32.1137 27.9594 33.3594 27.9594C34.6051 27.9594 35.6164 26.9481 35.6164 25.7024V11.3499H41.4465Z" fill="#18181B"/>
<path d="M51.2209 23.5089L44.8216 17.1096L51.1841 10.7471C52.0581 9.87313 52.1452 8.4399 51.2979 7.53911C50.4206 6.60818 48.9572 6.59144 48.0598 7.48888L40.177 15.3717C39.2059 16.3428 39.2092 17.9166 40.1871 18.8844L41.6236 20.3076L41.6303 20.3009L48.0966 26.7672C48.9941 27.6646 50.4608 27.6479 51.3348 26.717C52.182 25.8162 52.0916 24.3829 51.2209 23.5089Z" fill="#18181B"/>
<path d="M83.7718 23.4057H73.2235L71.144 28.288H67.1055L76.599 7.19141H80.4566L89.9802 28.288H85.8815L83.7718 23.4057ZM82.4759 20.3316L78.4977 11.1094L74.5496 20.3316H82.4759Z" fill="#F8FBFF"/>
<path d="M106.76 23.7683C106.76 25.215 106.218 26.3301 105.133 27.1136C104.048 27.8972 102.441 28.289 100.311 28.289H92.1133V12.1953H99.9793C101.948 12.1953 103.485 12.557 104.59 13.2803C105.695 14.0036 106.248 15.0283 106.248 16.3544C106.248 17.1781 106.034 17.8914 105.602 18.4942C105.17 19.0969 104.564 19.5691 103.777 19.9107C105.766 20.5134 106.76 21.7993 106.76 23.7683ZM95.6997 18.9161H99.6478C101.597 18.9161 102.571 18.243 102.571 16.8968C102.571 15.5507 101.597 14.9379 99.6478 14.9379H95.6997V18.9161ZM103.114 23.5272C103.114 22.824 102.873 22.2983 102.39 21.9466C101.908 21.595 101.155 21.4176 100.13 21.4176H95.6997V25.5465H100.009C102.079 25.5465 103.114 24.8734 103.114 23.5272Z" fill="#F8FBFF"/>
<path d="M123.924 15.3548H118.288V28.2539H114.52V15.3548H108.854V12.1602H123.924V15.3548Z" fill="#F8FBFF"/>
<path d="M129.01 27.4449C127.704 26.7417 126.682 25.7639 125.952 24.5081C125.219 23.2524 124.851 21.8325 124.851 20.2453C124.851 18.658 125.216 17.2415 125.952 15.9958C126.686 14.7501 127.704 13.7756 129.01 13.0724C130.316 12.3692 131.782 12.0176 133.41 12.0176C135.037 12.0176 136.534 12.3692 137.84 13.0724C139.146 13.7756 140.164 14.7501 140.897 15.9958C141.631 17.2415 141.999 18.658 141.999 20.2453C141.999 21.8325 141.631 23.2557 140.897 24.5081C140.164 25.7639 139.143 26.745 137.84 27.4449C136.534 28.1481 135.057 28.4997 133.41 28.4997C131.762 28.4997 130.316 28.1481 129.01 27.4449ZM136.846 23.8886C137.75 22.9644 138.202 21.7488 138.202 20.2419C138.202 18.735 137.75 17.5194 136.846 16.5952C135.941 15.671 134.796 15.2089 133.41 15.2089C132.023 15.2089 130.882 15.671 129.987 16.5952C129.093 17.5194 128.648 18.735 128.648 20.2419C128.648 21.7488 129.093 22.9644 129.987 23.8886C130.882 24.8129 132.023 25.275 133.41 25.275C134.796 25.275 135.941 24.8129 136.846 23.8886Z" fill="#F8FBFF"/>
</svg>
