<svg width="146" height="21" viewBox="0 0 146 21" fill="none" xmlns="http://www.w3.org/2000/svg">
<path d="M19.8301 10.1835C19.8301 4.54759 24.4796 0 30.3009 0C36.1613 0 40.8105 4.54759 40.8105 10.1835C40.8105 15.7802 36.1613 20.4055 30.3009 20.4055C24.4796 20.4055 19.8301 15.7414 19.8301 10.1835ZM35.8097 10.1835C35.8097 7.38524 33.3482 4.89712 30.3009 4.89712C27.2924 4.89712 24.8703 7.38524 24.8703 10.1835C24.8703 13.0208 27.3315 15.5084 30.3009 15.5084C33.3482 15.5084 35.8097 13.0208 35.8097 10.1835Z" fill="white"/>
<path d="M125.02 10.3385C125.02 4.15865 130.079 0 134.666 0C137.804 0 139.608 0.932644 140.823 2.75997L141.294 0.350109H146V20.0171H141.294L140.705 17.9956C139.333 19.4728 137.607 20.4055 134.706 20.4055C130.118 20.4055 125.02 16.441 125.02 10.3385ZM141.02 10.2997C141.02 7.30757 138.548 4.89712 135.49 4.89712C132.471 4.89712 130.039 7.34641 130.039 10.3782C130.039 13.0985 132.51 15.5472 135.49 15.5472C138.588 15.5084 141.02 13.0597 141.02 10.2997Z" fill="white"/>
<path d="M119.38 2.75151V0.496981H114.387V19.8305H119.38V9.39916C119.38 6.2663 120.905 4.62323 123.61 4.62323C123.801 4.62323 123.954 4.62323 124.106 4.66148L125.021 0C122.429 0.0382519 120.561 0.916879 119.38 2.75151Z" fill="white"/>
<path d="M68.3734 2.75151V0.496981H63.2275L63.267 19.8305H68.4134L68.3734 9.39916C68.3734 6.2663 69.945 4.62323 72.6953 4.62323C72.8915 4.62323 73.0483 4.62323 73.2063 4.66148L74.1489 0C71.4771 0.0382519 69.5525 0.916879 68.3734 2.75151Z" fill="white"/>
<path d="M42.8232 12.3271V0.287109H47.8483V11.7054C47.8483 14.2298 49.2294 15.7055 51.646 15.7055C54.3312 15.7055 55.9042 14.0359 55.9042 10.8513V0.287109H60.9292V19.9387H55.9042V17.6479C54.7149 19.5117 52.7971 20.405 50.1501 20.405C45.6235 20.4438 42.8232 17.1428 42.8232 12.3271Z" fill="white"/>
<path d="M92.2559 10.1644C92.2559 4.65529 96.2332 -0.0385966 102.471 0.000239282C108.28 0.000239282 112.374 4.65529 112.374 10.0862C112.374 10.6296 112.335 11.2116 112.257 11.7161L97.2467 11.6773C97.8319 14.0436 99.7807 15.7115 102.705 15.7504C104.498 15.7504 106.409 15.0908 107.579 13.6165L111.049 16.41C109.255 18.9311 106.097 20.4054 102.744 20.4054C96.8175 20.3281 92.2559 15.9054 92.2559 10.1644ZM107.267 8.14701C106.993 6.16814 104.889 4.61645 102.471 4.61645C100.093 4.61645 98.1823 6.01309 97.4415 8.10818L107.267 8.14701Z" fill="white"/>
<path d="M74.1494 15.768L78.6818 13.4106C79.4241 15.0336 80.9477 15.961 83.0571 15.961C85.0109 15.961 85.7535 15.3425 85.7535 14.4925C85.7535 11.362 74.9699 13.2562 74.9699 6.06746C74.9699 2.08722 78.4865 0 82.823 0C86.1047 0 89.0349 1.42992 90.6369 4.13558L86.1436 6.4929C85.4801 5.1789 84.2295 4.44452 82.6276 4.44452C81.0648 4.44452 80.3226 4.98589 80.3226 5.87444C80.3226 8.92759 91.1061 6.99484 91.1061 14.2995C91.1061 18.0867 87.9805 20.4055 82.94 20.4055C78.6427 20.3669 75.6342 18.9756 74.1494 15.768Z" fill="white"/>
<path d="M0 10.0784C0 4.48336 4.61058 0 10.3835 0C14.1029 0 17.3188 1.83989 19.1785 4.59811L14.8391 7.08945C13.8316 5.71005 12.2432 4.79054 10.3835 4.79054C7.40014 4.79054 4.998 7.24275 4.998 10.0401C4.998 12.8369 7.43882 15.2891 10.3835 15.2891C12.3206 15.2891 14.0254 14.2931 14.9553 12.7986L19.2559 15.3273C17.435 18.2015 14.1416 20.1179 10.3835 20.1179C4.61058 20.1561 0 15.558 0 10.0784Z" fill="white"/>
</svg>
