<svg width="169" height="169" viewBox="0 0 169 169" fill="none" xmlns="http://www.w3.org/2000/svg">
<g clip-path="url(#clip0_1_900)">
<path d="M34.3422 92.0734C34.1031 92.3131 33.8844 92.5571 33.6398 92.774C32.3448 93.9226 30.8583 94.7773 29.2369 95.4209C27.812 95.9863 26.3329 96.3617 24.8154 96.6094C22.7608 96.9448 20.6914 97.0112 18.6158 96.9237C16.6046 96.8388 14.6208 96.5655 12.6854 96.0111C11.0159 95.5332 9.43876 94.862 8.00624 93.8963C6.15613 92.6494 4.73277 91.059 3.85007 89.04C3.23504 87.6341 2.94493 86.1654 3.00927 84.6412C3.08275 82.9 3.62253 81.2892 4.54684 79.7974C5.6987 77.9383 7.29618 76.5223 9.22686 75.4439C10.8264 74.5504 12.5464 73.9604 14.3457 73.5762C15.6549 73.2966 16.9803 73.1333 18.3189 73.0566C19.4168 72.9936 20.5143 72.9808 21.6119 73.0361C23.0155 73.1071 24.4064 73.2818 25.7837 73.5559C25.9472 73.5884 26.1116 73.6195 26.2733 73.6588C26.4436 73.7004 26.6029 73.7697 26.7419 73.8754C27.0223 74.0886 27.0881 74.3759 26.919 74.6806C26.868 74.7727 26.7998 74.857 26.7319 74.9388C25.1666 76.8253 23.6066 78.7155 22.0965 80.6436C20.5187 82.6581 19.0806 84.7612 17.7853 86.9552C17.6089 87.2542 17.5369 87.5665 17.6168 87.9065C17.7104 88.3041 17.9978 88.5378 18.4181 88.5555C18.4836 88.5584 18.5491 88.5567 18.6146 88.5567C23.5856 88.5567 28.5566 88.5555 33.5279 88.5612C33.7201 88.5615 33.8257 88.5071 33.9237 88.3483C34.5449 87.3405 34.8699 86.2572 34.8678 85.0818C34.866 83.9871 34.7447 82.9089 34.4112 81.8583C33.9694 80.4666 33.1986 79.267 32.145 78.2321C31.1203 77.2252 29.9263 76.4423 28.6464 75.7745C28.3332 75.6112 28.0121 75.4618 27.6955 75.3048C27.6314 75.2731 27.5574 75.2577 27.5031 75.1936C27.7241 74.8912 27.949 74.5891 28.1665 74.2819C28.227 74.1964 28.2848 74.2095 28.3692 74.2383C29.8673 74.7462 31.2726 75.4256 32.5523 76.3382C34.055 77.4102 35.2807 78.7186 36.1575 80.3184C37.0396 81.9281 37.4938 83.6391 37.397 85.4677C37.3173 86.972 36.8773 88.3817 36.1442 89.7078C35.9488 90.0609 35.7381 90.4047 35.494 90.7301C35.2089 91.1101 34.835 91.2654 34.351 91.2634C32.1896 91.2537 30.0278 91.2591 27.8661 91.2591C24.911 91.2591 21.956 91.26 19.0012 91.2586C18.259 91.2583 17.5174 91.2948 16.7751 91.2751C16.025 91.2551 15.2786 91.2061 14.5547 90.9915C13.9119 90.8011 13.3329 90.5027 12.8554 90.039C12.4062 89.6029 12.1657 89.0722 12.1149 88.4612C12.0535 87.725 12.186 87.021 12.4924 86.345C12.8176 85.6273 13.2322 84.9598 13.7003 84.3225C15.94 81.274 18.2156 78.2504 20.5952 75.3011C20.6846 75.1902 20.772 75.0771 20.8705 74.9742C21.1096 74.7245 20.9986 74.3825 20.6046 74.297C20.5556 74.2864 20.5034 74.2861 20.4526 74.287C18.0058 74.3343 15.6165 74.6872 13.3278 75.5579C11.54 76.2382 9.93603 77.1972 8.59324 78.5368C7.20204 79.9248 6.23759 81.5411 5.81261 83.4427C5.59334 84.4246 5.59187 85.4098 5.75389 86.3966C6.04074 88.1422 6.76526 89.7007 7.93276 91.0639C8.89249 92.1843 10.0612 93.0538 11.3895 93.7282C12.778 94.4333 14.2557 94.8862 15.793 95.1649C17.6537 95.5024 19.531 95.597 21.4203 95.5123C23.2737 95.4294 25.094 95.1626 26.8662 94.6214C28.2683 94.1933 29.5913 93.6073 30.7919 92.7785C31.0702 92.5864 31.3396 92.3829 31.594 92.1615C31.6654 92.0993 31.7348 92.0535 31.8425 92.0543C32.6576 92.0594 33.4727 92.0572 34.2879 92.0577C34.3014 92.0577 34.3141 92.0649 34.3422 92.0734Z" fill="white"/>
<path d="M164.861 88.5242C164.474 87.1333 163.51 86.2178 162.163 85.6595C161.504 85.3862 160.807 85.2901 160.09 85.2907C155.703 85.2941 151.316 85.293 146.929 85.2916C146.599 85.2916 146.553 85.3765 146.657 84.9461C146.864 84.0871 147.352 83.4028 148.097 82.8963C148.591 82.5603 149.139 82.3913 149.755 82.393C152.814 82.4015 155.873 82.397 158.933 82.397C160.349 82.397 161.766 82.3973 163.182 82.3967C163.442 82.3967 163.447 82.3947 163.443 82.1544C163.431 81.3758 163.41 80.5974 163.402 79.8191C163.401 79.6728 163.359 79.6047 163.202 79.6255C163.163 79.6307 163.124 79.6261 163.084 79.6261C158.343 79.6261 153.601 79.6253 148.86 79.6275C148.319 79.6278 147.781 79.6726 147.247 79.768C143.405 80.4549 140.51 83.6604 140.329 87.4306C140.307 87.878 140.464 88.0448 140.922 88.0459C141.551 88.0473 142.181 88.0431 142.81 88.0405C145.81 88.0282 148.81 88.014 151.81 88.0034C153.629 87.9972 155.449 87.9977 157.269 87.992C157.77 87.9903 158.189 88.1725 158.534 88.511C159.119 89.0845 159.114 89.9318 158.529 90.5044C158.123 90.9011 157.621 91.0348 157.054 91.0345C151.132 91.0305 145.21 91.0323 139.289 91.0317C138.882 91.0317 138.93 91.0744 138.93 90.6805C138.929 87.1276 138.929 83.5744 138.929 80.0214C138.929 79.9453 138.925 79.8692 138.93 79.7934C138.937 79.6828 138.887 79.6381 138.775 79.6458C138.706 79.6503 138.637 79.6463 138.568 79.6463C137.014 79.6463 135.46 79.6458 133.906 79.6466C133.487 79.6469 133.545 79.6087 133.544 79.9949C133.543 83.567 133.544 87.139 133.543 90.711C133.543 90.7871 133.539 90.8632 133.544 90.9391C133.551 91.0414 133.499 91.0742 133.402 91.0662C133.363 91.063 133.324 91.0659 133.284 91.0659C130.058 91.0659 126.831 91.0662 123.605 91.0653C123.16 91.0653 122.72 91.0154 122.295 90.8889C121.347 90.6076 120.767 89.994 120.544 89.0628C120.453 88.6812 120.431 88.2927 120.431 87.9025C120.431 85.2331 120.432 82.5634 120.43 79.894C120.43 79.5315 120.473 79.5731 120.103 79.5728C117.339 79.5717 114.575 79.5742 111.811 79.5685C111.602 79.5682 111.434 79.6173 111.265 79.7324C110.357 80.3503 109.451 80.9691 108.497 81.5226C106.939 82.4272 105.39 83.3466 103.835 84.2575C103.526 84.4391 103.622 84.428 103.357 84.2433C101.219 82.7558 99.0814 81.2675 96.9482 79.7735C96.7794 79.6552 96.6145 79.6076 96.4076 79.6076C89.6496 79.6119 82.8917 79.611 76.1334 79.611C75.4936 79.611 74.8562 79.6421 74.2202 79.7145C72.224 79.941 70.4412 80.6302 68.9316 81.9401C67.9586 82.7843 67.0936 83.7097 66.4771 84.8327C66.1808 85.3719 65.9426 85.9328 65.8789 86.5482C65.8529 86.797 65.8574 86.7996 66.1147 86.7998C67.1476 86.8007 68.1805 86.7996 69.2135 86.8015C69.2846 86.8015 69.3637 86.7799 69.4463 86.8369C69.3569 86.907 69.2822 86.9666 69.2061 87.025C67.9182 88.0137 66.9136 89.2096 66.3425 90.7145C66.2708 90.9034 66.1501 90.8909 66.0017 90.8906C62.0866 90.8897 58.1715 90.8906 54.2562 90.8892C53.6264 90.8889 53.0223 90.7609 52.4704 90.4676C51.3885 89.8925 50.7738 89.0443 50.7809 87.8054C50.7959 85.155 50.7856 82.5044 50.7853 79.8538C50.7853 79.7777 50.7847 79.7019 50.7844 79.6258C50.7841 79.5591 50.754 79.5189 50.6805 79.5184C50.6117 79.5178 50.5427 79.5167 50.4739 79.5167C48.9098 79.5167 47.3457 79.5167 45.7818 79.5167C45.7325 79.5167 45.6832 79.5189 45.6343 79.5164C45.5274 79.5107 45.4643 79.5457 45.4746 79.6614C45.4787 79.7085 45.4752 79.7564 45.4752 79.804C45.4752 82.6541 45.466 85.5039 45.4796 88.354C45.4849 89.5072 45.8881 90.5286 46.6976 91.3908C47.4354 92.1763 48.3526 92.6939 49.3705 93.0584C50.7711 93.5603 52.2293 93.7376 53.7132 93.7379C66.993 93.7404 80.2731 93.739 93.5532 93.7424C93.7495 93.7424 93.9079 93.6954 94.07 93.5871C94.8697 93.0518 95.6627 92.5075 96.5003 92.0261C98.1727 91.0653 99.8413 90.0988 101.503 89.1215C101.707 89.0015 101.832 89.0164 102.018 89.1441C104.158 90.6124 106.305 92.0708 108.447 93.5358C108.59 93.633 108.728 93.6834 108.906 93.6829C111.346 93.6774 113.785 93.6797 116.225 93.6774C116.297 93.6774 116.378 93.7079 116.464 93.629C113.03 91.1625 109.604 88.702 106.143 86.2156C109.089 84.4417 111.879 82.5141 114.938 80.9751C114.978 81.0905 114.963 81.1942 114.963 81.2948C114.964 83.6792 114.961 86.0639 114.965 88.4483C114.966 89.0563 114.996 89.6625 115.116 90.2624C115.373 91.537 116.097 92.4567 117.323 93.0005C117.645 93.1433 117.976 93.2605 118.318 93.352C119.579 93.6897 120.872 93.7952 122.171 93.7989C125.506 93.808 128.84 93.8023 132.174 93.7718C134.151 93.7538 136.128 93.7598 138.105 93.7553C140.603 93.7496 143.101 93.7444 145.6 93.739C149.584 93.7302 153.567 93.7219 157.551 93.7125C158.505 93.7102 159.459 93.7031 160.413 93.7017C161.008 93.7008 161.586 93.6045 162.146 93.4095C164.478 92.5995 165.371 90.3551 164.861 88.5242ZM96.9131 88.3834C95.6099 89.1634 94.3049 89.9407 93.0049 90.7259C92.8381 90.8268 92.6737 90.8667 92.4798 90.8667C86.1643 90.8635 79.8487 90.8641 73.5331 90.8641C73.184 90.8641 73.1929 90.865 73.251 90.5395C73.4644 89.3407 74.901 87.9288 76.5357 87.9367C80.4212 87.9553 84.3071 87.9427 88.1929 87.9427C88.2717 87.9427 88.3502 87.943 88.429 87.9427C88.7082 87.9416 88.6834 87.963 88.6834 87.6979C88.6837 86.8905 88.6837 86.0827 88.6834 85.2753C88.6834 84.9926 88.7026 85.0239 88.4066 85.0234C87.7966 85.0222 87.1869 85.0231 86.5769 85.0231C82.1796 85.0231 77.7823 85.0231 73.385 85.0231C73.0122 85.0231 72.9972 85.0034 73.0807 84.6571C73.1329 84.4408 73.2386 84.2484 73.3637 84.0657C73.7397 83.5159 74.232 83.087 74.829 82.7715C75.1888 82.5814 75.5706 82.4916 75.9868 82.4922C80.5021 82.4976 85.0174 82.4959 89.5328 82.4953C89.9524 82.4953 89.8916 82.5264 89.8949 82.1465C89.8975 81.8329 89.8934 81.5194 89.8969 81.2059C89.8978 81.1344 89.8725 81.0569 89.9439 80.9637C92.9488 83.0212 95.9502 85.0767 98.9746 87.1476C98.2639 87.5731 97.5887 87.9786 96.9131 88.3834Z" fill="white"/>
</g>
<defs>
<clipPath id="clip0_1_900">
<rect width="162" height="23.9577" fill="white" transform="translate(3 72.9999)"/>
</clipPath>
</defs>
</svg>
