<svg width="169" height="169" viewBox="0 0 169 169" fill="none" xmlns="http://www.w3.org/2000/svg">
<path fill-rule="evenodd" clip-rule="evenodd" d="M13 84.9973C13 77.2727 19.2566 71.0069 26.9789 71V76.0576C22.0479 76.0645 18.0554 80.0642 18.0554 84.9973C18.0554 89.9374 22.0583 93.9423 26.998 93.9423C31.9048 93.9423 35.937 89.9754 35.937 84.9645L40.9942 84.9697C40.9942 92.7306 34.7306 98.9999 26.998 98.9999C19.2636 98.9999 13 92.7306 13 84.9973" fill="white"/>
<path fill-rule="evenodd" clip-rule="evenodd" d="M20.9927 85.2087C20.9927 81.7794 23.7753 79 27.2009 79C30.6283 79 33.4109 81.7794 33.4109 85.2087C33.4109 88.6398 30.6283 91.4175 27.2009 91.4175C23.7753 91.4175 20.9927 88.6398 20.9927 85.2087" fill="white"/>
<path fill-rule="evenodd" clip-rule="evenodd" d="M30.9839 77.559C30.9839 75.5919 32.5774 74 34.5408 74C36.5094 74 38.1013 75.5919 38.1013 77.559C38.1013 79.5243 36.5094 81.1197 34.5408 81.1197C32.5774 81.1197 30.9839 79.5243 30.9839 77.559" fill="white"/>
<path fill-rule="evenodd" clip-rule="evenodd" d="M140.696 80.5539L140.264 82.6782C139.249 87.2985 138.872 88.7867 137.993 93.3811L137.797 93.547L134.997 93.6282L134.859 93.4381L135.988 88.7055L136.318 87.155C135.115 87.1291 133.91 87.1084 132.707 87.1084C131.767 87.1084 131.052 87.1187 130.321 87.1395C129.907 89.0011 129.564 90.6379 129.036 93.3811L128.841 93.547L126.036 93.6282L125.899 93.4381L127.026 88.7055L127.47 86.6434C128.21 83.3973 128.348 82.6834 128.789 79.6862L128.983 79.4961C130.27 79.3284 130.575 79.2748 131.893 79L132.035 79.1901L131.736 80.5539L131.309 82.6782L130.862 84.6885C131.871 84.7144 132.882 84.73 133.898 84.73C134.97 84.73 135.675 84.7092 136.868 84.6867C137.253 82.9271 137.409 81.9661 137.746 79.6862L137.939 79.4961C139.23 79.3284 139.531 79.2748 140.853 79L140.99 79.1901L140.696 80.5539" fill="white"/>
<path fill-rule="evenodd" clip-rule="evenodd" d="M110.107 87.7225C109.499 90.1044 107.81 94.2199 102.618 94.2199C98.944 94.2199 96.9253 92.3134 96.9253 88.5539C96.9253 88.0682 96.9633 87.5272 97.0445 86.9602C97.0636 86.8185 97.0826 86.6837 97.1016 86.5385C98.1023 80.3107 100.802 74.4079 106.723 74.3492C107.511 74.3388 109.114 74.2575 110.203 74L109.807 76.4873C108.709 76.769 106.972 76.916 105.959 76.9212C104.701 76.935 103.832 77.4138 103.229 77.9911C102.93 78.2763 102.696 78.5909 102.518 78.8761C102.34 79.1596 102.209 79.4188 102.114 79.6141C102.905 79.367 103.771 79.2114 104.746 79.2114C108.364 79.2114 110.521 81.2303 110.521 84.7927C110.521 85.7607 110.356 86.7546 110.107 87.7225ZM107.301 86.6349C107.494 85.8346 107.631 85.036 107.631 84.2617C107.631 81.4702 105.835 81 104.813 81C100.475 81 99.9222 87.7411 99.9222 88.7627C99.9222 90.9751 101.248 91.9414 102.743 91.9414C105.698 91.9414 106.803 88.9044 107.301 86.6349Z" fill="white"/>
<path fill-rule="evenodd" clip-rule="evenodd" d="M145.767 85.0411C146.426 84.469 146.808 84.1094 147.713 83.2331C148.674 82.298 151.013 79.8781 151.452 79.4097L151.754 79.2472H154.919L155 79.4961C154.725 79.7415 154.585 79.8521 153.484 80.7855C153.043 81.1468 152.774 81.4199 152.252 81.8866L148.674 85.1863L152.938 93.3016L152.774 93.5176L149.72 93.604L149.499 93.4381C148.783 91.7304 148.593 91.3501 147.604 89.3381L145.679 85.4335C145.072 88.1385 144.699 89.8428 144.018 93.3811L143.828 93.547L141.021 93.6282L140.886 93.4381L142.013 88.7055L142.454 86.6434C143.194 83.3973 143.332 82.6834 143.771 79.6862L143.964 79.4961C145.259 79.3284 145.558 79.2748 146.88 79L147.018 79.1901L146.723 80.5539L146.293 82.6782L145.767 85.0411" fill="white"/>
<path fill-rule="evenodd" clip-rule="evenodd" d="M126.748 79.2472L126.61 79.0259L122.796 79C120.255 79 116.693 79.1642 114.121 82.1752C112.961 83.5511 111.912 85.9226 111.912 88.0988C111.912 91.5437 114.206 93.5332 117.023 93.5332C119.368 93.5332 120.588 92.5116 121.057 92.1279L120.863 93.229L121 93.426L123.596 93.369L123.793 93.1754C124.342 89.8895 124.539 88.8455 125.506 84.5969L126.748 79.2472ZM121.455 89.9311C121.152 90.1731 120.85 90.4549 120.544 90.6433C119.828 91.084 118.888 91.2794 118.143 91.2794C115.627 91.2794 114.909 89.1568 114.909 87.8345C114.909 87.6979 114.965 84.1389 117.865 82.1581C119.496 81.0553 121.292 81 122.203 81C122.618 81 123.029 81.0259 123.446 81.0259L121.455 89.9311Z" fill="white"/>
<path fill-rule="evenodd" clip-rule="evenodd" d="M53.9665 90.9181C56.0716 90.9181 57.0551 88.7246 57.6945 85.902C58.1439 83.9142 58.6313 81 56.0941 81C53.9302 81 52.9727 83.0759 52.3349 85.902C51.7386 88.5241 51.6038 90.9181 53.9665 90.9181ZM53.0458 93.9713C50.0506 93.9713 45.7383 93.0206 47.3008 86.1014C47.885 83.5035 49.679 78 57.0591 78C64.2352 78 63.1671 83.8821 62.7264 85.958C61.4024 91.8072 57.8299 93.9713 53.0458 93.9713Z" fill="white"/>
<path fill-rule="evenodd" clip-rule="evenodd" d="M70.8784 93.3093C69.4923 93.3093 67.216 93.3093 66.2602 93.3387L66.0978 93.1675C66.3622 92.2428 67.0104 89.7641 67.6948 86.7358C68.2461 84.2848 68.737 82.1259 68.9288 81.1424C67.7691 81.1701 65.9837 81.1701 65.1109 81.2012L64.9536 80.9989C65.1835 80.2505 65.5067 78.9559 65.7089 78.178L65.9733 78.0294C66.7442 78.0588 69.6789 78.0882 72.0399 78.0882C74.8951 78.0882 77.6743 78.0294 78.2568 78L78.4538 78.1487C78.2412 78.8349 77.8662 80.2505 77.6743 80.9696L77.4012 81.1424C76.2605 81.1165 75.3946 81.1165 73.7458 81.1165C73.604 81.7456 73.1581 83.5951 72.4167 86.8793C71.8584 89.3631 71.3986 91.6378 71.1308 93.0776L70.8784 93.3093" fill="white"/>
<path fill-rule="evenodd" clip-rule="evenodd" d="M87.075 81.4881C86.1486 81.4881 85.1081 81.5158 84.6449 81.5158C84.5015 82.1518 83.938 84.5164 83.4195 86.8205C82.8059 89.5308 82.2615 92.0699 82.0506 93.133L81.7793 93.3093C80.3672 93.3093 78.5525 93.3093 77.1024 93.3387L76.9434 93.1675C77.2406 91.9818 77.9959 88.7564 78.7218 85.5535C79.4495 82.3281 80.0803 79.1564 80.2843 78.261L80.5262 78.0588C82.0852 78.0588 83.6563 78.1175 87.5192 78.1175C90.5455 78.1175 93.4768 78.0294 95.041 78L95.1723 78.178C94.9701 78.9559 94.1007 82.6721 93.2677 86.359C92.5953 89.332 91.9801 92.2964 91.821 93.133L91.6085 93.3093C90.3692 93.3093 88.093 93.3093 86.9056 93.3387L86.7777 93.133C87.0318 92.127 87.5883 89.7935 88.2416 86.9069C88.7359 84.7169 89.2354 82.3835 89.4325 81.5158C88.9693 81.5158 87.9409 81.4881 87.075 81.4881" fill="white"/>
</svg>
