<svg width="169" height="169" viewBox="0 0 169 169" fill="none" xmlns="http://www.w3.org/2000/svg">
<path fill-rule="evenodd" clip-rule="evenodd" d="M27 67.0088C38.3023 67.0088 49.6047 67.0088 60.907 67.0088C60.907 78.6696 60.907 90.3304 60.907 101.991C57.6985 101.991 54.4929 101.991 51.2872 101.991C51.2872 93.1588 51.2872 84.3234 51.2872 75.491C46.399 75.491 41.5137 75.491 36.6255 75.491C36.617 84.3263 36.6454 93.1646 36.6113 102C33.4085 101.977 30.2057 101.997 27.0028 101.991C27.0028 90.3304 27.0028 78.6696 27.0028 67.0088H27ZM65.7383 67.0088H75.3268C75.3268 73.8418 75.3268 80.6719 75.3268 87.502C80.6335 80.6748 85.906 73.8184 91.2241 67C94.0995 67.0146 96.9749 67.0029 99.8532 67.0058C99.8532 78.6667 99.8589 90.3275 99.8532 101.988C96.6589 101.985 93.4646 101.988 90.2675 101.988V81.495C84.9608 88.3222 79.6855 95.1757 74.3731 101.997C71.4948 101.985 68.6166 101.997 65.7411 101.991C65.7411 90.3333 65.7411 78.6725 65.7411 67.0117L65.7383 67.0088ZM104.684 67.0088C107.893 67.0088 111.099 67.0088 114.307 67.0088C114.307 71.9212 114.304 76.8307 114.307 81.7431C118.293 76.8365 122.242 71.8978 126.239 67.0029C129.997 67.0088 133.755 67.0117 137.512 67.0029C132.878 72.6713 128.22 78.3193 123.577 83.979C129.384 89.9831 135.192 95.9842 141 101.988C136.636 101.988 132.274 101.98 127.91 101.991C123.377 97.2306 118.856 92.4612 114.301 87.7239C114.301 92.4758 114.301 97.2306 114.301 101.985C111.096 101.985 107.887 101.985 104.682 101.985C104.682 90.3246 104.682 78.6637 104.682 67.0029L104.684 67.0088Z" fill="white"/>
</svg>
