<svg width="169" height="169" viewBox="0 0 169 169" fill="none" xmlns="http://www.w3.org/2000/svg">
<g clip-path="url(#clip0_1_905)">
<path fill-rule="evenodd" clip-rule="evenodd" d="M88.8739 72.749H103.459L85.9584 96.249H71.3755L88.8739 72.749Z" fill="white"/>
<path fill-rule="evenodd" clip-rule="evenodd" d="M133.355 64.6713C129.707 61 124.239 61.0039 120.592 61.0019H110.093C109.218 61 108.123 61.0019 107.249 61.8828C106.374 62.7637 106.374 63.8663 106.374 64.7472V66.8745H120.959C121.932 66.8745 123.39 66.8745 124.361 67.8546C125.334 68.8346 125.334 70.3028 125.334 71.2809V85.9681C125.334 86.9482 125.334 88.4163 124.361 89.3964C123.388 90.3745 121.93 90.3745 120.959 90.3745H113.91C112.694 90.3745 111.114 90.3745 110.508 89.0289C109.9 87.6832 110.751 86.4582 111.479 85.4801L120.959 72.751H106.376L100.543 80.5837C99.5664 81.8962 98.7207 83.0319 98.7207 84.5C98.7207 85.9681 99.5084 87.026 100.543 88.4163L102.001 90.3745C103.459 92.3327 104.918 94.2909 106.863 95.2709C108.807 96.249 111.116 96.249 114.277 96.249H120.596C124.241 96.249 129.711 96.249 133.356 92.5777C137.002 88.9064 137.002 83.5219 137.002 81.5618V75.6873C137.002 73.7291 137.002 68.3427 133.356 64.6713H133.355Z" fill="white"/>
<path fill-rule="evenodd" clip-rule="evenodd" d="M74.2912 80.5837L72.8334 78.6255C71.3757 76.6673 69.9161 74.7091 67.9718 73.731C66.0275 72.751 63.7184 72.751 60.5577 72.751H35.7186C34.844 72.751 33.7493 72.751 32.8746 73.6338C32 74.5127 32 75.6134 32 76.4942V78.6235H37.8328V108H49.4984V78.6235H60.9226C62.1371 78.6235 63.7184 78.6235 64.3246 79.9711C64.9328 81.3168 64.0814 82.5418 63.3515 83.5199L53.8735 96.249H68.4564L74.2892 88.4163C75.2662 87.1038 76.1119 85.9681 76.1119 84.5C76.1119 83.0319 75.3241 81.974 74.2892 80.5837H74.2912Z" fill="white"/>
</g>
<defs>
<clipPath id="clip0_1_905">
<rect width="105" height="47" fill="white" transform="translate(32 61)"/>
</clipPath>
</defs>
</svg>
