<svg width="147" height="46" viewBox="0 0 147 46" fill="none" xmlns="http://www.w3.org/2000/svg">
<g clip-path="url(#clip0_204_20213)">
<mask id="mask0_204_20213" style="mask-type:luminance" maskUnits="userSpaceOnUse" x="0" y="0" width="147" height="46">
<path d="M147 0H0V46H147V0Z" fill="white"/>
</mask>
<g mask="url(#mask0_204_20213)">
<path fill-rule="evenodd" clip-rule="evenodd" d="M29.3543 8.45898H0V37.5399H29.3543V8.45898ZM2.17011 22.4973H6.00059V21.9401H23.3369V22.4973H27.1832V10.6084H2.17011V22.4973ZM2.17011 23.4215H6.00059V24.0588H23.3369V23.4215H27.185V35.3907H2.17011V23.4215ZM49.7188 20.864C49.7188 18.2695 47.8984 16.3918 44.9989 16.3918H36.7744V29.5378H39.2315V25.1214H44.9989C47.8984 25.1214 49.7188 23.5657 49.7188 20.864ZM47.2094 20.8991C47.2094 22.0747 46.4124 22.9484 45.1397 22.9484H39.2315V18.5673H44.9989C46.4124 18.5673 47.2094 19.6029 47.2094 20.8991ZM58.829 29.9054C54.603 29.9054 51.1008 27.1208 51.1008 22.9486C51.1008 18.8306 54.603 15.9906 58.829 15.9906C63.0748 15.9906 66.5211 18.8306 66.5211 22.9486C66.5211 27.1208 63.0748 29.9054 58.829 29.9054ZM58.829 18.2352C55.7497 18.2352 53.6448 20.302 53.6448 22.9486C53.6448 25.6661 55.6623 27.6791 58.829 27.6791C61.9776 27.6791 63.9736 25.6492 63.9736 22.9486C63.9736 20.302 61.9776 18.2352 58.829 18.2352ZM68.9267 22.9325C68.9267 27.1026 72.2698 29.8897 76.7102 29.8897C79.3289 29.8897 81.308 29.1877 82.9869 27.9617L81.6786 26.0348C80.4577 26.9606 78.8485 27.6088 76.8155 27.6088C73.5618 27.6088 71.5268 25.6493 71.5268 22.9325C71.5268 20.3021 73.5424 18.2697 76.7816 18.2697C78.8144 18.2697 80.3525 18.9514 81.5711 19.8832L82.884 17.9522C81.2013 16.7287 79.3289 15.9907 76.7102 15.9907C72.3206 15.9907 68.9267 18.8306 68.9267 22.9325ZM104.23 26.3477L102.71 29.5393H100.055L106.509 16.3921H109.09L115.566 29.5393H112.911L111.392 26.3477H104.23ZM105.254 24.2106H110.368L107.82 18.8817L105.254 24.2106ZM128.582 23.9137V29.5378H131.043V16.3918H128.582V21.7577H119.899V16.3918H117.44V29.5378H119.899V23.9137H128.582ZM134.68 29.5378V16.3918H137.142V22.5265L143.807 16.3918H146.827L139.97 22.7217L147.111 29.5378H143.807L137.142 23.1582V29.5378H134.68ZM88.2209 21.2116H93.9818C96.8776 21.2116 98.8737 22.6677 98.8737 25.3641C98.8737 27.9555 96.8776 29.5161 93.9818 29.5161H85.7621V16.381H97.7109V18.44H88.2209V21.2116ZM88.2209 27.3431H94.1233C95.8432 27.3431 96.5396 26.6591 96.5396 25.3641C96.5396 24.1914 95.6637 23.3863 94.1233 23.3863H88.2209V27.3431Z" fill="white"/>
</g>
</g>
<defs>
<clipPath id="clip0_204_20213">
<rect width="147" height="46" fill="white"/>
</clipPath>
</defs>
</svg>
