<svg width="120" height="16" viewBox="0 0 120 16" fill="none" xmlns="http://www.w3.org/2000/svg">
<g clip-path="url(#clip0_204_20836)">
<path d="M34.2656 0.421875H39.6042L43.908 11.7884L48.1765 0.421875H53.3269V15.5773H49.905V3.98786L45.4484 15.5773H41.9325L37.4758 4.05824V15.5773H34.2774V0.421875H34.2656Z" fill="white"/>
<path d="M75.669 0.421875H87.4397V15.5773H83.7944V3.61249H78.9968C78.9615 5.73566 78.9027 8.59783 78.8439 10.1931C78.7146 14.1697 77.5504 15.5773 74.1404 15.5773H72.5059V12.3867H73.4113C74.9517 12.3867 75.4456 11.6946 75.5514 9.53625C75.6337 7.21367 75.669 2.61542 75.669 0.421875Z" fill="white"/>
<path d="M106.054 0.421875H119.894V3.61249H114.779V15.5773H111.169V3.61249H106.054V0.421875Z" fill="white"/>
<path d="M24.8347 0.105469H23.5295C20.4016 0.105469 18.0263 2.00576 17.4854 4.83274L20.8131 5.3606C21.2717 4.01163 22.3183 3.09667 23.6353 3.03802C23.8822 3.02629 24.1409 3.02629 24.3879 3.03802C26.3516 3.1084 27.2453 4.04682 27.2453 6.3694C23.5177 6.3694 20.9778 6.19345 19.0963 7.42512C17.5677 8.43391 16.9092 9.54828 16.9092 11.3078C16.9092 13.865 18.8964 15.8826 22.1066 15.8826H22.5535C24.8229 15.8826 26.6573 15.0028 27.3982 13.9354V15.5659H30.7495V6.43978C30.7612 2.92072 28.868 0.105469 24.8347 0.105469ZM22.7887 12.9266C21.3658 12.8914 20.5427 12.0585 20.5427 11.0263C20.5427 10.17 20.9307 9.73597 21.4481 9.44271C21.989 9.126 22.6946 9.02042 23.7764 8.98523C24.8229 8.95004 25.6696 8.90312 27.3041 8.90312C27.3041 11.4838 25.6696 12.7858 23.6471 12.9266C23.3648 12.9383 23.0826 12.9383 22.7887 12.9266Z" fill="white"/>
<path d="M105.208 9.02035V7.60099C105.208 2.70949 102.127 0.1875 98.1522 0.1875H97.3761C93.0958 0.1875 90.3677 3.09659 90.2266 7.20216C90.2031 7.8004 90.2031 8.05847 90.2266 8.87958C90.3207 12.9617 93.2016 15.7183 97.0351 15.8239C97.7406 15.8473 97.6465 15.8473 98.305 15.8239C101.645 15.73 104.173 13.8063 104.925 11.296L101.692 10.733C100.904 12.3048 99.3986 12.9148 98.1874 12.9734C97.917 12.9852 97.6465 12.9852 97.3643 12.9734C95.4711 12.8913 93.7896 11.425 93.7896 9.27841V9.04381L105.208 9.02035ZM97.3173 3.03794C97.6112 3.01448 97.917 3.01448 98.2227 3.03794C99.8102 3.12005 101.48 4.15231 101.645 6.19337H93.8249C94.0012 4.36345 95.4711 3.14351 97.3173 3.03794Z" fill="white"/>
<path d="M71.5066 6.66257C71.4243 2.99102 68.461 0.1875 64.5453 0.1875H63.1225C59.2068 0.1875 56.2435 3.00275 56.1612 6.68603C56.1377 7.70656 56.1377 8.3048 56.1612 9.32533C56.2435 13.0086 59.2068 15.8239 63.1225 15.8239H64.5453C68.461 15.8239 71.4243 13.0203 71.5066 9.32533C71.5184 8.29307 71.5184 7.6831 71.5066 6.66257ZM67.9201 9.12592C67.8731 11.2725 66.3209 12.7271 64.2161 12.8327C63.9574 12.8561 63.6987 12.8561 63.44 12.8327C61.3234 12.7271 59.7829 11.2725 59.7359 9.12592C59.7124 8.23442 59.7124 7.73002 59.7359 6.83853C59.7829 4.71536 61.3234 3.26081 63.44 3.15524C63.6987 3.13178 63.9574 3.13178 64.2161 3.15524C66.3209 3.26081 67.8849 4.71536 67.9201 6.86199C67.9436 7.75348 67.9436 8.24615 67.9201 9.12592Z" fill="white"/>
<path d="M11.2647 10.2286C10.8414 11.6362 9.71251 12.5981 8.18385 12.8092C7.77229 12.8679 7.36073 12.8679 6.96092 12.8092C5.06773 12.5511 3.73897 11.1318 3.69194 9.13765C3.66842 8.24615 3.66842 7.74175 3.69194 6.85026C3.73897 4.84439 5.13829 3.37812 7.06675 3.16697C7.38424 3.13178 7.68998 3.13178 8.00747 3.16697C9.6302 3.34293 10.8414 4.31653 11.2882 5.78281L14.8159 5.10246C14.0516 2.22856 11.4411 0.1875 8.10154 0.1875H7.09027C3.16278 0.1875 0.19953 2.99102 0.117218 6.6743C0.105459 7.69483 0.105459 8.29307 0.117218 9.3136C0.19953 12.9969 3.16278 15.8121 7.07851 15.8121H8.08978C11.4999 15.8121 14.1339 13.689 14.8277 10.7095L11.2647 10.2286Z" fill="white"/>
</g>
<defs>
<clipPath id="clip0_204_20836">
<rect width="120" height="16" fill="white"/>
</clipPath>
</defs>
</svg>
