<svg width="169" height="169" viewBox="0 0 169 169" fill="none" xmlns="http://www.w3.org/2000/svg">
<g clip-path="url(#clip0_1_1048)">
<path d="M71.4164 51.4868C83.0539 46.7773 97.157 48.8634 106.824 56.9021C104.459 58.4035 102.251 60.1471 100.055 61.875C93.5957 57.6185 85.4246 55.9592 77.8911 57.9135C69.994 59.8521 63.1242 65.5256 59.7051 72.9006C57.1553 78.1157 56.5705 84.1579 57.6031 89.8367C59.2204 97.8596 64.5888 105.045 71.88 108.785C78.4442 112.304 86.5046 112.836 93.5167 110.371C104.438 106.652 112.414 95.4733 111.845 83.8682C114.326 81.8822 116.966 80.0964 119.494 78.1684C120.801 86.0754 119.605 94.4355 115.696 101.468C111.102 109.97 102.884 116.466 93.5061 118.841C85.235 121.028 76.1684 120.106 68.54 116.223C59.9685 111.941 53.2779 104.039 50.5279 94.8517C48.0992 86.8603 48.5733 78.0051 51.9239 70.3509C55.6012 61.8275 62.7712 54.8687 71.4164 51.4868ZM84.6133 83.6838C93.9539 76.7092 103.358 69.8083 112.777 62.9391C114.3 65.1726 115.907 67.422 116.86 69.9716C106.129 77.9577 95.3078 85.8489 84.5396 93.7928C80.0563 90.9851 75.5783 88.172 71.0845 85.3853C71.0266 81.9771 71.095 78.5688 71.0424 75.1605C75.5151 78.0788 80.0563 80.8971 84.6133 83.6838Z" fill="white"/>
</g>
<defs>
<clipPath id="clip0_1_1048">
<rect width="71" height="71" fill="white" transform="translate(49 49)"/>
</clipPath>
</defs>
</svg>
