<svg width="169" height="169" viewBox="0 0 169 169" fill="none" xmlns="http://www.w3.org/2000/svg">
<g clip-path="url(#clip0_1_910)">
<path d="M69.5813 77.26H55V79.86H60.15V89.74H64.3693V79.925H69.5193V77.26H69.5813ZM75.8482 77L68.0922 89.74H72.6837L74.1729 87.27H80.3777L81.8669 89.74H86.3964L78.8886 77H75.8482ZM75.6 84.735L77.3373 81.615L79.0747 84.735H75.6ZM99.3024 81.875H93.0355V77.26H88.8163V89.74H93.0355V84.475H99.3024V89.74H103.522V77.26H99.3024V81.875ZM114.628 82.785L110.657 77.26H105.755L112.27 86.165L109.664 89.805H114.318L122.633 77.26H118.041L114.628 82.785ZM139.634 77.26H134.236L128.651 81.745V77.26H124.494V89.74H128.713V84.67L134.422 89.74H139.944L132.064 83.045L139.634 77.26ZM155.022 77L146.335 84.67V77.26H142.116V90H145.094L153.781 82.33V89.74H158V77H155.022Z" fill="white"/>
<mask id="mask0_1_910" style="mask-type:luminance" maskUnits="userSpaceOnUse" x="10" y="69" width="36" height="24">
<path fill-rule="evenodd" clip-rule="evenodd" d="M10 92.9999H45.9999V69H10V92.9999Z" fill="white"/>
</mask>
<g mask="url(#mask0_1_910)">
<path fill-rule="evenodd" clip-rule="evenodd" d="M36.0661 76.2283C30.5065 72.8375 28.0035 69 28.0035 69L28 69.197L27.9962 69C27.9962 69 25.4935 72.8375 19.9339 76.2283C17.3177 77.8238 14.0441 79.2014 10 80.2521L13.9178 83.7417C13.9178 83.7417 17.5569 82.1051 22.196 78.3647C26.3634 75.0047 27.7591 72.0795 28 71.5193C28.2406 72.0795 29.6363 75.0047 33.804 78.3647C38.4431 82.1051 42.0822 83.7417 42.0822 83.7417L46 80.2521C41.9555 79.2014 38.6823 77.8238 36.0661 76.2283ZM21.6576 85.8428H34.3424V81.9971H21.6576V85.8428ZM19.4884 93H36.5112V89.1543H19.4884V93Z" fill="white" fill-opacity="0.88"/>
</g>
</g>
<defs>
<clipPath id="clip0_1_910">
<rect width="148" height="24" fill="white" transform="translate(10 69)"/>
</clipPath>
</defs>
</svg>
