<svg width="169" height="169" viewBox="0 0 169 169" fill="none" xmlns="http://www.w3.org/2000/svg">
<path d="M16.3909 73.4212L16.505 73.6418L16.9615 73.0902L17.0756 72.8144V71.987L16.1626 72.4283H16.0485L15.8203 72.3731L15.7061 72.0973L16.1626 71.7664L15.9344 71.3251L15.7061 71.4906L15.7632 71.7664L15.4208 71.3803L15.8203 71.0493H16.1626L15.8203 70.5529L15.7632 70.7735L15.4779 70.8287L15.2496 71.27L14.9073 70.7184L14.4508 70.939L10.6847 70.7735L10.913 70.8838L11.0271 71.1596L11.2554 71.27L11.0842 71.8215L10.913 71.7664L10.7989 71.8767L10.913 71.987L10.6277 72.2077L10.3424 71.987V72.4283L10.5136 72.3731L10.3424 72.5386L10.4565 72.8696L10.3424 73.2557L10.5136 75.1311L10 79.7093L10.1141 80.4815L10.3424 80.7021L11.1983 80.9779L11.2554 80.7573L11.5407 80.7021L11.7689 80.2609L12.2254 80.3712L12.1113 80.7021H12.3966L12.2254 80.9228L12.796 80.7021L13.0243 80.5367L13.9943 77.6132L13.709 77.3374L14.3367 76.3446V75.8482L14.622 75.5724L15.2496 74.1934L15.4208 73.9727L15.9344 73.5866L16.3909 73.4212Z" fill="white"/>
<path d="M28.1472 77.1161V77.4471L27.9189 77.5023L28.1472 77.1161ZM27.3483 75.3511V74.6891L27.8048 74.1376L28.0331 74.303L28.2042 74.1376L28.3184 74.8546L28.6037 74.7995L28.5466 75.0201H28.3184L28.3754 75.2959H28.5466L28.7749 75.8475L28.3754 76.1233L27.6907 75.9578L27.8048 75.6268L27.3483 75.3511ZM27.9189 72.9241L28.2613 73.1998L28.1472 73.6963L27.8048 73.586L27.9189 72.9241ZM20.8433 93.3881L20.3298 93.5535V93.8845L20.1015 94.05L19.9303 93.8293L20.9004 92.7813L20.8433 93.3881ZM19.7591 78.7158L20.558 78.5503L20.3298 78.8812L19.7591 78.9916V78.7158ZM19.4738 78.5503L19.1315 79.0467L19.0744 78.6606V78.5503L19.645 78.44L19.4738 78.5503ZM20.7862 92.5055L20.5009 92.7262L20.558 92.3952L20.7292 92.0642L20.7862 92.5055ZM18.9032 94.4361L19.0173 93.9397L19.1315 94.4361H18.9032ZM19.1315 95.1532L18.7891 95.0428L18.9032 94.7119H19.1315V95.1532ZM19.2456 90.6301L19.0173 90.575L19.3026 90.244L19.2456 90.6301ZM32.4268 97.8559L30.4296 97.194L29.859 96.8631L29.7449 97.4147H29.4596L29.5737 97.7456L29.2314 97.8559L28.889 97.9111L28.7749 97.6353H29.4596L29.1172 97.3044L28.5466 97.0837L28.0901 96.4218L28.3184 96.3115L28.6607 96.4218L28.7749 96.2012L28.6607 95.8702L29.4596 95.9254L29.2884 95.2635L29.5167 95.1532V95.0428L29.1743 94.8222L29.5167 94.6016L29.5737 94.3809H29.7449L29.6308 94.1051L29.5737 93.5535H29.4025L29.2884 93.0571L29.1172 92.671L29.2314 91.7333L29.3455 91.7885L29.5737 91.6781L29.5167 90.6301L29.6308 88.4789V88.3686L29.4025 87.8722L29.3455 88.0928L29.2314 87.7067L29.5737 87.5964L29.6308 87.486L29.2884 87.4309L29.2314 87.0448L29.5167 87.3757V87.0448L29.1743 86.7138L29.6308 86.6035V86.438L29.5167 86.6035L29.5737 86.438H29.2314L29.1743 86.2725L29.4025 86.1622L29.2884 86.0519L29.3455 85.7761H29.6878V85.5003L29.1172 85.3348L29.2314 84.9487L29.0602 84.8384L29.2314 84.5075H29.3455L29.2314 84.0662V83.6249L29.0602 83.2388L29.4025 82.5769L29.2884 82.0805L29.3455 81.5289L29.2314 80.9773L29.3455 80.867L28.8319 80.5912L28.946 80.4257L29.5167 80.5912L29.5737 78.44L29.4025 78.1642L29.4596 77.7781L29.2314 77.2816L29.5737 77.061V76.3991L29.0602 75.7372L29.2884 75.4614L29.2314 75.2959L29.0602 75.2407L29.1743 74.9098H29.5167V74.7995L29.2314 74.4685L29.4025 74.3582L29.1172 73.6963L29.1743 73.3102L29.1172 72.8137L29.4596 72.4276L29.5737 72.0415L29.4025 71.0486L29.1743 70.828L28.0331 70.6074L22.8975 70.8832L20.0444 70.6074L20.1586 70.9935L18.732 71.7106L18.675 81.1979L18.9603 81.2531V81.4185L18.7891 81.6392L18.9032 81.7495L18.675 81.915L19.0173 82.4114L19.1885 82.7975L18.9032 83.6249L19.4168 83.7904L19.3026 84.342L19.1885 84.4523L19.3597 85.059L19.1885 85.1142L19.3026 86.1071L19.1885 86.2725L19.3026 86.6587L19.5879 88.3686L19.4738 88.7547H19.3026L19.1885 88.5341H18.9032L19.0173 88.865L18.8461 88.8099L18.732 90.9611L19.1885 90.8507V91.2369L18.8461 91.292L18.7891 91.6781L19.0173 91.7333L19.2456 92.1194L19.1315 92.7262L19.0173 93.5535L18.7891 93.4432L18.675 95.0428L18.5038 96.7528L18.3897 96.8631L15.7648 97.9663L15.7078 98.904L15.7648 99.1798L15.9931 99.4556L16.2784 99.5659L18.1043 99.8968L20.4439 99.5107L21.4139 99.4004L22.441 99.5107V99.8417L22.7834 99.8968H25.237L29.9161 100.173L32.1415 99.621L32.655 99.1798L32.7692 98.7937L32.655 98.2421L32.4268 97.8559Z" fill="white"/>
<path d="M36.706 79.3777L36.6489 78.9916H37.1625L37.2766 79.4328L36.706 79.3777ZM36.706 79.9293L36.4777 79.8189L36.8201 79.7086L36.706 79.9293ZM38.0184 80.3154L37.7331 80.3705L38.0184 79.4328L37.9043 79.3225L37.5619 79.4328L37.7901 78.9364L37.2195 78.8812V78.7709L36.8771 78.6606L37.1625 78.1642L37.7331 77.5023L37.8472 77.2816L37.9613 76.9507V73.3653L37.8472 71.0486L37.7331 70.9383L37.1625 70.6625L34.4806 70.828L31.8557 70.6074L31.6846 70.6625L31.171 71.159L31.0569 71.8209L31.1139 72.3725L31.7987 73.9169L32.997 74.3582L33.5676 74.634L33.3393 74.9649H33.2252L33.3393 75.6268V75.9578L34.3664 78.109L35.4506 80.7015L35.5647 80.9221L35.793 81.0876L36.4777 81.1979L37.5048 81.0324L37.9613 80.8118L38.0754 80.5912L38.1325 80.0947L37.9613 80.1499V80.3154H38.0184Z" fill="white"/>
<path d="M58.6736 79.7642H58.9018L58.9589 79.2678L59.13 78.8817L58.8447 78.2749H58.5594L58.4453 78.9368L58.6165 79.2126L58.5594 79.4884L58.6736 79.7642Z" fill="white"/>
<path d="M45.4363 95.9263L45.2651 95.9814V96.0917H45.4934L45.5504 95.7608H45.4363V95.9263Z" fill="white"/>
<path d="M69.7437 84.8411L69.5725 84.7859L69.6866 83.6828L69.5725 83.0208V82.1935H69.1731V80.9248L69.0019 80.8696L68.8878 80.4284L68.8307 79.4355L68.4883 78.9942L68.2601 79.1597L68.146 78.9391H68.2601V78.7184L67.9748 78.4978L67.7465 77.5049L67.29 77.3946L67.3471 77.174L67.29 77.0637L67.0618 76.7879L66.7765 76.5121V75.8502L66.6624 75.4641L66.2059 74.9676L65.7494 74.9125V74.4712L65.2358 74.2506L65.0646 73.9196L64.9505 74.0299L64.6652 73.8093L63.8663 73.7541L63.7522 73.4232L63.8663 73.3129L63.7522 73.0922L63.4669 72.9819L63.524 72.6509L63.3528 72.5406L63.6381 72.2097L63.524 72.1545H63.2387L62.8392 71.989L63.1245 71.8236L60.728 70.8307L60.3285 71.0513L60.0432 71.1617L59.815 71.0513L59.4155 70.6101L59.5867 70.5549L59.1302 70.4446L58.902 70.1688L58.6167 70.4997H58.3884L58.0461 71.0513H57.989L57.7608 70.8859L57.4754 70.4997H57.3043L57.1901 70.6101L56.7337 70.1688H56.5054H56.163L55.9348 70.3894L55.7636 71.4375L55.7065 71.8236L55.8207 72.4855L55.9348 72.7061L57.1331 73.9196L57.4754 74.4712L57.7037 75.5744L57.8749 77.5601L57.9319 77.6153L58.4455 77.9462L58.5596 77.3395L58.7879 77.174L58.5026 76.7879L58.6167 76.4569L59.1302 76.5672L59.5867 76.843L59.7579 77.1188L59.5867 77.5049L59.6438 78.1669L59.4726 78.553L59.6438 78.7184V79.3252L59.5297 79.4355L59.6438 79.6561L59.5297 79.8216L59.5867 80.0423L59.3014 80.0974L58.902 79.8768L58.4455 80.1526L58.5596 80.7593L58.4455 81.1454L58.0461 80.98V80.7593L58.1602 80.5939V79.9319L58.0461 79.8216L58.1031 79.4355H57.9319L57.989 81.9728L58.2173 81.6419L58.3884 81.9177L58.2743 82.1935L57.989 82.1383L57.9319 82.1935L58.2173 82.6347L58.3884 83.1863V84.6205H58.2173V85.0066L57.989 85.0617L58.1031 85.7788L58.1602 85.2824L58.3884 85.503L59.0732 85.5582L58.9591 85.7236L59.1302 85.9443H59.3585L59.5867 86.1649L59.0732 86.8268L59.3585 87.4336L59.1302 87.7645L59.4155 88.3161L59.1302 88.8677L59.0161 89.2538L58.902 89.3641L59.1302 89.5296L58.7879 89.8606L58.6737 90.2467L58.5026 90.5225L58.5596 91.2947L58.3884 91.8463L58.5596 91.9566L58.3884 92.7288V93.6114H58.1602L58.1031 94.163L57.8749 94.3285L58.1031 94.4939L57.7037 94.7146L57.076 96.5348L55.8207 97.7483L55.7065 98.9618L55.8207 99.734L56.2772 100.12L57.1901 100.341L58.2173 100.23L59.872 99.8995L61.8121 99.1824L62.8963 98.5205L63.1245 98.1896L63.2387 97.8035L63.1245 97.4725L62.8392 97.1416L63.2957 96.59V96.4245H63.4098L63.581 96.0384L64.0375 95.6523L64.8934 95.9281L64.9505 96.2039H65.4641L65.6352 95.8177H65.407V95.0455L65.8064 94.9352V94.6594L66.377 93.9975L66.4912 93.4459L66.9477 93.1701V92.8392L67.233 92.6185L67.7465 93.115L67.6324 93.5011L67.7465 93.6114L68.0889 93.1701L68.4883 92.2876L69.2872 90.026L69.6296 88.2058L69.8007 86.7165L69.5725 85.9443L69.7437 84.8411Z" fill="white"/>
<path d="M64.2092 96.5325L64.3804 96.6988L64.7798 96.5325L64.7228 96.4771L64.2092 96.5325Z" fill="white"/>
<path d="M63.5237 96.5327H63.8099L63.5237 96.3654V96.5327Z" fill="white"/>
<path d="M51.5983 98.9585L51.4842 99.2343L51.313 99.124L51.4271 99.0137V98.6275L51.8265 98.9585H51.5983ZM51.1988 99.6756L50.6282 99.0137L50.2859 99.5101L50.1147 99.5653L50.2288 99.1791L50.0576 99.0688L50.2288 98.8482H50.5141L50.4 98.3518L50.6282 98.1311L51.0847 98.076L51.1418 98.6827L50.9135 98.6275L50.8565 98.6827L50.7424 98.9033L50.7994 99.0688L51.2559 99.3998L51.1988 99.6756ZM46.1774 96.2557L45.9492 96.5315V96.3109L45.3786 96.4212L45.0362 96.3109L45.1503 95.9799L45.4356 95.7593L45.2074 95.649H45.3786L45.4927 95.4283L45.8351 95.318L46.1774 95.8144L46.0633 95.9799L46.1774 96.2557ZM44.865 94.2148L45.3786 94.1045L45.6068 94.2148V94.4355L45.2644 94.7664L45.4927 94.8216L45.5498 95.1525L45.2644 95.4283L45.3786 94.9871L45.2074 94.9319L45.0933 94.6009L44.808 94.4906L44.865 94.2148ZM42.6967 79.8735V79.6528L42.5255 79.708L42.4684 79.4322L42.2972 79.3219L42.8679 79.2116L42.6967 79.8735ZM41.099 84.562L40.5283 84.3414L40.8707 84.231L41.3843 84.562H41.099ZM40.5854 81.6937L40.9278 81.1421L41.2131 81.3076L41.2701 81.4179L41.156 81.6386L41.0419 81.6937H40.5854ZM52.6824 96.3109L52.4542 95.7593L52.3401 95.2628L51.9977 95.7041L51.6553 95.2628L52.1118 94.0493L52.226 93.7184L51.9406 90.6846L51.6553 90.5192L51.8265 90.1331L51.5983 89.9676V89.416L51.4842 89.1954L51.5412 88.9196L51.313 88.8092L51.37 88.4783L50.9706 88.368L51.0277 87.9819L51.37 87.4854L51.1988 87.3199L51.313 87.0441L51.5983 86.8787V86.7132L51.7124 86.4374L51.37 86.3271L51.5983 85.7755L51.4271 85.4445L51.4842 84.8929L51.4271 84.3414L51.5412 83.9001L51.4271 83.5691L51.5412 83.4037L51.37 82.8521L51.4271 82.5763L52.1118 82.6866L52.6824 74.523L52.8536 74.1921L54.3372 72.4822L54.3943 72.1512L54.2231 70.4413L54.0519 70.2206L53.4242 70.0552L52.8536 70L49.7152 70.5516L47.0904 71.6548L45.9492 72.3718L45.5498 72.7028L45.778 72.8683L45.6068 73.1992L45.3786 73.0889V73.2544L45.2644 73.3095L44.9791 73.9715H44.5797L44.6368 74.1921L44.5226 74.2472L44.5797 74.7988L44.1232 74.7437L44.0091 75.2953L44.1232 75.6262L44.5226 76.1227L43.7238 76.0675L43.4385 76.1778L43.1532 76.5088L42.8108 76.5639L42.7537 77.3362H42.4114L42.4684 77.6671L42.3543 78.1635H42.6967L42.982 77.8326L43.3244 77.7223L43.3814 78.1635L43.6097 78.2739L43.4955 78.6048H43.2673L43.1532 78.7151V78.9909L42.5255 78.8254L42.5826 78.6048L42.4114 78.329L42.0119 78.5497L41.8978 78.8254H41.5554L41.6696 78.9909L41.8978 79.0461L41.6696 79.1564L41.7837 79.6528L41.7266 80.2044L41.3272 80.0389L41.2131 79.8183L40.7566 80.3699L40.3001 82.0247L40.243 82.7417L40.5854 82.0798L40.9278 82.4108L41.0419 83.7898L40.6995 83.8449L40.5854 84.0656L40.5283 83.3485H40.6995L40.8707 82.9072L40.8136 82.7969H40.243L40.1289 85.4445V86.6029L40.6995 90.0779L40.8136 90.6295L41.3843 90.5743L41.9549 90.464L42.1831 90.5743L42.2402 90.9053H42.1261L42.4114 91.4017L42.2972 91.5672L42.9249 91.6775L43.3814 92.2291L43.2673 92.3394L43.4955 92.5601L43.4385 92.891L43.2673 92.9462L43.3244 93.7184L43.1532 94.0493H43.4385L43.1532 94.2148L42.982 94.27L43.0961 94.4355L43.039 94.7664L43.2673 94.8216L43.3814 94.4906L43.6097 94.5458L43.895 94.8216L43.7808 94.8767V95.2077L44.4656 95.5386L44.2373 96.1454L45.0933 96.4212L44.9791 96.7521L45.0362 96.9728L45.3786 96.8625L45.4927 97.1934H45.1503L45.7209 97.6898L47.4328 98.793L49.1446 99.5653L49.8294 99.7859V99.4549L50.1717 99.5101H50.1147L50.2288 99.841L50.5141 99.8962L50.9135 99.6756L51.2559 100.062L51.5412 99.9514L51.8265 100.117L52.6254 100.227V100.117L53.2531 100.282L53.8237 100.172L54.166 99.7859L54.3372 99.1791L54.0519 97.745L52.6824 96.3109Z" fill="white"/>
<path d="M90.571 80.8678V81.1987H90.8564V80.9229L90.571 80.8678Z" fill="white"/>
<path d="M85.2627 87.928L85.2056 88.0383L84.8633 88.2038L84.635 87.8728V87.7625L84.7491 87.6522L84.9203 87.597L85.0345 87.6522L85.1486 87.7625V87.928H85.2627ZM84.1785 76.0136L83.8362 76.3446L83.7791 76.8962L84.0073 76.9513L84.1215 77.2271L84.4068 77.5581L83.8362 77.6132L83.5508 77.7787L83.6079 78.0545L83.9503 78.3303L83.665 78.7716L84.0073 78.8819L83.8362 78.9922L83.9503 79.3232L83.7791 79.599L83.722 79.9299L83.8362 80.8125L83.6079 81.0331L83.0373 80.9228L83.1514 79.8748V79.6541L82.8661 79.2129L83.0944 78.0545L82.9802 77.9994L82.8091 77.0617L83.0373 76.6755L83.2655 75.6275L83.4938 75.2414L84.2927 75.4069L84.4068 75.6827L84.635 75.5172L84.578 75.8482L84.9203 75.9585L84.9774 76.1791L84.1785 76.0136ZM83.8932 94.5471L84.2356 95.0987L83.8932 95.209L84.0073 95.5399L83.4367 95.0987L83.722 94.9883V94.878L84.0073 94.8229L83.8362 94.7125L83.8932 94.5471ZM82.6949 78.2752H82.2384L82.0102 77.889L81.6678 77.6684L82.1243 77.7236L82.2384 77.5581H82.4667L82.5808 77.8339L82.6949 78.0545V78.2752ZM81.5537 78.3855V78.1648L81.839 78.4406L81.9531 78.8267L81.5537 78.3855ZM84.8062 74.5243L85.3768 74.8553L85.2627 75.0759L85.0345 75.1311L84.9203 74.9105H84.7491L84.635 74.6898L84.8062 74.5243ZM79.4995 99.015L78.9289 99.1253L79.043 98.9598L79.2712 99.015L79.4995 98.6288H79.7277L79.8989 98.7392L79.4995 99.015ZM76.304 88.7002L75.7334 89.0863L75.5052 89.0312L76.1328 88.4244V88.0935L76.4752 87.928L76.304 88.7002ZM85.3768 85.5561L85.4909 85.4458L85.1486 85.2804L85.3768 84.8942L85.548 82.743L85.1486 80.9779H85.548V78.8819L84.9774 78.3303L85.0915 77.6684L85.4339 77.7787V71.4906V71.1596L85.0915 70.8287L84.4068 70.7184L82.4667 70.8287L82.1814 71.1596L81.7249 71.0493L80.8119 70.939L80.2983 70.8287L79.956 70.8838L79.8419 71.3251L79.7277 71.4354L79.4424 71.4906L78.9859 71.3803L78.5865 71.1596L78.9289 71.0493V70.8287H76.9888L76.7605 70.6632L76.8176 70.939L76.4182 71.1596V70.9942L76.1328 70.6632H75.9046L75.6193 70.5529H74.5922L73.9074 70.6632L72.595 71.0493L72.1956 71.4354L72.0815 71.987L72.1956 72.4283L72.3668 72.9247L74.3639 73.9176L74.5351 74.1382L74.5922 75.0208L74.5351 77.6132L74.9346 77.7787H75.5052L75.2769 78.1097L75.4481 78.9922L75.334 79.4887L75.0487 80.0402L74.9916 80.4264L75.2199 82.0811L75.0487 82.3018L74.6492 82.3569L74.5351 82.7982L74.4781 83.2395L74.5351 84.453L74.6492 85.0597L74.8775 85.4458L74.5922 85.8319L74.7634 86.2181L74.5351 86.3284L74.7634 86.7145L74.8775 87.4867L75.0487 88.2589L74.7063 89.9689L74.8775 90.4101L74.4781 90.4653L74.421 94.4368L74.8775 94.7677L74.9346 95.209L75.2199 95.3193L75.0487 95.8157L74.5922 96.257L74.0786 96.8637L72.1956 97.6911L72.0815 98.0221L72.0244 98.353L72.1385 98.9046L72.538 99.2356L73.7363 99.5665L74.9916 99.732L78.0159 99.6217L78.4724 99.2907L78.6436 99.5114L79.2142 99.732L80.926 99.8423L82.6379 99.7872L84.2927 99.8423L85.2056 99.732L85.4339 99.4562L85.6051 98.6288L85.548 96.6983L85.3198 96.3673L85.6051 95.8157L85.4909 94.3264V93.0026L85.3768 92.5062L85.0345 92.7268L84.9203 93.3336L84.578 93.83L84.635 94.2161L84.0644 94.4919L83.8362 93.83L83.8932 93.499L84.0644 93.5542L84.2356 92.782L84.5209 92.1201L84.7491 91.734L84.4068 91.403L84.5209 91.0169L84.8633 91.3478H85.0915L85.0345 91.1272L84.5209 90.6859V90.4653H84.8633V90.2998L85.1486 90.355L85.2627 90.5756L85.4909 90.6308V90.2447L84.9774 90.0792L84.578 89.6379L84.635 89.307L84.9774 89.6379L85.2056 89.0863H85.4909V86.88H85.2627L85.4339 86.7145L85.2627 86.2181L85.6051 86.1077L85.3768 85.5561Z" fill="white"/>
<path d="M94.6207 81.1972L93.8219 81.473L93.6507 81.3075L93.9931 81.0317L94.3354 80.9214H95.0202L94.6207 81.1972ZM91.8247 85.9409L91.3112 85.8857L91.4823 85.7203L91.8247 85.7754V85.9409ZM91.197 83.7345L91.5394 83.4587L91.7677 83.4036L91.6535 83.7345H91.197ZM90.5694 77.6119V77.4464L90.9688 77.5567L91.0259 77.7222L90.5694 77.6119ZM101.354 83.6242L101.183 82.2452H101.069L100.84 81.5282H101.012L100.955 81.0317L100.156 78.4393L99.6422 77.3912L99.1857 76.7845L98.2727 76.619L98.3868 76.3432L98.2727 76.1777L98.558 76.2329L98.0444 75.1849L97.5879 75.5158L97.8732 75.8468L97.3597 75.6262L97.3026 75.1297L96.9032 75.6813L96.732 75.1297L96.1614 74.8539L96.0473 74.192L95.0202 73.9714L94.9631 73.5301L93.6507 72.813L93.5936 72.0408L93.7077 71.8202L93.1371 71.5444L90.4552 70.717L88.6293 70.4412L87.6592 70.6618L87.1457 71.2134L86.8604 72.0408L86.9745 72.4269L87.1457 72.7579L87.488 73.0888L87.6592 72.9785L87.9445 73.3646L88.7434 73.9162L89.1428 74.3575L89.5422 75.4607L89.8276 77.667L90.5123 77.9428L90.5694 78.2186L91.0829 78.5496L90.9688 78.6599L90.7405 79.6528L90.8547 80.094L90.7405 80.7008L91.14 80.8663L91.0829 81.1972L91.4253 81.473L91.4823 81.6385L92.2242 81.4179H93.023L93.2513 81.2524L93.3654 81.3627L92.3953 81.6936L92.3383 81.8591H91.7677L90.4552 82.852L90.6835 82.9623L90.5123 83.2933L90.3982 83.3484L90.5123 83.8449L90.4552 84.231L90.3411 84.3964L89.9987 84.7274V84.8377L90.1129 84.7274H90.3982L90.3411 85.2238H90.1129L90.1699 85.3893H89.9987L89.8846 92.1187L90.1129 92.8909L89.8276 93.608L90.1699 93.939L89.8276 94.4354L89.5422 95.5937L88.9716 96.6418L88.5722 97.083L88.6293 96.8624L88.1157 97.083L87.2598 97.5243L87.1457 97.6898L86.9745 98.462L87.2598 99.4549L87.6592 99.841L88.5151 100.006L89.7705 99.8961L90.3411 99.3445L90.9117 99.0688L90.7405 99.3997L90.5123 99.51L90.7976 99.7307L91.3112 99.6203L93.3654 98.8481L95.3625 97.8001L97.1314 96.4211L97.0173 96.0902L97.2456 96.035L97.3597 95.7041L97.7591 95.7592L97.8732 95.6489L98.1015 95.2628L98.2727 94.8215L98.7862 94.656V94.1044L98.9004 93.7735L98.6721 93.6632H98.3868L98.0444 93.3322L97.9874 93.1116L98.0444 92.9461L98.3868 92.5048V91.2913L98.7292 91.4016L99.2427 91.9532L99.5851 91.8429V91.5671L100.27 91.8429L100.555 91.2913L100.898 90.2985L101.24 88.9746L101.354 88.4231L100.955 88.2024L100.783 87.9818V87.8715L101.126 87.375L101.069 86.9889L101.24 86.2167L101.126 85.7203L101.468 85.3893L101.411 85.2238H101.24L101.468 84.2861L101.126 83.9552L101.183 83.6794H101.354V83.6242Z" fill="white"/>
<path d="M116.023 75.1304L115.966 75.2407L115.624 75.3511L115.681 75.5165L115.966 75.682V75.8475L115.395 76.013L115.11 75.682L114.768 75.2959L114.996 74.7995L115.167 74.9098L115.452 74.634L116.023 74.9098V75.1304ZM115.567 83.4594L115.452 83.6249L115.224 83.0733L115.567 83.4594ZM113.455 98.6833H113.113L112.885 98.5179L112.828 98.2972L112.942 98.1317L113.455 98.3524V98.6833ZM113.455 99.2901L112.713 98.9591L113.455 99.1246V99.2901ZM106.665 87.7067L106.551 87.5964L106.665 87.2654L106.836 87.3206L106.665 87.7067ZM117.164 72.7034L116.936 71.0486L116.708 70.828L116.194 70.7177L115.567 70.6074V70.8832H115.224L114.825 71.159L114.539 70.6074L113.912 70.6625L113.626 71.1038L113.512 71.2141L112.828 71.2693L112.485 71.159L112.257 70.828L111.344 70.7728L111.23 70.8832L111.173 71.159L110.945 71.2693L110.716 70.7177L106.094 70.6074L105.181 70.7728L104.325 71.0486L103.812 71.5451L103.698 71.9863L103.812 72.3725L104.04 72.8689L104.439 73.0344L105.809 73.6963L105.923 73.9169L106.151 77.1713V78.2193L106.722 78.3296L106.265 78.8812V78.5503L106.208 79.1019H106.437L106.38 79.3777H106.208V79.2122L106.151 79.5431L106.722 79.8741L106.608 80.536L106.665 81.3082H106.551L106.437 81.5289L106.494 82.0805L106.151 82.8527L106.094 83.1285L106.208 86.6587L106.094 87.7067V89.4166L107.007 89.5821L106.836 89.8027H107.236L107.407 90.4646L107.236 90.7404L107.064 90.7956L106.95 90.9611L106.38 90.9059L106.323 92.0091L106.437 92.6158L106.094 92.671L106.608 93.1123L106.665 94.4912L107.121 94.8222V95.1532L107.464 95.4841L107.578 95.8702H107.407L107.35 96.5321L107.007 96.8079H106.779L106.551 97.0286L106.208 97.1389V97.3044L106.094 97.4147L105.638 97.0837L103.869 97.9111L103.755 98.0214L103.641 98.4627L103.755 99.0143L104.154 99.4004L105.238 99.7314L107.007 99.8417L107.236 99.621L107.863 99.3452L108.32 99.0143L108.491 99.1246L108.434 99.4556L108.548 99.7314L113.512 99.6762L113.683 98.8488L113.569 98.3524L113.798 97.9663L114.026 97.9111L113.912 97.8008L114.254 97.8559L114.311 98.4075L114.026 99.0694L114.197 99.4004L114.311 99.8968L115.509 99.952L116.594 99.7865L116.879 99.5659L116.993 98.9591L117.05 97.3044H116.48L116.251 97.1389L116.422 96.6424L116.365 96.477L116.48 96.4218H116.879L116.993 88.4789L116.879 85.0039L116.537 85.3348L116.365 85.9416L116.48 86.0519L115.681 86.6035L115.224 86.4932L115.567 85.3348L115.909 85.39L116.251 85.059L116.023 84.8384L116.137 84.6178L116.08 84.2868L116.308 84.0662L116.251 83.5146L116.594 83.4043L116.936 83.5698L116.993 83.3491L116.765 82.963H116.422L116.537 82.632L116.936 82.7975L117.05 81.0876L116.993 80.9221L116.594 80.205L116.537 79.7086L116.936 79.8189L116.765 79.2673L116.936 79.3777L116.993 79.1019L115.909 78.9915L115.452 78.44H115.567V78.3296L116.251 78.6606L116.194 78.3296L116.879 78.44L117.164 72.7034Z" fill="white"/>
<path d="M128.86 90.4638L127.89 90.2984L127.376 90.4087L126.977 90.6293L126.007 91.898L125.265 93.0012L125.55 93.2218L125.436 93.6079L125.151 93.1115L124.98 93.5527L125.208 93.4424L125.322 93.6079L124.923 93.6631V94.0492H124.637L124.409 94.2698V94.4353H124.808V94.9317L124.694 95.042L124.58 95.2075H123.838L123.439 95.373L123.382 95.6488L122.754 95.7591L122.526 96.2555L122.184 96.0901L121.784 96.1452L121.613 95.8694L121.214 96.0901L118.874 96.9726L118.703 97.1932L118.475 98.3516L118.646 99.4548L118.874 99.7306L119.445 100.117L119.958 100.062L121.385 99.7306H122.298L122.355 99.5651L122.754 99.5099V99.3444L123.953 99.179L124.124 99.2341L124.694 99.6754L126.292 99.4548L126.92 99.1238L127.433 99.6202L127.662 99.1238H128.004L128.175 99.3996L128.575 99.2893L128.689 99.4548L128.575 99.6202V99.896L128.86 99.6754L129.031 99.2893L129.088 96.1452L129.43 90.9051L129.316 90.7396L128.86 90.4638Z" fill="white"/>
<path d="M106.89 95.4291L107.118 95.2085L106.89 94.9878L106.832 94.712L106.604 94.6569V94.8223L106.661 95.0981L106.718 95.4291H106.89Z" fill="white"/>
<path d="M128.232 99.8984L128.346 99.7317L127.775 99.8984H128.232Z" fill="white"/>
<path d="M118.473 85.9423L118.758 86.4939L120.47 88.0383L122.068 90.686L122.296 90.8515L122.867 90.9618L123.722 90.7411L124.122 90.4102L124.236 89.5828L124.122 87.2661L124.008 86.7697H123.722L123.894 86.1629L124.008 85.9423L123.951 85.2252L124.122 83.5705L124.179 81.1986L124.008 79.93L123.722 79.6542L122.809 79.4887L122.182 79.6542L122.068 79.7093L121.155 81.3641L121.326 81.6399L121.269 82.4673L120.527 82.6879V83.1844L120.128 83.074V82.8534L118.986 83.6808L118.701 84.0669L118.359 85.2804L118.473 85.9423Z" fill="white"/>
<path d="M119.046 70.6624L118.761 70.8279L118.59 70.9933L118.476 71.6001L118.419 72.2068L118.59 72.9239L118.818 73.3652L118.932 73.5306L121.5 74.5787L121.899 74.5235L122.413 74.689L121.842 74.6338L122.356 75.0199L122.698 74.9648L122.755 74.8545L123.041 75.0751L122.755 75.2957L124.638 77.3366L126.008 79.212L126.236 79.3775L127.206 79.5981L127.948 79.4327L128.29 79.1569L128.462 78.5501L128.119 75.737L127.663 75.7922L127.606 75.4061L127.263 75.2957L127.434 74.7441L127.549 75.3509L127.891 75.0751L128.119 75.4061L128.062 74.689L127.663 74.5235L127.491 74.4132L127.377 73.8064L127.549 73.1445L127.834 72.7584L127.663 72.8687L127.72 72.5378L128.062 72.4275V71.6001L127.891 70.9933L127.549 70.6624L127.32 70.6072L124.924 70.7727L122.755 70.8279L122.299 71.1588L122.185 71.0485L122.014 71.1036L121.785 70.7727L121.443 70.8279L121.386 70.9933L120.872 70.6624L120.416 70.883L120.188 70.7175L120.073 70.883L119.617 70.7727V70.6072L119.046 70.6624Z" fill="white"/>
<path d="M153.794 96.5876L153.394 96.5325L153.337 96.7531L153.623 96.8083L153.794 96.5876Z" fill="white"/>
<path d="M153.682 97.4148L153.739 97.2493H153.967L153.567 96.9735L153.682 97.4148Z" fill="white"/>
<path d="M155.108 95.7054L154.937 95.9812L155.108 96.1467L155.222 96.0915V95.8709L155.565 95.9261L155.394 95.7054H155.108Z" fill="white"/>
<path d="M143.298 99.7316L142.955 99.6213L142.727 99.9522L142.442 99.8419L142.385 99.6213L142.499 99.5109L143.069 99.4006L143.469 99.5109L143.298 99.7316ZM141.243 96.3669L140.159 95.7601L138.847 94.7121L137.705 93.2228L137.306 92.8367L137.135 93.6641H136.678L136.564 93.1677H136.222V92.6712H136.507L136.735 92.2299L136.85 91.7887L136.507 90.7407L135.937 89.6375L135.651 89.5272L134.738 89.4168L133.825 89.5272L133.597 89.7478L133.483 90.0787L133.825 91.7887L134.168 94.1054L134.111 95.2085V95.7601L134.567 95.8704L134.738 96.2566L134.396 96.4772L134.51 97.0288L134.339 97.3597L134.453 97.6355L134.282 97.8562L134.396 98.132L134.282 98.2423L134.339 98.9594L134.168 99.0697L134.453 99.5109L134.795 99.7867L135.48 99.9522L136.336 100.063L137.591 99.2903L139.36 98.5732L139.531 99.0697L140.33 99.1248L140.387 99.2351H140.73L141.529 99.4006L141.643 99.8419L142.099 99.4558L142.442 99.5109L142.213 99.9522L142.727 100.063L143.183 100.173L144.039 100.118V99.8419L144.211 99.7316L144.268 99.18L144.724 98.849L144.781 98.7387V98.4078L144.211 97.4149L141.243 96.3669Z" fill="white"/>
<path d="M155.564 89.9678L155.107 90.0229L155.45 90.5745L155.564 90.9055L155.507 91.0709L154.936 91.4571L154.765 92.0087L154.537 91.7329L154.651 91.1813L154.765 91.3467L154.879 91.2364L154.822 90.5745L154.936 89.8023L154.308 89.3059L154.251 89.0852L154.822 89.0301L155.107 88.6991L155.735 89.2507L155.564 89.9678ZM155.05 87.6511V87.982L154.765 88.0924V87.7614L155.05 87.6511ZM154.023 87.0995L153.681 87.3753L153.566 87.0443L153.281 86.7685L153.395 86.4927L153.624 86.3824L153.681 86.1066L153.852 86.0515L154.194 86.5479L154.708 86.3824L155.05 86.6582L154.879 86.8237L154.537 86.7134L154.308 87.0443L154.023 87.0995L153.966 86.8789L154.023 87.0995ZM153.909 88.3682L153.795 87.8717L154.023 88.0924L153.909 88.3682ZM153.167 87.5408L152.825 87.2098L152.996 86.934L153.338 87.265L153.167 87.5408ZM155.221 86.9892L155.392 87.4305L155.221 87.5408V86.9892ZM145.178 89.1404L144.722 89.0852L145.064 88.8094L145.407 88.8646L145.178 89.1404ZM140.956 71.4343V71.1585L141.355 71.324L140.956 71.4343ZM140.614 72.9788L141.07 72.4272L141.127 72.9788H140.614ZM140.728 85.2793L140.328 85.3344L140.157 85.2241L140.728 85.0035V85.2793ZM139.529 85.4999L139.415 85.3344L139.358 85.1138L139.701 85.0035L139.986 85.3344L139.529 85.4999ZM139.815 71.4895L140.1 71.5446L139.986 71.8204L139.701 71.7101L139.815 71.4895ZM139.815 87.5408L139.472 87.4305L139.586 87.265L139.872 87.2098L139.815 87.5408ZM137.418 85.2793L136.962 85.1138L136.847 85.2241L136.619 84.7828L136.277 84.838L136.334 84.6173L136.905 84.6725L137.076 84.4519L137.418 84.6725L137.76 85.3344L137.418 85.2793ZM136.334 85.9963L136.448 85.6654L136.619 85.7757L136.334 85.9963ZM135.25 84.3415L134.907 84.2864L135.079 84.0658H135.307L135.25 84.3415ZM157.333 87.3201L156.99 86.8237L157.104 86.7134L156.762 86.3273L156.876 86.1618L156.762 85.9963H156.591L156.02 86.3273L155.564 85.9963L155.735 86.4927L156.362 86.6031L156.305 87.0995L155.906 86.8237L155.564 86.4927L155.107 86.2721L155.221 85.8308L155.107 85.3344L154.993 85.0586L154.765 84.8931L154.137 84.7277L154.194 84.1761L154.422 84.0658L154.308 83.7348L154.023 83.5693V83.0729H153.681L153.395 82.6868L152.311 82.1352L150.542 81.4733L144.151 79.4324L142.554 78.4395L141.584 77.1709L141.241 75.6816L141.412 74.5784L141.755 74.0268L144.151 72.5927L144.265 72.0962L144.38 71.2689L144.265 70.6069L143.923 70.276L143.067 70.0554L141.926 70.1657V70.4966H141.469V70.9379L140.671 70.8827V71.1585L140.1 71.324H139.187V71.4895H139.472L139.358 71.7101L138.959 71.7653L138.673 72.0411L138.103 72.2617L137.932 72.8133L137.589 73.0339L137.703 72.4824L137.932 72.4272L137.361 72.1514V72.5927H136.676V72.8133L136.962 73.1443L136.733 73.4752L136.505 73.9165L135.478 74.9094L135.25 74.8542L134.622 75.7367L134.85 75.8471L134.508 76.2883L134.109 76.6193L133.88 77.0054L134.051 77.1157L133.994 77.3363L133.709 77.557L133.766 77.7225L133.652 77.7776L133.88 77.8879V78.1637L133.538 78.2741L133.367 80.3701L133.652 82.0249L133.766 82.411L134.451 84.0658L134.907 84.507L135.364 85.2793L136.277 86.217L137.019 86.2721L136.962 85.886L137.703 85.555L137.817 85.6102L139.358 85.2793L140.043 86.3824L139.929 86.4927L139.529 86.0515L138.502 86.3273V85.9963L138.046 85.4999V86.1618H137.532L137.475 86.4376L136.905 86.4927L136.847 86.7134L137.532 86.9892L137.76 87.3753L138.103 87.0995L139.415 87.2098V87.5408H139.187L138.959 87.6511L139.701 87.8166L139.758 87.982L140.214 87.9269L140.1 87.1547L140.214 87.2098L140.328 86.8237L140.214 86.3273L141.013 86.0515L141.241 85.8308L141.641 85.7757L141.983 86.3273L141.127 86.7685L141.412 86.9892V87.3201L141.127 87.4305V87.6511L140.728 87.7062V88.1475L142.497 88.2578L142.896 88.1475L143.124 88.2578L143.581 88.1475L143.809 88.4785V88.8646L144.551 88.5336V87.982H144.722L144.836 88.2578L144.722 88.3682L144.608 88.7543H144.323L144.437 88.9749L144.265 89.1404L144.094 89.0301L143.752 89.1955H143.524V89.4162L143.866 89.5817L144.722 89.692L144.608 89.8023L146.89 90.74L148.26 91.6225L149.059 92.7809L149.287 93.8289L149.116 94.8769L148.488 95.8698L148.26 96.0353L146.263 97.0833L146.148 97.1936L146.034 97.3591L145.92 98.1865L145.977 98.6277L146.833 98.7932V99.5654L146.662 99.6758L147.119 99.7861L147.061 99.4551L148.089 99.4L147.917 99.7861L148.431 99.7309L150.999 99.1793L151.569 98.9035L150.599 99.069L150.485 98.5174L151.512 98.2968V98.1865L151.741 98.0761L151.912 98.1865L152.197 97.9107L152.482 97.8555V97.69L153.053 97.8004L152.711 96.9178H152.825L152.882 96.7523L153.281 96.8075L152.882 96.4765L152.825 96.1456L153.395 95.9249L154.365 95.0424H154.708L155.05 95.3182V94.9872L155.164 94.8769V94.6563L155.45 94.6011L155.564 94.4908L156.134 94.3253L156.248 94.8769L155.906 94.9321V95.3182L155.678 95.4285L155.906 95.8698L156.248 95.5388L156.933 94.3253L157.104 93.8841L156.705 93.9944L156.477 94.3805L156.305 94.2702L156.248 94.0495L156.819 93.6634L156.933 93.0015L156.648 93.1118V92.8912L156.876 92.7809L157.047 93.1118L157.218 92.7809H157.447L157.561 92.3948L157.789 90.3539L157.39 87.4305L157.333 87.3201Z" fill="white"/>
<path d="M148.889 71.7101L149.003 71.5446L149.346 71.4895L149.403 71.8204L148.889 71.7101ZM151.286 71.4343L151.115 71.1585L150.544 70.9931L150.487 71.1034L150.088 70.8276L149.289 70.4966L146.892 70.0554L146.321 70.2208L146.036 70.4966L145.865 71.3792L146.093 72.703L146.207 72.8133L149.118 74.0268L150.202 74.7439L150.829 75.3506L151.914 76.6744L153.34 79.1566L153.397 78.936L153.625 78.605L153.968 78.7705V78.936L154.082 79.0463H153.739L153.568 79.2118L154.31 79.7082H154.424L155.109 79.5979L155.68 79.4324L155.908 79.2118L155.965 78.936L155.623 76.2332H155.394L155.28 75.9022H154.938L155.28 75.4058V74.6887L154.938 74.5232L155.508 73.9716L155.68 72.4824L155.565 71.9859L155.394 71.5998H155.052L154.71 71.324L154.767 71.0482L154.652 70.9379L154.481 70.4966L154.253 70.3312L153.854 70.2208L153.454 70.276L153.226 70.4415L152.199 71.2137L152.313 71.3792L152.142 71.4343L152.256 72.5927L151.799 72.372L151.286 71.4343Z" fill="white"/>
</svg>
