<svg width="169" height="169" viewBox="0 0 169 169" fill="none" xmlns="http://www.w3.org/2000/svg">
<g clip-path="url(#clip0_1_968)">
<path d="M82.8757 90.7191H76.9778V94.8599H82.662V96.6636H76.9778V101.024H83.0895V102.828H74.9353V88.9075H82.8757V90.7112V90.7191Z" fill="white"/>
<path d="M87.4834 88.9075H89.3042V102.828H87.4834V88.9075Z" fill="white"/>
<path d="M96.2868 98.4753H102.826C102.826 95.0716 101.219 93.4796 98.8597 93.4796C96.2868 93.4796 94.5688 95.2834 94.5688 98.1537C94.5688 100.703 96.1759 103.04 99.0734 103.04C100.578 103.04 101.646 102.616 102.723 101.981V100.279C101.654 101.024 100.578 101.338 99.5088 101.338C97.688 101.228 96.6113 100.279 96.2868 98.4674V98.4753ZM98.8597 94.9697C100.15 94.9697 101.005 95.8167 101.005 97.3067H96.3897C96.6034 95.8167 97.4584 94.9697 98.8597 94.9697Z" fill="white"/>
<path d="M114.408 96.0284C113.339 95.2834 112.69 95.0716 111.835 95.0716C110.117 95.0716 109.048 96.3499 109.048 98.1537C109.048 100.067 110.228 101.236 112.16 101.236C112.912 101.236 113.664 101.024 114.63 100.601V102.404C113.988 102.726 112.809 102.938 111.843 102.938C109.056 102.938 107.125 101.024 107.125 98.3655C107.125 95.3932 108.842 93.4796 111.629 93.4796C112.698 93.4796 113.45 93.6914 114.313 94.1149V96.0284H114.416H114.408Z" fill="white"/>
<path d="M122.562 93.5816H125.46V95.1736H122.562V99.8477C122.562 100.906 123.314 101.228 123.853 101.228C124.494 101.228 125.143 101.016 125.887 100.593V102.295C125.246 102.616 124.28 102.93 123.631 102.93C121.699 102.93 120.631 101.651 120.631 100.059V95.2755H119.023V95.0638L122.459 91.77V93.5737H122.57L122.562 93.5816Z" fill="white"/>
<path d="M132.11 93.5816V95.7069C133.075 94.1148 133.93 93.3698 134.793 93.3698C135.545 93.3698 136.187 93.6914 137.05 94.4285L136.084 96.0206C135.545 95.4873 134.793 95.1736 134.366 95.1736C133.075 95.1736 132.11 96.4519 132.11 97.9341V102.718H130.289V93.5816H132.11Z" fill="white"/>
<path d="M142.084 93.5894H143.905V102.836H142.084V93.5894Z" fill="white"/>
<path d="M155.82 96.0284C154.743 95.2834 154.102 95.0716 153.247 95.0716C151.529 95.0716 150.46 96.3499 150.46 98.1537C150.46 100.067 151.64 101.236 153.572 101.236C154.324 101.236 155.076 101.024 156.042 100.601V102.404C155.4 102.726 154.221 102.938 153.255 102.938C150.468 102.938 148.537 101.024 148.537 98.3655C148.537 95.3932 150.255 93.4796 153.041 93.4796C154.118 93.4796 154.862 93.6914 155.725 94.1149V96.0284H155.836H155.82Z" fill="white"/>
<path d="M25.2741 68.3994C21.8382 66.9094 19.6928 66.3839 17.6582 66.3839C15.5128 66.3839 14.1195 67.129 14.1195 68.2975C14.1195 71.9129 26.3507 70.8463 26.3507 79.1358C26.3507 83.5981 22.4874 86.3587 17.1278 86.3587C12.837 86.3587 10.8024 85.2999 8.43533 84.0216V78.924C11.8712 81.2611 13.9057 82.0061 16.5895 82.0061C18.9487 82.0061 20.1282 81.2611 20.1282 79.771C20.2391 75.9439 8.00783 77.3242 8.00783 68.8229C7.99991 64.6821 11.6495 62.0235 17.2228 62.0235C19.9066 62.0235 22.3687 62.5568 25.377 63.8273V68.3994H25.2662H25.2741Z" fill="white"/>
<path d="M42.4295 85.2999C40.395 85.9352 38.677 86.3587 36.9591 86.3587C31.275 86.3587 27.5225 83.0648 27.5225 78.0692C27.5225 73.0735 31.3858 69.7797 36.7454 69.7797C38.3525 69.7797 40.4979 70.2032 42.2158 70.8463V74.5636C40.8225 73.9284 39.3183 73.3951 38.0358 73.3951C34.9245 73.3951 32.9929 75.1988 32.9929 78.0692C32.9929 80.9395 34.9245 82.8531 37.822 82.8531C39.1125 82.8531 40.1812 82.5315 42.3266 81.6846V85.2999H42.4375H42.4295Z" fill="white"/>
<path d="M55.6268 83.2766V76.9007C55.6268 74.5636 54.6609 73.3951 53.0538 73.3951C51.8743 73.3951 50.9084 74.1401 49.618 75.8419V86.045H44.4722V62.3451H49.618V72.3364H49.7288C51.233 70.5326 52.8401 69.6778 54.8747 69.6778C57.8751 69.6778 60.7726 71.4815 60.7726 75.8419V82.3276C59.0547 82.3276 57.0201 82.9629 55.6268 83.2844V83.2766Z" fill="white"/>
<path d="M63.1396 82.0061V69.9915H68.2855V72.3285C69.8926 70.5247 71.4996 69.7797 73.6451 69.7797C76.218 69.7797 79.543 71.2698 79.543 75.9439V86.1469H74.3971V76.3674C74.3971 74.0303 73.3284 73.1833 71.8242 73.1833C70.5338 73.1833 69.6788 73.8186 68.2855 75.8419V82.8531C66.5676 82.3198 64.7467 82.108 63.1396 82.0061Z" fill="white"/>
<path d="M90.0641 69.6778C85.0212 69.6778 81.4824 73.1833 81.4824 78.0692C81.4824 82.955 85.2349 86.3587 90.9191 86.3587C92.2095 86.3587 95.2099 86.3587 98.2103 84.2334V81.0493C95.8512 82.7511 94.2441 83.3864 92.2016 83.3864C88.9874 83.3864 87.0558 81.6846 86.842 78.924H98.4241C98.6378 72.9716 94.7745 69.6778 90.0562 69.6778H90.0641ZM86.8499 76.1635C87.0637 73.9284 88.3541 72.6579 90.3887 72.6579C92.3203 72.6579 93.7137 74.0382 93.8245 76.1635H86.8499Z" fill="white"/>
<path d="M100.356 69.9915H105.502V86.0371H100.356V69.9915Z" fill="white"/>
<path d="M119.665 62.3451V70.7365C118.374 70.1013 116.981 69.7797 115.485 69.7797C110.869 69.7797 107.655 73.1833 107.655 78.0692C107.655 82.955 110.877 86.3587 115.271 86.3587C116.989 86.3587 118.382 85.9352 119.775 84.7666V86.045H124.921V62.3451H119.665ZM119.665 81.6846C118.699 82.6413 117.733 82.9629 116.664 82.9629C114.305 82.9629 112.698 80.9474 112.698 78.077C112.698 74.893 114.202 72.9794 116.775 72.9794C117.741 72.9794 118.92 73.4029 119.673 73.9362V81.6924L119.665 81.6846Z" fill="white"/>
<path d="M135.435 69.6778C130.392 69.6778 126.853 73.1833 126.853 78.0692C126.853 82.955 130.606 86.3587 136.29 86.3587C137.58 86.3587 140.581 86.3587 143.581 84.2334V81.0493C141.222 82.7511 139.615 83.3864 137.572 83.3864C134.35 83.3864 132.426 81.6846 132.213 78.924H143.906C144.008 72.9716 140.153 69.6778 135.435 69.6778ZM132.323 76.1635C132.537 73.9284 133.828 72.6579 135.759 72.6579C137.794 72.6579 139.084 74.0382 139.298 76.1635H132.323Z" fill="white"/>
<path d="M151.418 74.5636C152.923 71.16 154.64 69.6778 156.675 69.6778C157.641 69.6778 158.496 70.1013 160 71.1678L158.607 75.6302C157.316 74.7832 156.461 74.4617 155.606 74.4617C153.785 74.4617 152.495 76.2654 151.418 79.1358V86.1469H146.375V69.9915H151.521V74.5636H151.41H151.418Z" fill="white"/>
<path d="M105.723 63.1921C106.151 64.4704 105.296 66.2741 103.792 67.1211C102.287 68.0779 100.569 67.7564 100.142 66.4859C99.7145 65.2076 100.569 63.5136 102.074 62.5568C103.578 61.6 105.296 61.9216 105.723 63.1921Z" fill="white"/>
<path d="M144.016 90.3975C144.23 90.821 143.803 91.4563 143.264 91.7778C142.726 92.0993 142.188 91.9895 141.974 91.5661C141.76 91.1426 142.085 90.5073 142.615 90.1858C143.256 89.7623 143.795 89.8642 144.008 90.3975H144.016Z" fill="white"/>
<path d="M70.0351 93.0561C70.6209 89.9976 69.9322 87.19 67.858 85.4019C63.8918 81.9983 56.3789 83.8099 51.0193 89.229C50.3305 89.927 49.713 90.6563 49.1589 91.4014H52.0247L51.3834 93.4169H47.8843C47.5439 94.0521 47.2509 94.6873 47.0134 95.3304H51.0668L50.4255 97.3459H46.4276C45.7626 100.506 46.4276 103.44 48.5651 105.267C52.5314 108.67 60.1472 106.859 65.4039 101.44C66.1718 100.655 66.8368 99.832 67.4305 98.9929H63.3693L64.0105 96.9773H68.6497C68.9822 96.3421 69.2672 95.699 69.4968 95.0638H64.438L65.0793 93.0483H70.0509L70.0351 93.0561ZM63.4564 91.2524C62.8151 91.2524 62.6014 91.3621 62.4905 91.8876L60.8834 98.1537C60.2422 100.491 57.2339 102.295 54.7718 102.295H49.4122L50.2672 99.1105H53.2676C53.6951 99.1105 54.3364 98.7889 54.4472 98.3655L55.7376 92.6248C56.2759 90.2877 59.2764 88.3742 61.6355 88.3742H66.9951L66.243 91.2445H63.4564V91.2524Z" fill="white"/>
</g>
<defs>
<clipPath id="clip0_1_968">
<rect width="152" height="45" fill="white" transform="translate(8 62)"/>
</clipPath>
</defs>
</svg>
