<svg width="462" height="775" viewBox="0 0 462 775" fill="none" xmlns="http://www.w3.org/2000/svg">
<path d="M53.1709 -167.967C248.34 -167.967 406.552 80.9538 406.552 388.014C406.552 695.074 248.334 944 53.1708 944" stroke="white" stroke-miterlimit="10"/>
<path d="M407.706 226.647C318.626 226.647 246.412 298.896 246.412 388.02C246.412 477.144 318.626 549.393 407.706 549.393C496.786 549.393 569 477.144 569 388.02C569 298.896 496.786 226.647 407.706 226.647Z" stroke="white" stroke-miterlimit="10"/>
<path d="M552 387.502L-2.13385e-05 387.502" stroke="white" stroke-dasharray="6 6"/>
<path d="M278.833 820.074L59.9999 387.481" stroke="white" stroke-dasharray="6 6"/>
<path d="M280.175 812.578L280.175 -45.113" stroke="white"/>
<path d="M280.175 -45.1123L61.3416 387.481" stroke="white" stroke-dasharray="6 6"/>
<circle cx="405" cy="388" r="21" fill="#E77975"/>
</svg>
