<svg width="466" height="775" viewBox="0 0 466 775" fill="none" xmlns="http://www.w3.org/2000/svg">
<path d="M-86 388.498H466" stroke="white" stroke-dasharray="6 6"/>
<path d="M412.829 943.965C217.66 943.965 59.4482 695.044 59.4482 387.984C59.4482 80.9243 217.666 -168.002 412.829 -168.002" stroke="white" stroke-miterlimit="10"/>
<path d="M58.2941 549.353C147.374 549.353 219.588 477.104 219.588 387.98C219.588 298.856 147.374 226.607 58.2941 226.607C-30.7862 226.607 -103 298.856 -103 387.98C-103 477.104 -30.7862 549.353 58.2941 549.353Z" stroke="white" stroke-miterlimit="10"/>
<rect x="36.9873" y="364.961" width="46.0433" height="46.0433" fill="#DFF7A7"/>
<path d="M187.167 -44.0742L406 388.519" stroke="white" stroke-dasharray="6 6"/>
<path d="M185.825 -36.5791L185.825 821.112" stroke="white"/>
<path d="M185.825 821.113L404.658 388.52" stroke="white" stroke-dasharray="6 6"/>
</svg>
