<svg width="82" height="83" viewBox="0 0 82 83" fill="none" xmlns="http://www.w3.org/2000/svg">
<rect x="81.5" y="82.1079" width="19.9766" height="81" rx="9.98828" transform="rotate(-180 81.5 82.1079)" stroke="black"/>
<rect x="50.9883" y="82.1079" width="19.9766" height="81" rx="9.98828" transform="rotate(-180 50.9883 82.1079)" stroke="black"/>
<rect x="20.4766" y="82.1079" width="19.9766" height="81" rx="9.98828" transform="rotate(-180 20.4766 82.1079)" stroke="black"/>
<path d="M61.5235 60.9312C61.5235 55.4868 65.9899 51.0634 71.5117 51.0634C77.0336 51.0634 81.5 55.4868 81.5 60.9312C81.5 66.3756 77.0336 70.799 71.5117 70.799C65.9899 70.799 61.5235 66.3756 61.5235 60.9312Z" stroke="black"/>
<path d="M31.0117 42.0809C31.0117 36.6365 35.4782 32.2131 41 32.2131C46.5218 32.2131 50.9883 36.6365 50.9883 42.0809C50.9883 47.5254 46.5218 51.9488 41 51.9488C35.4782 51.9488 31.0117 47.5254 31.0117 42.0809Z" stroke="black"/>
<path d="M0.528087 60.9248C0.528087 55.4804 4.99453 51.057 10.5164 51.057C16.0382 51.057 20.5046 55.4804 20.5046 60.9248C20.5046 66.3692 16.0382 70.7926 10.5164 70.7926C4.99453 70.7926 0.528086 66.3692 0.528087 60.9248Z" stroke="black"/>
</svg>
