<svg width="84" height="84" viewBox="0 0 84 84" fill="none" xmlns="http://www.w3.org/2000/svg">
<path d="M42.1483 18.0757C46.9717 18.0757 50.882 14.1654 50.882 9.34183C50.882 4.51822 46.9717 0.60791 42.1483 0.60791C37.3248 0.60791 33.4146 4.51822 33.4146 9.34183C33.4146 14.1654 37.3248 18.0757 42.1483 18.0757Z" stroke="black" stroke-miterlimit="10"/>
<path d="M42.3174 82.6079C47.1409 82.6079 51.0512 78.6976 51.0512 73.874C51.0512 69.0504 47.1409 65.1401 42.3174 65.1401C37.494 65.1401 33.5837 69.0504 33.5837 73.874C33.5837 78.6976 37.494 82.6079 42.3174 82.6079Z" stroke="black" stroke-miterlimit="10"/>
<path d="M74.2664 50.2573C79.0899 50.2573 83.0001 46.347 83.0001 41.5234C83.0001 36.6998 79.0899 32.7895 74.2664 32.7895C69.4429 32.7895 65.5327 36.6998 65.5327 41.5234C65.5327 46.347 69.4429 50.2573 74.2664 50.2573Z" stroke="black" stroke-miterlimit="10"/>
<path d="M9.73371 50.4244C14.5572 50.4244 18.4674 46.5141 18.4674 41.6905C18.4674 36.8669 14.5572 32.9565 9.73371 32.9565C4.91021 32.9565 1 36.8669 1 41.6905C1 46.5141 4.91021 50.4244 9.73371 50.4244Z" stroke="black" stroke-miterlimit="10"/>
<path d="M42.1543 29.1921V53.563" stroke="black" stroke-miterlimit="10"/>
<path d="M54.34 41.3779H29.9697" stroke="black" stroke-miterlimit="10"/>
<path d="M48.4705 15.5244L68.3354 35.3899" stroke="black" stroke-miterlimit="10"/>
<path d="M16.3367 47.8652L36.2042 67.7306" stroke="black" stroke-miterlimit="10"/>
<path d="M15.8689 35.438L35.7338 15.5726" stroke="black" stroke-miterlimit="10"/>
<path d="M48.2405 67.6432L68.1054 47.7777" stroke="black" stroke-miterlimit="10"/>
</svg>
