<svg width="84" height="84" viewBox="0 0 84 84" fill="none" xmlns="http://www.w3.org/2000/svg">
<path d="M42.6514 82.6079C64.5684 82.6079 82.3357 64.8402 82.3357 42.9225C82.3357 21.0049 64.5684 3.23718 42.6514 3.23718C20.7343 3.23718 2.96704 21.0049 2.96704 42.9225C2.96704 64.8402 20.7343 82.6079 42.6514 82.6079Z" stroke="black" stroke-miterlimit="10"/>
<path d="M69.2785 28.0514C76.8567 28.0514 82.9999 21.908 82.9999 14.3297C82.9999 6.75136 76.8567 0.60791 69.2785 0.60791C61.7004 0.60791 55.5571 6.75136 55.5571 14.3297C55.5571 21.908 61.7004 28.0514 69.2785 28.0514Z" stroke="black" stroke-miterlimit="10"/>
<path d="M14.7214 82.2784C22.2995 82.2784 28.4428 76.135 28.4428 68.5567C28.4428 60.9783 22.2995 54.8349 14.7214 54.8349C7.14328 54.8349 1 60.9783 1 68.5567C1 76.135 7.14328 82.2784 14.7214 82.2784Z" stroke="black" stroke-miterlimit="10"/>
<path d="M14.9995 14.6079L70.998 70.6079" stroke="black" stroke-miterlimit="10"/>
<path d="M13.9998 69.6079L69.9983 13.6079" stroke="black" stroke-miterlimit="10"/>
</svg>
