<svg width="84" height="84" viewBox="0 0 84 84" fill="none" xmlns="http://www.w3.org/2000/svg">
<path d="M36.9024 0.60791H1.55518V36.0103H36.9024V0.60791Z" stroke="black" stroke-miterlimit="10"/>
<path d="M36.3472 46.9303H1V82.3326H36.3472V46.9303Z" stroke="black" stroke-miterlimit="10"/>
<path d="M83 0.889877H47.6528V36.2922H83V0.889877Z" stroke="black" stroke-miterlimit="10"/>
<path d="M82.4449 47.2056H47.0977V82.6079H82.4449V47.2056Z" stroke="black" stroke-miterlimit="10"/>
<path d="M36.6714 18.1209H47.7109" stroke="black" stroke-miterlimit="10"/>
<path d="M46.8811 65.076H36.8135" stroke="black" stroke-miterlimit="10"/>
<path d="M18.2295 36.3799V46.4632" stroke="black" stroke-miterlimit="10"/>
<path d="M65.2834 56.0939C73.2916 56.0939 79.7835 49.5918 79.7835 41.5711C79.7835 33.5504 73.2916 27.0483 65.2834 27.0483C57.2752 27.0483 50.7832 33.5504 50.7832 41.5711C50.7832 49.5918 57.2752 56.0939 65.2834 56.0939Z" stroke="black" stroke-miterlimit="10"/>
</svg>
