<svg width="82" height="83" viewBox="0 0 82 83" fill="none" xmlns="http://www.w3.org/2000/svg">
<path d="M60.0754 61.6965C60.0754 73.001 51.5045 82.1079 41.0001 82.1079C30.4957 82.1079 21.9248 73.001 21.9248 61.6965C21.9248 50.3919 30.4957 41.285 41.0001 41.285C51.5045 41.285 60.0754 50.3919 60.0754 61.6965Z" stroke="black"/>
<path d="M73.945 40.2838H7.90215C8.15183 20.9343 22.8714 5.38852 40.9236 5.38852C58.9757 5.38852 73.6953 20.9343 73.945 40.2838Z" stroke="black"/>
<path d="M51.29 61.6955C51.29 67.8166 46.6526 72.7215 41.0005 72.7215C35.3483 72.7215 30.7109 67.8166 30.7109 61.6955C30.7109 55.5744 35.3483 50.6695 41.0005 50.6695C46.6526 50.6695 51.29 55.5744 51.29 61.6955Z" stroke="black"/>
<path d="M4.43236 4.97127C4.43236 6.24224 3.50763 7.18811 2.46618 7.18811C1.42473 7.18811 0.5 6.24224 0.5 4.97127C0.5 3.70029 1.42473 2.75443 2.46618 2.75443C3.50763 2.75443 4.43236 3.70029 4.43236 4.97127Z" stroke="black"/>
<path d="M81.5001 4.97127C81.5001 6.2272 80.5547 7.18811 79.4568 7.18811C78.359 7.18811 77.4136 6.2272 77.4136 4.97127C77.4136 3.71533 78.359 2.75443 79.4568 2.75443C80.5547 2.75443 81.5001 3.71533 81.5001 4.97127Z" stroke="black"/>
<path d="M4.93164 4.88852L76.9133 4.88853" stroke="black"/>
<rect x="37.3394" y="1.10791" width="7.32336" height="7.89148" stroke="black"/>
</svg>
