<svg width="83" height="83" viewBox="0 0 83 83" fill="none" xmlns="http://www.w3.org/2000/svg">
<path d="M41.0508 0.60791V82.6079" stroke="black" stroke-miterlimit="10"/>
<path d="M33.373 1.32666H48.7271" stroke="black" stroke-miterlimit="10"/>
<path d="M33.2773 82.4751H48.6313" stroke="black" stroke-miterlimit="10"/>
<path d="M35.6865 20.0044H46.3144" stroke="black" stroke-miterlimit="10"/>
<path d="M35.6865 63.3188H46.3144" stroke="black" stroke-miterlimit="10"/>
<path d="M0 41.5629H82" stroke="black" stroke-miterlimit="10"/>
<path d="M0.71875 49.2392V33.8852" stroke="black" stroke-miterlimit="10"/>
<path d="M81.8672 49.3349V33.9809" stroke="black" stroke-miterlimit="10"/>
<path d="M19.3965 46.9222V36.2944" stroke="black" stroke-miterlimit="10"/>
<path d="M62.7109 46.9222V36.2944" stroke="black" stroke-miterlimit="10"/>
<path d="M8.12102 16.9945C12.0959 16.9945 15.3182 13.7722 15.3182 9.79729C15.3182 5.82239 12.0959 2.6001 8.12102 2.6001C4.14612 2.6001 0.923828 5.82239 0.923828 9.79729C0.923828 13.7722 4.14612 16.9945 8.12102 16.9945Z" stroke="black" stroke-miterlimit="10"/>
<path d="M67.0524 69.6757C69.338 69.6757 71.1908 67.8229 71.1908 65.5373C71.1908 63.2517 69.338 61.3989 67.0524 61.3989C64.7669 61.3989 62.9141 63.2517 62.9141 65.5373C62.9141 67.8229 64.7669 69.6757 67.0524 69.6757Z" stroke="black" stroke-miterlimit="10"/>
<path d="M59.0642 27.4511C61.3497 27.4511 63.2026 25.5983 63.2026 23.3127C63.2026 21.0271 61.3497 19.1743 59.0642 19.1743C56.7786 19.1743 54.9258 21.0271 54.9258 23.3127C54.9258 25.5983 56.7786 27.4511 59.0642 27.4511Z" stroke="black" stroke-miterlimit="10"/>
</svg>
