<svg width="608" height="453" viewBox="0 0 608 453" fill="none" xmlns="http://www.w3.org/2000/svg">
<path d="M305.5 408C405.187 408 486 327.187 486 227.5C486 127.813 405.187 47 305.5 47C205.813 47 125 127.813 125 227.5C125 327.187 205.813 408 305.5 408Z" stroke="white" stroke-miterlimit="10"/>
<path d="M304 263C471.342 263 607 246.882 607 227C607 207.118 471.342 191 304 191C136.658 191 1 207.118 1 227C1 246.882 136.658 263 304 263Z" stroke="#A08EFF" stroke-miterlimit="10" stroke-dasharray="6 6"/>
<path d="M305.5 408C376.469 408 434 327.187 434 227.5C434 127.813 376.469 47 305.5 47C234.531 47 177 127.813 177 227.5C177 327.187 234.531 408 305.5 408Z" stroke="white" stroke-miterlimit="10"/>
<path d="M305 408C345.869 408 379 327.187 379 227.5C379 127.813 345.869 47 305 47C264.131 47 231 127.813 231 227.5C231 327.187 264.131 408 305 408Z" stroke="white" stroke-miterlimit="10"/>
<path d="M305 47V408" stroke="white" stroke-miterlimit="10"/>
<path d="M305.5 92C330.629 92 351 71.629 351 46.5C351 21.371 330.629 1 305.5 1C280.371 1 260 21.371 260 46.5C260 71.629 280.371 92 305.5 92Z" stroke="white" stroke-miterlimit="10"/>
<path d="M305 452C329.853 452 350 431.853 350 407C350 382.147 329.853 362 305 362C280.147 362 260 382.147 260 407C260 431.853 280.147 452 305 452Z" stroke="white" stroke-miterlimit="10"/>
<path d="M126.5 234C145.554 234 161 218.778 161 200C161 181.222 145.554 166 126.5 166C107.446 166 92 181.222 92 200C92 218.778 107.446 234 126.5 234Z" stroke="white" stroke-miterlimit="10"/>
<path d="M126 206C129.866 206 133 202.866 133 199C133 195.134 129.866 192 126 192C122.134 192 119 195.134 119 199C119 202.866 122.134 206 126 206Z" fill="#A08EFF"/>
<path d="M379.5 234C383.642 234 387 230.866 387 227C387 223.134 383.642 220 379.5 220C375.358 220 372 223.134 372 227C372 230.866 375.358 234 379.5 234Z" fill="#DFF7A7"/>
<path d="M487 234C490.866 234 494 230.866 494 227C494 223.134 490.866 220 487 220C483.134 220 480 223.134 480 227C480 230.866 483.134 234 487 234Z" fill="#A08EFF"/>
<path d="M305 54C308.866 54 312 50.866 312 47C312 43.134 308.866 40 305 40C301.134 40 298 43.134 298 47C298 50.866 301.134 54 305 54Z" fill="#A08EFF"/>
<path d="M305 414C308.866 414 312 410.866 312 407C312 403.134 308.866 400 305 400C301.134 400 298 403.134 298 407C298 410.866 301.134 414 305 414Z" fill="#A08EFF"/>
<path d="M495 104H429V170H495V104Z" stroke="white" stroke-miterlimit="10"/>
<path d="M472 128H453V147H472V128Z" fill="#A08EFF"/>
<path d="M226 284H161V349H226V284Z" stroke="white" stroke-miterlimit="10"/>
<path d="M204 307H185V326H204V307Z" fill="#A08EFF"/>
<path d="M423 311H412V323H423V311Z" fill="#DFF7A7"/>
<path d="M201 132H189V144H201V132Z" fill="white" stroke="#DFF7A7" stroke-miterlimit="10"/>
<path d="M305.627 47L126.5 198.5L304.993 407L463 137.794L195.5 317" stroke="#A08EFF" stroke-miterlimit="10" stroke-dasharray="6 6"/>
</svg>
