<svg width="187" height="190" viewBox="0 0 187 190" fill="none" xmlns="http://www.w3.org/2000/svg">
<rect y="0.86792" width="187" height="189" rx="18" fill="#27272A"/>
<path d="M127 88.9679H94.1999V102.568H113C112.6 104.568 111.9 106.468 110.8 108.168C109.6 110.068 108 111.768 106 113.068C102.9 115.168 98.8999 116.368 94.1999 116.368H94.0999C87.4999 116.368 81.6999 113.068 77.9999 108.068C76.6999 106.368 75.5999 104.368 74.8999 102.268C74.8999 102.168 74.7999 102.068 74.7999 101.868C74.0999 99.7679 73.6999 97.5679 73.6999 95.1679C73.6999 92.8679 74.0999 90.5679 74.7999 88.4679C74.7999 88.3679 74.8999 88.2679 74.8999 88.0679C75.5999 85.9679 76.6999 84.0679 77.9999 82.2679C81.6999 77.2679 87.5999 74.0679 94.0999 73.9679H94.1999C99.2999 73.9679 103.9 75.7679 107.5 79.1679L117.4 69.1679L117.5 69.0679C111.5 63.3679 103.6 59.9679 94.1999 59.9679H94.0999C80.4999 60.0679 68.7999 67.8679 63.0999 79.2679C62.5999 80.1679 62.1999 81.1679 61.7999 82.1679C60.1999 86.1679 59.3999 90.4679 59.3999 94.9679C59.3999 99.4679 60.2999 103.768 61.7999 107.768C62.1999 108.768 62.5999 109.768 63.0999 110.668C65.7999 116.068 69.8999 120.668 74.8999 124.068C80.3999 127.768 86.9999 129.968 94.0999 129.968H94.1999C103.6 129.968 111.5 126.868 117.3 121.468C121.2 117.868 124.2 113.168 125.9 107.768C127.1 104.068 127.7 100.068 127.7 95.7679C127.6 93.6679 127.4 91.2679 127 88.9679Z" fill="white"/>
</svg>
